{
.appVersion = "3151";
DisplayStrings = (
npoPHO,
ABCDEFGHIJKLMNOPQRSTUVWXYZ,
"/space/obreve o´ó/circumflex ôö/ohungarumlaut/omacron õ\012`´/circumflex/caron/tilde ¨¯/breve/ring/hungarumlaut/dotaccent ¸/ogonek",
"`´/circumflex/caron/tilde ¨¯/breve/ring/hungarumlaut/dotaccent ¸/ogonek/uni02C9/commaaccent",
"/gravecomb.case/acutecomb.case/circumflexcomb.case/tildecomb.case/macroncomb.case/brevecomb.case/dotaccentcomb.case/dieresiscomb.case/ringcomb.case/hungarumlautcomb.case/caroncomb.case/cedillacomb.case/ogonekcomb.case",
"/gravecomb/acutecomb/circumflexcomb/tildecomb/macroncomb/brevecomb/dotaccentcomb/dieresiscomb/ringcomb/hungarumlautcomb/caroncomb/cedillacomb/ogonekcomb",
"OÓO/brevecomb.case/Obreve/circumflexcomb.case Ô/dieresiscomb.case ÖÒ/hungarumlautcomb.case/Ohungarumlaut/Omacron Ø/Oslashacute/tildecomb.case O/tildecomb.case/tildecomb.case Õ",
CDEFGHIJKLMNOPQRSTUVWXYZ,
M,
R,
"/uni0146",
S,
"ÐÐ/dcroat/dcroat/dcroat/dcroat/hbar/hbar/gravecomb.case/gravecomb.case/acutecomb.case/acutecomb.case/acutecomb.case/circumflexcomb.case/circumflexcomb.case/tildecomb.case/tildecomb.case/macroncomb.case/macroncomb.case/brevecomb.case/brevecomb.case/dotaccentcomb.case/dotaccentcomb.case/dieresiscomb.case/dieresiscomb.case/ringcomb.case/ringcomb.case/hungarumlautcomb.case/hungarumlautcomb.case/caroncomb.case/caroncomb.case"
);
classes = (
{
automatic = 1;

glyphs = (
{
glyphname = .notdef;
lastChange = "2019-12-01 03:47:08 +0000";
layers = (
{
layerId = "CF479DE4-94A2-4865-8D1E-65EA355866D4";
paths = (
{
closed = 1;
nodes = (
"119 607 LINE",
"119 60 LINE",
"596 60 LINE",
"596 607 LINE"
);
},
{
closed = 1;
nodes = (
"546 571 LINE",
"546 96 LINE",
"169 96 LINE",
"169 571 LINE"
);
},
{
closed = 1;
nodes = (
"277 190 LINE",
"349 307 LINE",
"423 191 LINE",
"478 190 LINE",
"379 345 LINE",
"461 477 LINE",
"423 476 LINE",
"360 375 LINE",
"295 476 LINE",
"240 477 LINE",
"330 337 LINE",
"239 190 LINE"
);
}
);
width = 683;
},
{
layerId = "0FAD76F5-9F58-4721-BF81-08BC6166EF10";
paths = (
{
closed = 1;
nodes = (
"119 607 LINE",
"119 60 LINE",
"596 60 LINE",
"596 607 LINE"
);
},
{
closed = 1;
nodes = (
"546 571 LINE",
"546 96 LINE",
"169 96 LINE",
"169 571 LINE"
);
},
{
closed = 1;
nodes = (
"277 190 LINE",
"349 307 LINE",
"423 191 LINE",
"478 190 LINE",
"379 345 LINE",
"461 477 LINE",
"423 476 LINE",
"360 375 LINE",
"295 476 LINE",
"240 477 LINE",
"330 337 LINE",
"239 190 LINE"
);
}
);
width = 685;
}
);
},
{
color = 4;
glyphname = A;
lastChange = "2019-12-01 01:32:03 +0000";
layers = (
{
anchors = (
{
name = ogonek;
position = "{460, 0}";
},
{
name = top;
position = "{352, 667}";
}
);
background = {
anchors = (
{
name = ogonek;
position = "{553, 0}";
}
);
paths = (
{
closed = 1;
nodes = (
"204 0 LINE",
"209 37 LINE",
"177 41 OFFCURVE",
"142 47 OFFCURVE",
"114 62 CURVE",
"180 215 LINE",
"366 215 LINE",
"389 63 LINE",
"368 52 OFFCURVE",
"338 42 OFFCURVE",
"294 37 CURVE",
"288 0 LINE",
"553 0 LINE",
"557 37 LINE",
"534 41 OFFCURVE",
"508 46 OFFCURVE",
"486 62 CURVE",
"384 667 LINE",
"319 667 LINE",
"47 60 LINE",
"25 45 OFFCURVE",
"0 41 OFFCURVE",
"-26 37 CURVE",
"-31 0 LINE"
);
},
{
closed = 1;
nodes = (
"318 534 LINE",
"358 267 LINE",
"202 267 LINE"
);
}
);
};
layerId = "CF479DE4-94A2-4865-8D1E-65EA355866D4";
paths = (
{
closed = 1;
nodes = (
"204 0 LINE",
"209 37 LINE",
"177 41 OFFCURVE",
"142 47 OFFCURVE",
"114 62 CURVE",
"180 215 LINE",
"366 215 LINE",
"389 63 LINE",
"368 52 OFFCURVE",
"338 42 OFFCURVE",
"294 37 CURVE",
"288 0 LINE",
"553 0 LINE",
"557 37 LINE",
"534 41 OFFCURVE",
"508 46 OFFCURVE",
"486 62 CURVE",
"384 667 LINE",
"319 667 LINE",
"47 60 LINE",
"25 45 OFFCURVE",
"0 41 OFFCURVE",
"-26 37 CURVE",
"-31 0 LINE"
);
},
{
closed = 1;
nodes = (
"318 534 LINE",
"358 267 LINE",
"202 267 LINE"
);
}
);
width = 578;
},
{
anchors = (
{
name = ogonek;
position = "{494, 0}";
},
{
name = top;
position = "{377, 667}";
}
);
background = {
anchors = (
{
name = ogonek;
position = "{494, 0}";
},
{
name = top;
position = "{377, 667}";
}
);
paths = (
{
closed = 1;
nodes = (
"171 0 LINE",
"176 40 LINE",
"143 44 OFFCURVE",
"113 54 OFFCURVE",
"96 70 CURVE",
"166 208 LINE",
"372 208 LINE",
"396 65 LINE",
"384 52 OFFCURVE",
"359 44 OFFCURVE",
"330 40 CURVE",
"324 0 LINE",
"600 0 LINE",
"604 40 LINE",
"581 44 OFFCURVE",
"559 53 OFFCURVE",
"550 74 CURVE SMOOTH",
"429 667 LINE",
"325 667 LINE",
"16 65 LINE SMOOTH",
"1 48 OFFCURVE",
"-24 42 OFFCURVE",
"-50 40 CURVE",
"-55 0 LINE"
);
},
{
closed = 1;
nodes = (
"321 511 LINE",
"361 271 LINE",
"198 271 LINE"
);
}
);
};
layerId = "0FAD76F5-9F58-4721-BF81-08BC6166EF10";
paths = (
{
closed = 1;
nodes = (
"171 0 LINE",
"176 40 LINE",
"143 44 OFFCURVE",
"113 54 OFFCURVE",
"96 70 CURVE",
"166 208 LINE",
"372 208 LINE",
"396 65 LINE",
"384 52 OFFCURVE",
"359 44 OFFCURVE",
"330 40 CURVE",
"324 0 LINE",
"600 0 LINE",
"604 40 LINE",
"574 46 OFFCURVE",
"554 57 OFFCURVE",
"549 80 CURVE SMOOTH",
"429 667 LINE",
"325 667 LINE",
"19 70 LINE SMOOTH",
"11 54 OFFCURVE",
"-12 43 OFFCURVE",
"-50 40 CURVE",
"-55 0 LINE"
);
},
{
closed = 1;
nodes = (
"321 511 LINE",
"361 271 LINE",
"198 271 LINE"
);
}
);
width = 614;
}
);
leftKerningGroup = A;
rightKerningGroup = A;
unicode = 0041;
},
{
color = 4;
glyphname = Aacute;
lastChange = "2019-11-29 22:23:00 +0000";
layers = (
{
background = {
paths = (
{
closed = 1;
nodes = (
"563 0 LINE",
"567 37 LINE",
"544 41 OFFCURVE",
"518 46 OFFCURVE",
"496 62 CURVE",
"394 667 LINE",
"329 667 LINE",
"57 60 LINE",
"35 45 OFFCURVE",
"10 41 OFFCURVE",
"-16 37 CURVE",
"-21 0 LINE",
"214 0 LINE",
"219 37 LINE",
"187 41 OFFCURVE",
"152 47 OFFCURVE",
"124 62 CURVE",
"190 215 LINE",
"376 215 LINE",
"399 63 LINE",
"394 63 LINE",
"366 46 OFFCURVE",
"336 41 OFFCURVE",
"304 37 CURVE",
"298 0 LINE"
);
},
{
closed = 1;
nodes = (
"368 267 LINE",
"212 267 LINE",
"328 534 LINE"
);
},
{
closed = 1;
nodes = (
"462 780 LINE SMOOTH",
"480 793 OFFCURVE",
"485 804 OFFCURVE",
"485 819 CURVE SMOOTH",
"485 839 OFFCURVE",
"468 853 OFFCURVE",
"451 853 CURVE SMOOTH",
"436 853 OFFCURVE",
"426 849 OFFCURVE",
"415 837 CURVE SMOOTH",
"318 721 LINE",
"340 696 LINE"
);
}
);
};
components = (
{
name = A;
},
{
name = acutecomb.case;
transform = "{1, 0, 0, 1, 236, 0}";
}
);
layerId = "CF479DE4-94A2-4865-8D1E-65EA355866D4";
width = 578;
},
{
background = {
paths = (
{
closed = 1;
nodes = (
"384 52 OFFCURVE",
"359 44 OFFCURVE",
"330 40 CURVE",
"324 0 LINE",
"600 0 LINE",
"604 40 LINE",
"581 44 OFFCURVE",
"559 53 OFFCURVE",
"550 74 CURVE",
"429 667 LINE",
"325 667 LINE",
"16 65 LINE",
"1 48 OFFCURVE",
"-24 42 OFFCURVE",
"-50 40 CURVE",
"-55 0 LINE",
"171 0 LINE",
"176 40 LINE",
"143 44 OFFCURVE",
"113 54 OFFCURVE",
"96 70 CURVE",
"166 208 LINE",
"372 208 LINE",
"396 65 LINE"
);
},
{
closed = 1;
nodes = (
"361 271 LINE",
"198 271 LINE",
"321 511 LINE"
);
},
{
closed = 1;
nodes = (
"525 813 OFFCURVE",
"535 832 OFFCURVE",
"535 850 CURVE SMOOTH",
"535 875 OFFCURVE",
"515 896 OFFCURVE",
"489 896 CURVE SMOOTH",
"472 896 OFFCURVE",
"452 887 OFFCURVE",
"433 864 CURVE SMOOTH",
"339 747 LINE",
"369 713 LINE",
"500 797 LINE"
);
}
);
};
components = (
{
name = A;
},
{
name = acutecomb.case;
transform = "{1, 0, 0, 1, 249, 0}";
}
);
layerId = "0FAD76F5-9F58-4721-BF81-08BC6166EF10";
width = 614;
}
);
leftKerningGroup = A;
rightKerningGroup = A;
unicode = 00C1;
},
{
color = 4;
glyphname = Acircumflex;
lastChange = "2019-11-29 22:23:00 +0000";
layers = (
{
background = {
paths = (
{
closed = 1;
nodes = (
"563 0 LINE",
"567 37 LINE",
"544 41 OFFCURVE",
"518 46 OFFCURVE",
"496 62 CURVE",
"394 667 LINE",
"329 667 LINE",
"57 60 LINE",
"35 45 OFFCURVE",
"10 41 OFFCURVE",
"-16 37 CURVE",
"-21 0 LINE",
"214 0 LINE",
"219 37 LINE",
"187 41 OFFCURVE",
"152 47 OFFCURVE",
"124 62 CURVE",
"190 215 LINE",
"376 215 LINE",
"399 63 LINE",
"394 63 LINE",
"366 46 OFFCURVE",
"336 41 OFFCURVE",
"304 37 CURVE",
"298 0 LINE"
);
},
{
closed = 1;
nodes = (
"368 267 LINE",
"212 267 LINE",
"328 534 LINE"
);
},
{
closed = 1;
nodes = (
"415 827 LINE SMOOTH",
"407 838 OFFCURVE",
"398 843 OFFCURVE",
"386 843 CURVE SMOOTH",
"374 843 OFFCURVE",
"363 837 OFFCURVE",
"353 827 CURVE SMOOTH",
"244 720 LINE",
"265 696 LINE",
"377 771 LINE",
"465 696 LINE",
"491 720 LINE"
);
}
);
};
components = (
{
name = A;
},
{
name = circumflexcomb.case;
transform = "{1, 0, 0, 1, 159, 0}";
}
);
layerId = "CF479DE4-94A2-4865-8D1E-65EA355866D4";
width = 578;
},
{
components = (
{
name = A;
},
{
name = circumflexcomb.case;
transform = "{1, 0, 0, 1, 156, 0}";
}
);
layerId = "0FAD76F5-9F58-4721-BF81-08BC6166EF10";
width = 614;
}
);
leftKerningGroup = A;
rightKerningGroup = A;
unicode = 00C2;
},
{
color = 4;
glyphname = Adieresis;
lastChange = "2019-11-29 22:23:00 +0000";
layers = (
{
background = {
anchors = (
{
name = ogonek;
position = "{563, 0}";
},
{
name = top;
position = "{363, 695}";
}
);
paths = (
{
closed = 1;
nodes = (
"563 0 LINE",
"567 37 LINE",
"544 41 OFFCURVE",
"518 46 OFFCURVE",
"496 62 CURVE",
"394 667 LINE",
"329 667 LINE",
"57 60 LINE",
"35 45 OFFCURVE",
"10 41 OFFCURVE",
"-16 37 CURVE",
"-21 0 LINE",
"214 0 LINE",
"219 37 LINE",
"187 41 OFFCURVE",
"152 47 OFFCURVE",
"124 62 CURVE",
"190 215 LINE",
"376 215 LINE",
"399 63 LINE",
"394 63 LINE",
"366 46 OFFCURVE",
"336 41 OFFCURVE",
"304 37 CURVE",
"298 0 LINE"
);
},
{
closed = 1;
nodes = (
"368 267 LINE",
"212 267 LINE",
"328 534 LINE"
);
},
{
closed = 1;
nodes = (
"320 728 OFFCURVE",
"341 752 OFFCURVE",
"341 793 CURVE SMOOTH",
"341 817 OFFCURVE",
"326 833 OFFCURVE",
"299 833 CURVE SMOOTH",
"266 833 OFFCURVE",
"245 809 OFFCURVE",
"245 768 CURVE SMOOTH",
"245 743 OFFCURVE",
"260 728 OFFCURVE",
"287 728 CURVE SMOOTH",
"287 728 LINE"
);
},
{
closed = 1;
nodes = (
"487 728 OFFCURVE",
"508 752 OFFCURVE",
"508 793 CURVE SMOOTH",
"508 817 OFFCURVE",
"493 833 OFFCURVE",
"466 833 CURVE SMOOTH",
"433 833 OFFCURVE",
"412 809 OFFCURVE",
"412 768 CURVE SMOOTH",
"412 743 OFFCURVE",
"427 728 OFFCURVE",
"454 728 CURVE SMOOTH",
"454 728 LINE"
);
}
);
};
components = (
{
name = A;
},
{
name = dieresiscomb.case;
transform = "{1, 0, 0, 1, 152, 0}";
}
);
layerId = "CF479DE4-94A2-4865-8D1E-65EA355866D4";
width = 578;
},
{
background = {
paths = (
{
closed = 1;
nodes = (
"384 52 OFFCURVE",
"359 44 OFFCURVE",
"330 40 CURVE",
"324 0 LINE",
"600 0 LINE",
"604 40 LINE",
"581 44 OFFCURVE",
"559 53 OFFCURVE",
"550 74 CURVE",
"429 667 LINE",
"325 667 LINE",
"16 65 LINE",
"1 48 OFFCURVE",
"-24 42 OFFCURVE",
"-50 40 CURVE",
"-55 0 LINE",
"171 0 LINE",
"176 40 LINE",
"143 44 OFFCURVE",
"113 54 OFFCURVE",
"96 70 CURVE",
"166 208 LINE",
"372 208 LINE",
"396 65 LINE"
);
},
{
closed = 1;
nodes = (
"361 271 LINE",
"198 271 LINE",
"321 511 LINE"
);
},
{
closed = 1;
nodes = (
"353 729 OFFCURVE",
"382 759 OFFCURVE",
"382 809 CURVE SMOOTH",
"382 841 OFFCURVE",
"361 862 OFFCURVE",
"326 862 CURVE SMOOTH",
"283 862 OFFCURVE",
"254 833 OFFCURVE",
"254 783 CURVE SMOOTH",
"254 750 OFFCURVE",
"275 729 OFFCURVE",
"310 729 CURVE SMOOTH",
"310 729 LINE"
);
},
{
closed = 1;
nodes = (
"516 729 OFFCURVE",
"545 759 OFFCURVE",
"545 809 CURVE SMOOTH",
"545 841 OFFCURVE",
"524 862 OFFCURVE",
"489 862 CURVE SMOOTH",
"446 862 OFFCURVE",
"417 833 OFFCURVE",
"417 783 CURVE SMOOTH",
"417 750 OFFCURVE",
"438 729 OFFCURVE",
"473 729 CURVE SMOOTH",
"473 729 LINE"
);
}
);
};
components = (
{
name = A;
},
{
name = dieresiscomb.case;
transform = "{1, 0, 0, 1, 162, 0}";
}
);
layerId = "0FAD76F5-9F58-4721-BF81-08BC6166EF10";
width = 614;
}
);
leftKerningGroup = A;
rightKerningGroup = A;
unicode = 00C4;
},
{
color = 4;
glyphname = Amacron;
lastChange = "2019-11-29 22:23:00 +0000";
layers = (
{
background = {
paths = (
{
closed = 1;
nodes = (
"563 0 LINE",
"567 37 LINE",
"544 41 OFFCURVE",
"518 46 OFFCURVE",
"496 62 CURVE",
"394 667 LINE",
"329 667 LINE",
"57 60 LINE",
"35 45 OFFCURVE",
"10 41 OFFCURVE",
"-16 37 CURVE",
"-21 0 LINE",
"214 0 LINE",
"219 37 LINE",
"187 41 OFFCURVE",
"152 47 OFFCURVE",
"124 62 CURVE",
"190 215 LINE",
"376 215 LINE",
"399 63 LINE",
"394 63 LINE",
"366 46 OFFCURVE",
"336 41 OFFCURVE",
"304 37 CURVE",
"298 0 LINE"
);
},
{
closed = 1;
nodes = (
"368 267 LINE",
"212 267 LINE",
"328 534 LINE"
);
},
{
closed = 1;
nodes = (
"509 740 LINE",
"516 784 LINE",
"239 784 LINE",
"232 740 LINE"
);
}
);
};
components = (
{
name = A;
},
{
name = macroncomb.case;
transform = "{1, 0, 0, 1, 145, 0}";
}
);
layerId = "CF479DE4-94A2-4865-8D1E-65EA355866D4";
width = 578;
},
{
components = (
{
name = A;
},
{
name = macroncomb.case;
transform = "{1, 0, 0, 1, 154, 0}";
}
);
layerId = "0FAD76F5-9F58-4721-BF81-08BC6166EF10";
width = 614;
}
);
leftKerningGroup = A;
rightKerningGroup = A;
unicode = 0100;
},
{
color = 4;
glyphname = Aogonek;
lastChange = "2019-11-29 23:26:48 +0000";
layers = (
{
anchors = (
{
name = top;
position = "{352, 667}";
}
);
background = {
paths = (
{
closed = 1;
nodes = (
"904 0 LINE",
"909 37 LINE",
"877 41 OFFCURVE",
"842 47 OFFCURVE",
"814 62 CURVE",
"880 215 LINE",
"1066 215 LINE",
"1089 63 LINE",
"1068 52 OFFCURVE",
"1038 42 OFFCURVE",
"994 37 CURVE",
"988 0 LINE",
"1253 0 LINE",
"1257 37 LINE",
"1234 41 OFFCURVE",
"1208 46 OFFCURVE",
"1186 62 CURVE",
"1084 667 LINE",
"1019 667 LINE",
"747 60 LINE",
"725 45 OFFCURVE",
"700 41 OFFCURVE",
"674 37 CURVE",
"669 0 LINE"
);
},
{
closed = 1;
nodes = (
"1018 534 LINE",
"1058 267 LINE",
"902 267 LINE"
);
},
{
closed = 1;
nodes = (
"747 60 LINE",
"725 45 OFFCURVE",
"700 41 OFFCURVE",
"674 37 CURVE",
"669 0 LINE",
"904 0 LINE",
"909 37 LINE",
"877 41 OFFCURVE",
"842 47 OFFCURVE",
"814 62 CURVE",
"880 215 LINE",
"1066 215 LINE",
"1066 215 OFFCURVE",
"1088 107 OFFCURVE",
"1088 55 CURVE SMOOTH",
"1088 -27 OFFCURVE",
"984 -64 OFFCURVE",
"984 -146 CURVE SMOOTH",
"984 -186 OFFCURVE",
"1005 -204 OFFCURVE",
"1042 -204 CURVE SMOOTH",
"1081 -204 OFFCURVE",
"1118 -186 OFFCURVE",
"1146 -165 CURVE",
"1129 -137 LINE",
"1110 -147 OFFCURVE",
"1084 -154 OFFCURVE",
"1071 -154 CURVE SMOOTH",
"1054 -154 OFFCURVE",
"1045 -143 OFFCURVE",
"1045 -126 CURVE SMOOTH",
"1045 -68 OFFCURVE",
"1118 0 OFFCURVE",
"1165 0 CURVE SMOOTH",
"1253 0 LINE",
"1257 37 LINE",
"1234 41 OFFCURVE",
"1208 46 OFFCURVE",
"1186 62 CURVE",
"1084 667 LINE",
"1019 667 LINE"
);
},
{
closed = 1;
nodes = (
"1058 267 LINE",
"902 267 LINE",
"1018 534 LINE"
);
},
{
closed = 1;
nodes = (
"381 -204 OFFCURVE",
"418 -186 OFFCURVE",
"446 -165 CURVE",
"429 -135 LINE",
"410 -145 OFFCURVE",
"390 -154 OFFCURVE",
"374 -154 CURVE SMOOTH",
"357 -154 OFFCURVE",
"345 -144 OFFCURVE",
"345 -126 CURVE SMOOTH",
"345 -68 OFFCURVE",
"418 0 OFFCURVE",
"465 0 CURVE SMOOTH",
"553 0 LINE",
"557 37 LINE",
"534 41 OFFCURVE",
"508 46 OFFCURVE",
"486 62 CURVE",
"384 667 LINE",
"319 667 LINE",
"47 60 LINE",
"25 45 OFFCURVE",
"0 41 OFFCURVE",
"-26 37 CURVE",
"-31 0 LINE",
"204 0 LINE",
"209 37 LINE",
"177 41 OFFCURVE",
"142 47 OFFCURVE",
"114 62 CURVE",
"180 215 LINE",
"366 215 LINE",
"382 114 OFFCURVE",
"388 79 OFFCURVE",
"388 55 CURVE SMOOTH",
"388 -29 OFFCURVE",
"282 -63 OFFCURVE",
"282 -145 CURVE SMOOTH",
"282 -183 OFFCURVE",
"308 -204 OFFCURVE",
"344 -204 CURVE SMOOTH"
);
},
{
closed = 1;
nodes = (
"318 534 LINE",
"358 267 LINE",
"202 267 LINE"
);
},
{
closed = 1;
nodes = (
"204 0 LINE",
"209 37 LINE",
"177 41 OFFCURVE",
"142 47 OFFCURVE",
"114 62 CURVE",
"180 215 LINE",
"366 215 LINE",
"389 63 LINE",
"368 52 OFFCURVE",
"338 42 OFFCURVE",
"294 37 CURVE",
"288 0 LINE",
"553 0 LINE",
"557 37 LINE",
"534 41 OFFCURVE",
"508 46 OFFCURVE",
"486 62 CURVE",
"384 667 LINE",
"319 667 LINE",
"47 60 LINE",
"25 45 OFFCURVE",
"0 41 OFFCURVE",
"-26 37 CURVE",
"-31 0 LINE"
);
},
{
closed = 1;
nodes = (
"318 534 LINE",
"358 267 LINE",
"202 267 LINE"
);
},
{
closed = 1;
nodes = (
"369 -8 OFFCURVE",
"352 -28 OFFCURVE",
"332 -49 CURVE SMOOTH",
"313 -70 OFFCURVE",
"284 -102 OFFCURVE",
"284 -142 CURVE SMOOTH",
"284 -180 OFFCURVE",
"314 -204 OFFCURVE",
"354 -204 CURVE SMOOTH",
"382 -204 OFFCURVE",
"417 -190 OFFCURVE",
"443 -166 CURVE",
"428 -136 LINE",
"410 -147 OFFCURVE",
"395 -155 OFFCURVE",
"378 -155 CURVE SMOOTH",
"359 -155 OFFCURVE",
"346 -143 OFFCURVE",
"346 -120 CURVE SMOOTH",
"346 -98 OFFCURVE",
"361 -72 OFFCURVE",
"380 -51 CURVE SMOOTH",
"399 -30 OFFCURVE",
"434 -2 OFFCURVE",
"460 0 CURVE",
"429 25 LINE",
"382 16 LINE"
);
}
);
};
layerId = "CF479DE4-94A2-4865-8D1E-65EA355866D4";
paths = (
{
closed = 1;
nodes = (
"557 37 LINE",
"534 41 OFFCURVE",
"508 46 OFFCURVE",
"486 62 CURVE",
"384 667 LINE",
"319 667 LINE",
"47 60 LINE",
"25 45 OFFCURVE",
"0 41 OFFCURVE",
"-26 37 CURVE",
"-31 0 LINE",
"204 0 LINE",
"209 37 LINE",
"177 41 OFFCURVE",
"142 47 OFFCURVE",
"114 62 CURVE",
"180 215 LINE",
"366 215 LINE",
"386 79 LINE SMOOTH",
"393 29 OFFCURVE",
"380 2 OFFCURVE",
"340 -40 CURVE SMOOTH",
"313 -70 OFFCURVE",
"284 -102 OFFCURVE",
"284 -142 CURVE SMOOTH",
"284 -180 OFFCURVE",
"314 -204 OFFCURVE",
"354 -204 CURVE SMOOTH",
"382 -204 OFFCURVE",
"417 -190 OFFCURVE",
"443 -166 CURVE",
"428 -136 LINE",
"410 -147 OFFCURVE",
"395 -155 OFFCURVE",
"378 -155 CURVE SMOOTH",
"359 -155 OFFCURVE",
"346 -143 OFFCURVE",
"346 -120 CURVE SMOOTH",
"346 -98 OFFCURVE",
"361 -72 OFFCURVE",
"381 -50 CURVE SMOOTH",
"400 -29 OFFCURVE",
"432 0 OFFCURVE",
"477 0 CURVE SMOOTH",
"553 0 LINE"
);
},
{
closed = 1;
nodes = (
"318 534 LINE",
"358 267 LINE",
"202 267 LINE"
);
}
);
width = 578;
},
{
anchors = (
{
name = top;
position = "{377, 667}";
}
);
background = {
paths = (
{
closed = 1;
nodes = (
"1197 -36 OFFCURVE",
"1089 -58 OFFCURVE",
"1089 -132 CURVE SMOOTH",
"1089 -178 OFFCURVE",
"1126 -204 OFFCURVE",
"1171 -204 CURVE SMOOTH",
"1210 -204 OFFCURVE",
"1252 -188 OFFCURVE",
"1283 -157 CURVE",
"1263 -122 LINE",
"1249 -132 OFFCURVE",
"1226 -144 OFFCURVE",
"1209 -144 CURVE SMOOTH",
"1196 -144 OFFCURVE",
"1186 -136 OFFCURVE",
"1186 -115 CURVE SMOOTH",
"1186 -76 OFFCURVE",
"1223 -3 OFFCURVE",
"1328 0 CURVE",
"1400 0 LINE",
"1404 40 LINE",
"1381 44 OFFCURVE",
"1359 53 OFFCURVE",
"1350 74 CURVE",
"1229 667 LINE",
"1125 667 LINE",
"816 65 LINE",
"801 48 OFFCURVE",
"776 42 OFFCURVE",
"750 40 CURVE",
"745 0 LINE",
"971 0 LINE",
"976 40 LINE",
"943 44 OFFCURVE",
"913 54 OFFCURVE",
"896 70 CURVE",
"966 208 LINE",
"1172 208 LINE",
"1186 127 LINE",
"1186 127 OFFCURVE",
"1197 61 OFFCURVE",
"1197 51 CURVE SMOOTH",
"1197 51 LINE"
);
},
{
closed = 1;
nodes = (
"1161 271 LINE",
"998 271 LINE",
"1121 511 LINE"
);
},
{
closed = 1;
nodes = (
"410 -204 OFFCURVE",
"452 -188 OFFCURVE",
"483 -157 CURVE",
"463 -122 LINE",
"449 -132 OFFCURVE",
"427 -144 OFFCURVE",
"412 -144 CURVE SMOOTH",
"397 -144 OFFCURVE",
"386 -134 OFFCURVE",
"386 -112 CURVE SMOOTH",
"386 -72 OFFCURVE",
"427 -3 OFFCURVE",
"528 0 CURVE SMOOTH",
"600 0 LINE",
"604 40 LINE",
"581 44 OFFCURVE",
"559 53 OFFCURVE",
"550 74 CURVE",
"429 667 LINE",
"325 667 LINE",
"16 65 LINE",
"1 48 OFFCURVE",
"-24 42 OFFCURVE",
"-50 40 CURVE",
"-55 0 LINE",
"171 0 LINE",
"176 40 LINE",
"143 44 OFFCURVE",
"113 54 OFFCURVE",
"96 70 CURVE",
"166 208 LINE",
"372 208 LINE",
"388 113 OFFCURVE",
"397 70 OFFCURVE",
"397 51 CURVE SMOOTH",
"397 -36 OFFCURVE",
"289 -58 OFFCURVE",
"289 -132 CURVE SMOOTH",
"289 -178 OFFCURVE",
"326 -204 OFFCURVE",
"371 -204 CURVE SMOOTH"
);
},
{
closed = 1;
nodes = (
"321 511 LINE",
"361 271 LINE",
"198 271 LINE"
);
},
{
closed = 1;
nodes = (
"171 0 LINE",
"176 40 LINE",
"143 44 OFFCURVE",
"113 54 OFFCURVE",
"96 70 CURVE",
"166 208 LINE",
"372 208 LINE",
"396 65 LINE",
"384 52 OFFCURVE",
"359 44 OFFCURVE",
"330 40 CURVE",
"324 0 LINE",
"600 0 LINE",
"604 40 LINE",
"581 44 OFFCURVE",
"559 53 OFFCURVE",
"550 74 CURVE",
"429 667 LINE",
"325 667 LINE",
"16 65 LINE",
"1 48 OFFCURVE",
"-24 42 OFFCURVE",
"-50 40 CURVE",
"-55 0 LINE"
);
},
{
closed = 1;
nodes = (
"321 511 LINE",
"361 271 LINE",
"198 271 LINE"
);
},
{
closed = 1;
nodes = (
"389 1 OFFCURVE",
"366 -23 OFFCURVE",
"342 -47 CURVE SMOOTH",
"313 -75 OFFCURVE",
"293 -101 OFFCURVE",
"293 -135 CURVE SMOOTH",
"293 -177 OFFCURVE",
"326 -204 OFFCURVE",
"372 -204 CURVE SMOOTH",
"407 -204 OFFCURVE",
"456 -187 OFFCURVE",
"485 -156 CURVE",
"462 -121 LINE",
"448 -133 OFFCURVE",
"429 -145 OFFCURVE",
"411 -145 CURVE SMOOTH",
"394 -145 OFFCURVE",
"382 -134 OFFCURVE",
"382 -112 CURVE SMOOTH",
"382 -66 OFFCURVE",
"441 0 OFFCURVE",
"504 0 CURVE",
"480 24 LINE",
"396 24 LINE"
);
}
);
};
layerId = "0FAD76F5-9F58-4721-BF81-08BC6166EF10";
paths = (
{
closed = 1;
nodes = (
"604 40 LINE",
"581 44 OFFCURVE",
"559 53 OFFCURVE",
"550 74 CURVE",
"429 667 LINE",
"325 667 LINE",
"16 65 LINE",
"1 48 OFFCURVE",
"-24 42 OFFCURVE",
"-50 40 CURVE",
"-55 0 LINE",
"171 0 LINE",
"176 40 LINE",
"143 44 OFFCURVE",
"113 54 OFFCURVE",
"96 70 CURVE",
"166 208 LINE",
"372 208 LINE",
"394 78 LINE SMOOTH",
"403 24 OFFCURVE",
"385 -7 OFFCURVE",
"345 -44 CURVE SMOOTH",
"312 -74 OFFCURVE",
"293 -101 OFFCURVE",
"293 -135 CURVE SMOOTH",
"293 -177 OFFCURVE",
"326 -204 OFFCURVE",
"372 -204 CURVE SMOOTH",
"407 -204 OFFCURVE",
"456 -187 OFFCURVE",
"485 -156 CURVE",
"462 -121 LINE",
"448 -133 OFFCURVE",
"429 -145 OFFCURVE",
"411 -145 CURVE SMOOTH",
"394 -145 OFFCURVE",
"382 -134 OFFCURVE",
"382 -112 CURVE SMOOTH",
"382 -87 OFFCURVE",
"399 -56 OFFCURVE",
"426 -33 CURVE SMOOTH",
"448 -14 OFFCURVE",
"480 0 OFFCURVE",
"514 0 CURVE SMOOTH",
"600 0 LINE"
);
},
{
closed = 1;
nodes = (
"321 511 LINE",
"361 271 LINE",
"198 271 LINE"
);
}
);
width = 614;
}
);
leftKerningGroup = A;
rightKerningGroup = A;
unicode = 0104;
},
{
color = 4;
glyphname = Aring;
lastChange = "2019-11-29 22:23:00 +0000";
layers = (
{
background = {
paths = (
{
closed = 1;
nodes = (
"563 0 LINE",
"567 37 LINE",
"544 41 OFFCURVE",
"518 46 OFFCURVE",
"496 62 CURVE",
"394 667 LINE",
"329 667 LINE",
"57 60 LINE",
"35 45 OFFCURVE",
"10 41 OFFCURVE",
"-16 37 CURVE",
"-21 0 LINE",
"214 0 LINE",
"219 37 LINE",
"187 41 OFFCURVE",
"152 47 OFFCURVE",
"124 62 CURVE",
"190 215 LINE",
"376 215 LINE",
"399 63 LINE",
"394 63 LINE",
"366 46 OFFCURVE",
"336 41 OFFCURVE",
"304 37 CURVE",
"298 0 LINE"
);
},
{
closed = 1;
nodes = (
"368 267 LINE",
"212 267 LINE",
"328 534 LINE"
);
},
{
closed = 1;
nodes = (
"420 695 OFFCURVE",
"463 738 OFFCURVE",
"463 792 CURVE SMOOTH",
"463 832 OFFCURVE",
"435 860 OFFCURVE",
"390 860 CURVE SMOOTH",
"334 860 OFFCURVE",
"290 818 OFFCURVE",
"290 763 CURVE SMOOTH",
"290 723 OFFCURVE",
"316 695 OFFCURVE",
"363 695 CURVE SMOOTH",
"363 695 LINE"
);
},
{
closed = 1;
nodes = (
"347 734 OFFCURVE",
"332 751 OFFCURVE",
"332 771 CURVE SMOOTH",
"332 797 OFFCURVE",
"358 822 OFFCURVE",
"384 822 CURVE SMOOTH",
"406 822 OFFCURVE",
"421 805 OFFCURVE",
"421 784 CURVE SMOOTH",
"421 758 OFFCURVE",
"397 734 OFFCURVE",
"370 734 CURVE SMOOTH",
"370 734 LINE"
);
}
);
};
components = (
{
name = A;
},
{
name = ringcomb.case;
transform = "{1, 0, 0, 1, 196, 0}";
}
);
layerId = "CF479DE4-94A2-4865-8D1E-65EA355866D4";
width = 578;
},
{
components = (
{
name = A;
},
{
name = ringcomb.case;
transform = "{1, 0, 0, 1, 197, 0}";
}
);
layerId = "0FAD76F5-9F58-4721-BF81-08BC6166EF10";
width = 614;
}
);
leftKerningGroup = A;
rightKerningGroup = A;
unicode = 00C5;
},
{
color = 4;
glyphname = Aringacute;
lastChange = "2019-11-29 22:23:00 +0000";
layers = (
{
background = {
paths = (
{
closed = 1;
nodes = (
"444 862 LINE SMOOTH",
"466 873 OFFCURVE",
"485 882 OFFCURVE",
"485 902 CURVE SMOOTH",
"485 919 OFFCURVE",
"474 932 OFFCURVE",
"454 932 CURVE SMOOTH",
"443 932 OFFCURVE",
"432 927 OFFCURVE",
"414 913 CURVE SMOOTH",
"307 826 LINE",
"325 801 LINE"
);
},
{
closed = 1;
nodes = (
"417 651 OFFCURVE",
"460 693 OFFCURVE",
"460 746 CURVE SMOOTH",
"460 785 OFFCURVE",
"432 812 OFFCURVE",
"387 812 CURVE SMOOTH",
"332 812 OFFCURVE",
"288 771 OFFCURVE",
"288 717 CURVE SMOOTH",
"288 678 OFFCURVE",
"314 651 OFFCURVE",
"361 651 CURVE SMOOTH",
"361 651 LINE"
);
},
{
closed = 1;
nodes = (
"345 690 OFFCURVE",
"330 706 OFFCURVE",
"330 725 CURVE SMOOTH",
"330 750 OFFCURVE",
"356 774 OFFCURVE",
"381 774 CURVE SMOOTH",
"403 774 OFFCURVE",
"418 758 OFFCURVE",
"418 738 CURVE SMOOTH",
"418 713 OFFCURVE",
"394 690 OFFCURVE",
"368 690 CURVE SMOOTH",
"368 690 LINE"
);
},
{
closed = 1;
nodes = (
"563 0 LINE",
"567 37 LINE",
"544 41 OFFCURVE",
"518 46 OFFCURVE",
"496 62 CURVE",
"394 667 LINE",
"329 667 LINE",
"57 60 LINE",
"35 45 OFFCURVE",
"10 41 OFFCURVE",
"-16 37 CURVE",
"-21 0 LINE",
"214 0 LINE",
"219 37 LINE",
"187 41 OFFCURVE",
"152 47 OFFCURVE",
"124 62 CURVE",
"190 215 LINE",
"376 215 LINE",
"399 63 LINE",
"394 63 LINE",
"366 46 OFFCURVE",
"336 41 OFFCURVE",
"304 37 CURVE",
"298 0 LINE"
);
},
{
closed = 1;
nodes = (
"368 267 LINE",
"212 267 LINE",
"328 534 LINE"
);
}
);
};
components = (
{
name = A;
},
{
alignment = -1;
name = ringcomb.case;
transform = "{1, 0, 0, 1, 206, -51}";
},
{
alignment = -1;
name = acutecomb.case;
transform = "{0.95584, -0.16854, 0.16854, 0.95584, 113, 152}";
}
);
layerId = "CF479DE4-94A2-4865-8D1E-65EA355866D4";
width = 578;
},
{
background = {
paths = (
{
closed = 1;
nodes = (
"265 665 OFFCURVE",
"277 640 OFFCURVE",
"300 625 CURVE",
"13 65 LINE",
"-2 48 OFFCURVE",
"-27 42 OFFCURVE",
"-53 40 CURVE",
"-58 0 LINE",
"168 0 LINE",
"173 40 LINE",
"140 44 OFFCURVE",
"110 54 OFFCURVE",
"93 70 CURVE",
"163 208 LINE",
"369 208 LINE",
"393 65 LINE",
"381 52 OFFCURVE",
"356 44 OFFCURVE",
"327 40 CURVE",
"321 0 LINE",
"597 0 LINE",
"601 40 LINE",
"578 44 OFFCURVE",
"556 53 OFFCURVE",
"547 74 CURVE",
"434 626 LINE",
"470 646 OFFCURVE",
"492 680 OFFCURVE",
"492 718 CURVE SMOOTH",
"492 766 OFFCURVE",
"456 804 OFFCURVE",
"394 804 CURVE SMOOTH",
"318 804 OFFCURVE",
"265 753 OFFCURVE",
"265 693 CURVE SMOOTH",
"265 693 LINE"
);
},
{
closed = 1;
nodes = (
"358 271 LINE",
"195 271 LINE",
"318 511 LINE"
);
},
{
closed = 1;
nodes = (
"492 868 OFFCURVE",
"513 885 OFFCURVE",
"513 913 CURVE SMOOTH",
"513 931 OFFCURVE",
"502 945 OFFCURVE",
"478 945 CURVE SMOOTH",
"462 945 OFFCURVE",
"445 940 OFFCURVE",
"427 925 CURVE SMOOTH",
"299 825 LINE",
"316 795 LINE",
"451 851 LINE"
);
},
{
closed = 1;
nodes = (
"337 725 OFFCURVE",
"351 757 OFFCURVE",
"386 757 CURVE SMOOTH",
"410 757 OFFCURVE",
"420 739 OFFCURVE",
"420 717 CURVE SMOOTH",
"420 686 OFFCURVE",
"405 656 OFFCURVE",
"370 656 CURVE SMOOTH",
"346 656 OFFCURVE",
"337 673 OFFCURVE",
"337 695 CURVE SMOOTH",
"337 695 LINE"
);
}
);
};
components = (
{
name = A;
},
{
alignment = -1;
name = ringcomb.case;
transform = "{1, 0, 0, 1, 188, -87}";
},
{
name = acutecomb.case;
transform = "{0.97815, -0.20791, 0.20791, 0.97815, 69, 137}";
}
);
layerId = "0FAD76F5-9F58-4721-BF81-08BC6166EF10";
width = 614;
}
);
leftKerningGroup = A;
rightKerningGroup = A;
unicode = 01FA;
},
{
color = 4;
glyphname = Atilde;
lastChange = "2019-11-29 22:23:00 +0000";
layers = (
{
background = {
paths = (
{
closed = 1;
nodes = (
"563 0 LINE",
"567 37 LINE",
"544 41 OFFCURVE",
"518 46 OFFCURVE",
"496 62 CURVE",
"394 667 LINE",
"329 667 LINE",
"57 60 LINE",
"35 45 OFFCURVE",
"10 41 OFFCURVE",
"-16 37 CURVE",
"-21 0 LINE",
"214 0 LINE",
"219 37 LINE",
"187 41 OFFCURVE",
"152 47 OFFCURVE",
"124 62 CURVE",
"190 215 LINE",
"376 215 LINE",
"399 63 LINE",
"394 63 LINE",
"366 46 OFFCURVE",
"336 41 OFFCURVE",
"304 37 CURVE",
"298 0 LINE"
);
},
{
closed = 1;
nodes = (
"368 267 LINE",
"212 267 LINE",
"328 534 LINE"
);
},
{
closed = 1;
nodes = (
"274 741 OFFCURVE",
"296 759 OFFCURVE",
"321 759 CURVE SMOOTH",
"360 759 OFFCURVE",
"382 723 OFFCURVE",
"428 723 CURVE SMOOTH",
"476 723 OFFCURVE",
"520 777 OFFCURVE",
"536 803 CURVE",
"528 811 OFFCURVE",
"520 818 OFFCURVE",
"506 823 CURVE",
"485 804 OFFCURVE",
"463 784 OFFCURVE",
"436 784 CURVE SMOOTH",
"399 784 OFFCURVE",
"375 820 OFFCURVE",
"333 820 CURVE SMOOTH",
"281 820 OFFCURVE",
"239 768 OFFCURVE",
"224 742 CURVE",
"231 734 OFFCURVE",
"239 726 OFFCURVE",
"253 722 CURVE",
"253 722 LINE"
);
}
);
};
components = (
{
name = A;
},
{
name = tildecomb.case;
transform = "{1, 0, 0, 1, 133, 0}";
}
);
layerId = "CF479DE4-94A2-4865-8D1E-65EA355866D4";
width = 578;
},
{
background = {
paths = (
{
closed = 1;
nodes = (
"384 52 OFFCURVE",
"359 44 OFFCURVE",
"330 40 CURVE",
"324 0 LINE",
"600 0 LINE",
"604 40 LINE",
"581 44 OFFCURVE",
"559 53 OFFCURVE",
"550 74 CURVE",
"429 667 LINE",
"325 667 LINE",
"16 65 LINE",
"1 48 OFFCURVE",
"-24 42 OFFCURVE",
"-50 40 CURVE",
"-55 0 LINE",
"171 0 LINE",
"176 40 LINE",
"143 44 OFFCURVE",
"113 54 OFFCURVE",
"96 70 CURVE",
"166 208 LINE",
"372 208 LINE",
"396 65 LINE"
);
},
{
closed = 1;
nodes = (
"361 271 LINE",
"198 271 LINE",
"321 511 LINE"
);
},
{
closed = 1;
nodes = (
"417 813 OFFCURVE",
"382 853 OFFCURVE",
"342 853 CURVE SMOOTH",
"296 853 OFFCURVE",
"252 815 OFFCURVE",
"217 759 CURVE",
"228 744 OFFCURVE",
"251 732 OFFCURVE",
"265 727 CURVE",
"286 751 OFFCURVE",
"309 765 OFFCURVE",
"329 765 CURVE SMOOTH",
"369 765 OFFCURVE",
"405 726 OFFCURVE",
"445 726 CURVE SMOOTH",
"491 726 OFFCURVE",
"535 765 OFFCURVE",
"569 821 CURVE",
"558 835 OFFCURVE",
"535 847 OFFCURVE",
"521 852 CURVE",
"501 829 OFFCURVE",
"477 813 OFFCURVE",
"457 813 CURVE SMOOTH",
"457 813 LINE"
);
}
);
};
components = (
{
name = A;
},
{
name = tildecomb.case;
transform = "{1, 0, 0, 1, 141, 0}";
}
);
layerId = "0FAD76F5-9F58-4721-BF81-08BC6166EF10";
width = 614;
}
);
leftKerningGroup = A;
rightKerningGroup = A;
unicode = 00C3;
},
{
color = 4;
glyphname = AE;
lastChange = "2019-11-27 00:10:41 +0000";
layers = (
{
anchors = (
{
name = bottom;
position = "{508, 0}";
},
{
name = top;
position = "{569, 695}";
}
);
background = {
anchors = (
{
name = bottom;
position = "{508, 0}";
},
{
name = top;
position = "{569, 695}";
}
);
paths = (
{
closed = 1;
nodes = (
"728 0 LINE",
"764 169 LINE",
"756 170 OFFCURVE",
"749 171 OFFCURVE",
"743 171 CURVE SMOOTH",
"736 171 OFFCURVE",
"729 170 OFFCURVE",
"723 169 CURVE",
"711 136 OFFCURVE",
"694 92 OFFCURVE",
"663 57 CURVE",
"478 57 LINE",
"522 316 LINE",
"614 313 LINE SMOOTH",
"657 311 OFFCURVE",
"656 262 OFFCURVE",
"660 239 CURVE",
"691 239 LINE",
"722 434 LINE",
"690 434 LINE",
"681 412 OFFCURVE",
"660 369 OFFCURVE",
"625 368 CURVE SMOOTH",
"530 364 LINE",
"573 614 LINE",
"742 614 LINE",
"762 583 OFFCURVE",
"766 544 OFFCURVE",
"767 513 CURVE",
"774 511 OFFCURVE",
"780 510 OFFCURVE",
"786 510 CURVE SMOOTH",
"795 510 OFFCURVE",
"804 512 OFFCURVE",
"811 516 CURVE",
"826 667 LINE",
"477 667 LINE",
"48 67 LINE",
"28 47 OFFCURVE",
"-2 40 OFFCURVE",
"-30 37 CURVE",
"-35 0 LINE",
"195 0 LINE",
"200 37 LINE",
"171 40 OFFCURVE",
"140 45 OFFCURVE",
"113 58 CURVE",
"251 251 LINE",
"427 251 LINE",
"394 63 LINE",
"364 46 OFFCURVE",
"334 41 OFFCURVE",
"302 37 CURVE",
"296 0 LINE"
);
},
{
closed = 1;
nodes = (
"435 298 LINE",
"285 298 LINE",
"484 577 LINE"
);
}
);
};
layerId = "CF479DE4-94A2-4865-8D1E-65EA355866D4";
paths = (
{
closed = 1;
nodes = (
"195 0 LINE",
"200 37 LINE",
"171 40 OFFCURVE",
"140 45 OFFCURVE",
"113 58 CURVE",
"251 251 LINE",
"427 251 LINE",
"394 63 LINE",
"364 46 OFFCURVE",
"334 41 OFFCURVE",
"302 37 CURVE",
"296 0 LINE",
"728 0 LINE",
"764 169 LINE",
"756 170 OFFCURVE",
"749 171 OFFCURVE",
"743 171 CURVE SMOOTH",
"736 171 OFFCURVE",
"729 170 OFFCURVE",
"723 169 CURVE",
"711 136 OFFCURVE",
"694 92 OFFCURVE",
"663 57 CURVE",
"478 57 LINE",
"522 316 LINE",
"614 313 LINE SMOOTH",
"657 311 OFFCURVE",
"656 262 OFFCURVE",
"660 239 CURVE",
"691 239 LINE",
"722 434 LINE",
"690 434 LINE",
"681 412 OFFCURVE",
"660 369 OFFCURVE",
"625 368 CURVE SMOOTH",
"530 364 LINE",
"573 614 LINE",
"742 614 LINE",
"762 583 OFFCURVE",
"766 544 OFFCURVE",
"767 513 CURVE",
"774 511 OFFCURVE",
"780 510 OFFCURVE",
"786 510 CURVE SMOOTH",
"795 510 OFFCURVE",
"804 512 OFFCURVE",
"811 516 CURVE",
"826 667 LINE",
"477 667 LINE",
"48 67 LINE",
"28 47 OFFCURVE",
"-2 40 OFFCURVE",
"-30 37 CURVE",
"-35 0 LINE"
);
},
{
closed = 1;
nodes = (
"484 577 LINE",
"435 298 LINE",
"285 298 LINE"
);
}
);
width = 834;
},
{
anchors = (
{
name = bottom;
position = "{460, 0}";
},
{
name = top;
position = "{629, 667}";
}
);
layerId = "0FAD76F5-9F58-4721-BF81-08BC6166EF10";
paths = (
{
closed = 1;
nodes = (
"184 0 LINE",
"195 40 LINE",
"164 44 OFFCURVE",
"135 52 OFFCURVE",
"118 68 CURVE",
"207 208 LINE",
"389 208 LINE",
"366 66 LINE",
"355 55 OFFCURVE",
"327 44 OFFCURVE",
"305 41 CURVE",
"295 0 LINE",
"759 0 LINE",
"799 189 LINE",
"788 191 OFFCURVE",
"777 192 OFFCURVE",
"766 192 CURVE SMOOTH",
"751 192 OFFCURVE",
"739 191 OFFCURVE",
"725 189 CURVE",
"706 135 OFFCURVE",
"684 93 OFFCURVE",
"658 62 CURVE",
"513 62 LINE",
"553 318 LINE",
"614 310 LINE SMOOTH",
"637 307 OFFCURVE",
"649 290 OFFCURVE",
"659 236 CURVE",
"711 236 LINE",
"744 443 LINE",
"692 443 LINE",
"676 403 OFFCURVE",
"650 378 OFFCURVE",
"626 376 CURVE SMOOTH",
"561 369 LINE",
"599 606 LINE",
"737 606 LINE",
"753 579 OFFCURVE",
"760 550 OFFCURVE",
"763 499 CURVE",
"776 496 OFFCURVE",
"788 495 OFFCURVE",
"798 495 CURVE SMOOTH",
"813 495 OFFCURVE",
"825 497 OFFCURVE",
"838 502 CURVE",
"860 667 LINE",
"418 667 LINE",
"32 71 LINE",
"20 50 OFFCURVE",
"-8 41 OFFCURVE",
"-37 40 CURVE",
"-49 0 LINE"
);
},
{
closed = 1;
nodes = (
"453 596 LINE",
"399 271 LINE",
"247 271 LINE"
);
}
);
width = 844;
}
);
leftKerningGroup = AE;
rightKerningGroup = E;
unicode = 00C6;
},
{
glyphname = B;
lastChange = "2019-11-22 01:10:48 +0000";
layers = (
{
anchors = (
{
name = bottom;
position = "{261.017, 0}";
},
{
name = top;
position = "{366.66, 667}";
}
);
background = {
anchors = (
{
name = top;
position = "{379, 705}";
}
);
paths = (
{
closed = 1;
nodes = (
"131 630 LINE",
"163 626 OFFCURVE",
"192 619 OFFCURVE",
"217 604 CURVE",
"131 63 LINE",
"108 49 OFFCURVE",
"82 42 OFFCURVE",
"41 37 CURVE",
"35 0 LINE",
"278 0 LINE SMOOTH",
"462 0 OFFCURVE",
"541 102 OFFCURVE",
"541 214 CURVE SMOOTH",
"541 281 OFFCURVE",
"498 329 OFFCURVE",
"425 352 CURVE",
"521 375 OFFCURVE",
"575 435 OFFCURVE",
"575 531 CURVE SMOOTH",
"575 618 OFFCURVE",
"509 667 OFFCURVE",
"373 667 CURVE SMOOTH",
"136 667 LINE"
);
},
{
closed = 1;
nodes = (
"405 327 OFFCURVE",
"451 284 OFFCURVE",
"451 214 CURVE SMOOTH",
"451 109 OFFCURVE",
"387 49 OFFCURVE",
"291 49 CURVE SMOOTH",
"238 49 OFFCURVE",
"222 59 OFFCURVE",
"222 81 CURVE SMOOTH",
"222 84 OFFCURVE",
"222 87 OFFCURVE",
"223 90 CURVE SMOOTH",
"261 327 LINE",
"309 327 LINE"
);
},
{
closed = 1;
nodes = (
"448 620 OFFCURVE",
"487 592 OFFCURVE",
"487 530 CURVE SMOOTH",
"487 426 OFFCURVE",
"430 376 OFFCURVE",
"327 376 CURVE SMOOTH",
"268 376 LINE",
"300 578 LINE SMOOTH",
"306 615 OFFCURVE",
"316 619 OFFCURVE",
"364 620 CURVE",
"364 620 LINE"
);
},
{
closed = 1;
nodes = (
"278 0 LINE SMOOTH",
"462 0 OFFCURVE",
"541 102 OFFCURVE",
"541 214 CURVE SMOOTH",
"541 281 OFFCURVE",
"498 329 OFFCURVE",
"425 352 CURVE",
"521 375 OFFCURVE",
"575 435 OFFCURVE",
"575 531 CURVE SMOOTH",
"575 618 OFFCURVE",
"509 667 OFFCURVE",
"373 667 CURVE SMOOTH",
"136 667 LINE",
"131 630 LINE",
"163 626 OFFCURVE",
"192 619 OFFCURVE",
"217 604 CURVE",
"131 63 LINE",
"108 49 OFFCURVE",
"82 42 OFFCURVE",
"41 37 CURVE",
"35 0 LINE"
);
},
{
closed = 1;
nodes = (
"238 49 OFFCURVE",
"222 59 OFFCURVE",
"222 81 CURVE SMOOTH",
"222 86 OFFCURVE",
"224 97 OFFCURVE",
"225 106 CURVE SMOOTH",
"261 327 LINE",
"309 327 LINE SMOOTH",
"405 327 OFFCURVE",
"451 284 OFFCURVE",
"451 214 CURVE SMOOTH",
"451 109 OFFCURVE",
"387 49 OFFCURVE",
"291 49 CURVE SMOOTH"
);
},
{
closed = 1;
nodes = (
"300 578 LINE SMOOTH",
"306 615 OFFCURVE",
"316 619 OFFCURVE",
"364 620 CURVE SMOOTH",
"448 620 OFFCURVE",
"487 592 OFFCURVE",
"487 530 CURVE SMOOTH",
"487 426 OFFCURVE",
"430 376 OFFCURVE",
"327 376 CURVE SMOOTH",
"268 376 LINE"
);
}
);
};
layerId = "CF479DE4-94A2-4865-8D1E-65EA355866D4";
paths = (
{
closed = 1;
nodes = (
"278 0 LINE SMOOTH",
"462 0 OFFCURVE",
"541 102 OFFCURVE",
"541 214 CURVE SMOOTH",
"541 281 OFFCURVE",
"498 329 OFFCURVE",
"425 352 CURVE",
"521 375 OFFCURVE",
"575 435 OFFCURVE",
"575 531 CURVE SMOOTH",
"575 618 OFFCURVE",
"509 667 OFFCURVE",
"373 667 CURVE SMOOTH",
"136 667 LINE",
"131 630 LINE",
"163 626 OFFCURVE",
"192 619 OFFCURVE",
"217 604 CURVE",
"131 63 LINE",
"108 49 OFFCURVE",
"82 42 OFFCURVE",
"41 37 CURVE",
"35 0 LINE"
);
},
{
closed = 1;
nodes = (
"238 49 OFFCURVE",
"222 59 OFFCURVE",
"222 81 CURVE SMOOTH",
"222 86 OFFCURVE",
"224 97 OFFCURVE",
"225 106 CURVE SMOOTH",
"261 327 LINE",
"309 327 LINE SMOOTH",
"405 327 OFFCURVE",
"451 284 OFFCURVE",
"451 214 CURVE SMOOTH",
"451 109 OFFCURVE",
"387 49 OFFCURVE",
"291 49 CURVE SMOOTH"
);
},
{
closed = 1;
nodes = (
"300 578 LINE SMOOTH",
"306 615 OFFCURVE",
"316 619 OFFCURVE",
"364 620 CURVE SMOOTH",
"448 620 OFFCURVE",
"487 592 OFFCURVE",
"487 530 CURVE SMOOTH",
"487 426 OFFCURVE",
"430 376 OFFCURVE",
"327 376 CURVE SMOOTH",
"268 376 LINE"
);
}
);
width = 596;
},
{
anchors = (
{
name = bottom;
position = "{274.671, 0}";
},
{
name = top;
position = "{380.313, 667}";
}
);
background = {
paths = (
{
closed = 1;
nodes = (
"283 0 LINE SMOOTH",
"477 0 OFFCURVE",
"595 92 OFFCURVE",
"595 221 CURVE SMOOTH",
"595 290 OFFCURVE",
"553 334 OFFCURVE",
"475 359 CURVE",
"571 383 OFFCURVE",
"615 442 OFFCURVE",
"615 526 CURVE SMOOTH",
"615 619 OFFCURVE",
"540 667 OFFCURVE",
"380 667 CURVE SMOOTH",
"100 667 LINE",
"94 626 LINE",
"122 622 OFFCURVE",
"149 610 OFFCURVE",
"160 596 CURVE",
"77 71 LINE",
"56 55 OFFCURVE",
"38 46 OFFCURVE",
"5 41 CURVE",
"0 0 LINE"
);
},
{
closed = 1;
nodes = (
"240 64 OFFCURVE",
"224 73 OFFCURVE",
"228 96 CURVE SMOOTH",
"263 320 LINE",
"296 320 LINE SMOOTH",
"381 320 OFFCURVE",
"435 293 OFFCURVE",
"435 227 CURVE SMOOTH",
"435 131 OFFCURVE",
"390 65 OFFCURVE",
"278 62 CURVE"
);
},
{
closed = 1;
nodes = (
"304 577 LINE SMOOTH",
"311 600 OFFCURVE",
"322 605 OFFCURVE",
"355 606 CURVE SMOOTH",
"433 603 OFFCURVE",
"466 575 OFFCURVE",
"466 521 CURVE SMOOTH",
"466 426 OFFCURVE",
"404 383 OFFCURVE",
"299 383 CURVE SMOOTH",
"273 383 LINE"
);
}
);
};
layerId = "0FAD76F5-9F58-4721-BF81-08BC6166EF10";
paths = (
{
closed = 1;
nodes = (
"283 0 LINE SMOOTH",
"477 0 OFFCURVE",
"595 92 OFFCURVE",
"595 221 CURVE SMOOTH",
"595 290 OFFCURVE",
"553 334 OFFCURVE",
"475 359 CURVE",
"571 383 OFFCURVE",
"615 442 OFFCURVE",
"615 526 CURVE SMOOTH",
"615 619 OFFCURVE",
"540 667 OFFCURVE",
"380 667 CURVE SMOOTH",
"100 667 LINE",
"94 626 LINE",
"122 622 OFFCURVE",
"149 610 OFFCURVE",
"160 596 CURVE",
"77 71 LINE",
"56 55 OFFCURVE",
"38 46 OFFCURVE",
"5 41 CURVE",
"0 0 LINE"
);
},
{
closed = 1;
nodes = (
"244 64 OFFCURVE",
"228 71 OFFCURVE",
"228 89 CURVE SMOOTH",
"228 95 OFFCURVE",
"229 104 OFFCURVE",
"231 118 CURVE SMOOTH",
"263 320 LINE",
"296 320 LINE SMOOTH",
"381 320 OFFCURVE",
"435 293 OFFCURVE",
"435 227 CURVE SMOOTH",
"435 131 OFFCURVE",
"390 65 OFFCURVE",
"278 62 CURVE"
);
},
{
closed = 1;
nodes = (
"304 577 LINE SMOOTH",
"311 600 OFFCURVE",
"322 605 OFFCURVE",
"355 606 CURVE SMOOTH",
"433 603 OFFCURVE",
"466 575 OFFCURVE",
"466 521 CURVE SMOOTH",
"466 426 OFFCURVE",
"404 383 OFFCURVE",
"299 383 CURVE SMOOTH",
"273 383 LINE"
);
}
);
width = 625;
}
);
unicode = 0042;
},
{
color = 4;
glyphname = C;
lastChange = "2019-11-22 04:16:55 +0000";
layers = (
{
anchors = (
{
name = cedilla;
position = "{257, 0}";
},
{
name = top;
position = "{392, 667}";
}
);
background = {
anchors = (
{
name = cedilla;
position = "{257, 0}";
},
{
name = top;
position = "{397, 705}";
}
);
paths = (
{
closed = 1;
nodes = (
"438 622 OFFCURVE",
"463 592 OFFCURVE",
"463 560 CURVE SMOOTH",
"463 543 OFFCURVE",
"456 525 OFFCURVE",
"443 511 CURVE",
"445 488 OFFCURVE",
"466 472 OFFCURVE",
"493 472 CURVE SMOOTH",
"539 472 OFFCURVE",
"559 520 OFFCURVE",
"559 559 CURVE SMOOTH",
"559 620 OFFCURVE",
"505 675 OFFCURVE",
"395 675 CURVE SMOOTH",
"176 675 OFFCURVE",
"70 479 OFFCURVE",
"70 229 CURVE SMOOTH",
"70 71 OFFCURVE",
"147 -7 OFFCURVE",
"256 -7 CURVE SMOOTH",
"349 -7 OFFCURVE",
"416 28 OFFCURVE",
"504 98 CURVE",
"472 141 LINE",
"403 86 OFFCURVE",
"340 51 OFFCURVE",
"277 51 CURVE SMOOTH",
"212 51 OFFCURVE",
"167 98 OFFCURVE",
"167 213 CURVE SMOOTH",
"167 422 OFFCURVE",
"236 623 OFFCURVE",
"385 624 CURVE",
"385 624 LINE"
);
}
);
};
layerId = "CF479DE4-94A2-4865-8D1E-65EA355866D4";
paths = (
{
closed = 1;
nodes = (
"349 -7 OFFCURVE",
"416 28 OFFCURVE",
"504 98 CURVE",
"472 141 LINE",
"403 86 OFFCURVE",
"340 51 OFFCURVE",
"277 51 CURVE SMOOTH",
"212 51 OFFCURVE",
"167 98 OFFCURVE",
"167 213 CURVE SMOOTH",
"167 422 OFFCURVE",
"236 623 OFFCURVE",
"385 624 CURVE SMOOTH",
"438 622 OFFCURVE",
"463 592 OFFCURVE",
"463 560 CURVE SMOOTH",
"463 543 OFFCURVE",
"456 525 OFFCURVE",
"443 511 CURVE",
"445 488 OFFCURVE",
"466 472 OFFCURVE",
"493 472 CURVE SMOOTH",
"539 472 OFFCURVE",
"559 520 OFFCURVE",
"559 559 CURVE SMOOTH",
"559 620 OFFCURVE",
"505 675 OFFCURVE",
"395 675 CURVE SMOOTH",
"176 675 OFFCURVE",
"70 479 OFFCURVE",
"70 229 CURVE SMOOTH",
"70 71 OFFCURVE",
"147 -7 OFFCURVE",
"256 -7 CURVE SMOOTH"
);
}
);
width = 540;
},
{
anchors = (
{
name = cedilla;
position = "{285, 0}";
},
{
name = top;
position = "{376, 667}";
}
);
layerId = "0FAD76F5-9F58-4721-BF81-08BC6166EF10";
paths = (
{
closed = 1;
nodes = (
"364 -10 OFFCURVE",
"451 31 OFFCURVE",
"525 101 CURVE",
"497 133 LINE",
"443 84 OFFCURVE",
"386 58 OFFCURVE",
"333 58 CURVE SMOOTH",
"248 58 OFFCURVE",
"212 127 OFFCURVE",
"212 246 CURVE SMOOTH",
"212 407 OFFCURVE",
"255 621 OFFCURVE",
"384 621 CURVE SMOOTH",
"421 621 OFFCURVE",
"443 599 OFFCURVE",
"443 565 CURVE SMOOTH",
"443 544 OFFCURVE",
"433 522 OFFCURVE",
"418 502 CURVE",
"426 475 OFFCURVE",
"455 456 OFFCURVE",
"487 456 CURVE SMOOTH",
"537 456 OFFCURVE",
"582 501 OFFCURVE",
"582 555 CURVE SMOOTH",
"582 626 OFFCURVE",
"509 674 OFFCURVE",
"397 674 CURVE SMOOTH",
"165 674 OFFCURVE",
"47 511 OFFCURVE",
"47 249 CURVE SMOOTH",
"47 81 OFFCURVE",
"130 -10 OFFCURVE",
"289 -10 CURVE SMOOTH"
);
}
);
width = 552;
}
);
unicode = 0043;
},
{
color = 4;
glyphname = Cacute;
lastChange = "2019-12-01 01:39:38 +0000";
layers = (
{
background = {
paths = (
{
closed = 1;
nodes = (
"438 622 OFFCURVE",
"463 592 OFFCURVE",
"463 560 CURVE SMOOTH",
"463 543 OFFCURVE",
"456 525 OFFCURVE",
"443 511 CURVE",
"445 488 OFFCURVE",
"466 472 OFFCURVE",
"493 472 CURVE SMOOTH",
"539 472 OFFCURVE",
"559 520 OFFCURVE",
"559 559 CURVE SMOOTH",
"559 620 OFFCURVE",
"505 675 OFFCURVE",
"395 675 CURVE SMOOTH",
"176 675 OFFCURVE",
"70 479 OFFCURVE",
"70 229 CURVE SMOOTH",
"70 71 OFFCURVE",
"147 -7 OFFCURVE",
"256 -7 CURVE SMOOTH",
"349 -7 OFFCURVE",
"416 28 OFFCURVE",
"504 98 CURVE",
"472 141 LINE",
"403 86 OFFCURVE",
"340 51 OFFCURVE",
"277 51 CURVE SMOOTH",
"212 51 OFFCURVE",
"167 98 OFFCURVE",
"167 213 CURVE SMOOTH",
"167 422 OFFCURVE",
"236 623 OFFCURVE",
"385 624 CURVE",
"385 624 LINE"
);
},
{
closed = 1;
nodes = (
"496 790 LINE SMOOTH",
"514 803 OFFCURVE",
"519 814 OFFCURVE",
"519 829 CURVE SMOOTH",
"519 849 OFFCURVE",
"502 863 OFFCURVE",
"485 863 CURVE SMOOTH",
"470 863 OFFCURVE",
"460 859 OFFCURVE",
"449 847 CURVE SMOOTH",
"352 731 LINE",
"374 706 LINE"
);
}
);
};
components = (
{
name = C;
},
{
name = acutecomb.case;
transform = "{1, 0, 0, 1, 240, 0}";
}
);
layerId = "CF479DE4-94A2-4865-8D1E-65EA355866D4";
width = 495;
},
{
components = (
{
name = C;
},
{
name = acutecomb.case;
transform = "{1, 0, 0, 1, 239, 0}";
}
);
layerId = "0FAD76F5-9F58-4721-BF81-08BC6166EF10";
width = 542;
}
);
leftKerningGroup = O;
rightKerningGroup = C;
unicode = 0106;
},
{
color = 4;
glyphname = Ccaron;
lastChange = "2019-12-01 01:39:38 +0000";
layers = (
{
background = {
paths = (
{
closed = 1;
nodes = (
"438 622 OFFCURVE",
"463 592 OFFCURVE",
"463 560 CURVE SMOOTH",
"463 543 OFFCURVE",
"456 525 OFFCURVE",
"443 511 CURVE",
"445 488 OFFCURVE",
"466 472 OFFCURVE",
"493 472 CURVE SMOOTH",
"539 472 OFFCURVE",
"559 520 OFFCURVE",
"559 559 CURVE SMOOTH",
"559 620 OFFCURVE",
"505 675 OFFCURVE",
"395 675 CURVE SMOOTH",
"176 675 OFFCURVE",
"70 479 OFFCURVE",
"70 229 CURVE SMOOTH",
"70 71 OFFCURVE",
"147 -7 OFFCURVE",
"256 -7 CURVE SMOOTH",
"349 -7 OFFCURVE",
"416 28 OFFCURVE",
"504 98 CURVE",
"472 141 LINE",
"403 86 OFFCURVE",
"340 51 OFFCURVE",
"277 51 CURVE SMOOTH",
"212 51 OFFCURVE",
"167 98 OFFCURVE",
"167 213 CURVE SMOOTH",
"167 422 OFFCURVE",
"236 623 OFFCURVE",
"385 624 CURVE",
"385 624 LINE"
);
},
{
closed = 1;
nodes = (
"405 778 LINE",
"319 853 LINE",
"293 828 LINE",
"368 722 LINE SMOOTH",
"376 712 OFFCURVE",
"385 706 OFFCURVE",
"397 706 CURVE SMOOTH",
"409 706 OFFCURVE",
"420 712 OFFCURVE",
"431 722 CURVE SMOOTH",
"540 828 LINE",
"518 853 LINE"
);
}
);
};
components = (
{
name = C;
},
{
name = caroncomb.case;
transform = "{1, 0, 0, 1, 162, 0}";
}
);
layerId = "CF479DE4-94A2-4865-8D1E-65EA355866D4";
width = 495;
},
{
components = (
{
name = C;
},
{
name = caroncomb.case;
transform = "{1, 0, 0, 1, 153, 0}";
}
);
layerId = "0FAD76F5-9F58-4721-BF81-08BC6166EF10";
width = 542;
}
);
leftKerningGroup = O;
rightKerningGroup = C;
unicode = 010C;
},
{
color = 4;
glyphname = Ccircumflex;
lastChange = "2019-12-01 01:39:38 +0000";
layers = (
{
background = {
paths = (
{
closed = 1;
nodes = (
"438 622 OFFCURVE",
"463 592 OFFCURVE",
"463 560 CURVE SMOOTH",
"463 543 OFFCURVE",
"456 525 OFFCURVE",
"443 511 CURVE",
"445 488 OFFCURVE",
"466 472 OFFCURVE",
"493 472 CURVE SMOOTH",
"539 472 OFFCURVE",
"559 520 OFFCURVE",
"559 559 CURVE SMOOTH",
"559 620 OFFCURVE",
"505 675 OFFCURVE",
"395 675 CURVE SMOOTH",
"176 675 OFFCURVE",
"70 479 OFFCURVE",
"70 229 CURVE SMOOTH",
"70 71 OFFCURVE",
"147 -7 OFFCURVE",
"256 -7 CURVE SMOOTH",
"349 -7 OFFCURVE",
"416 28 OFFCURVE",
"504 98 CURVE",
"472 141 LINE",
"403 86 OFFCURVE",
"340 51 OFFCURVE",
"277 51 CURVE SMOOTH",
"212 51 OFFCURVE",
"167 98 OFFCURVE",
"167 213 CURVE SMOOTH",
"167 422 OFFCURVE",
"236 623 OFFCURVE",
"385 624 CURVE",
"385 624 LINE"
);
},
{
closed = 1;
nodes = (
"449 837 LINE SMOOTH",
"441 848 OFFCURVE",
"432 853 OFFCURVE",
"420 853 CURVE SMOOTH",
"408 853 OFFCURVE",
"397 847 OFFCURVE",
"387 837 CURVE SMOOTH",
"278 730 LINE",
"299 706 LINE",
"411 781 LINE",
"499 706 LINE",
"525 730 LINE"
);
}
);
};
components = (
{
name = C;
},
{
name = circumflexcomb.case;
transform = "{1, 0, 0, 1, 163, 0}";
}
);
layerId = "CF479DE4-94A2-4865-8D1E-65EA355866D4";
width = 495;
},
{
components = (
{
name = C;
},
{
name = circumflexcomb.case;
transform = "{1, 0, 0, 1, 146, 0}";
}
);
layerId = "0FAD76F5-9F58-4721-BF81-08BC6166EF10";
width = 542;
}
);
leftKerningGroup = O;
rightKerningGroup = C;
unicode = 0108;
},
{
color = 4;
glyphname = Cdotaccent;
lastChange = "2019-12-01 01:39:38 +0000";
layers = (
{
background = {
anchors = (
{
name = cedilla;
position = "{257, 0}";
},
{
name = top;
position = "{397, 705}";
}
);
paths = (
{
closed = 1;
nodes = (
"438 622 OFFCURVE",
"463 592 OFFCURVE",
"463 560 CURVE SMOOTH",
"463 543 OFFCURVE",
"456 525 OFFCURVE",
"443 511 CURVE",
"445 488 OFFCURVE",
"466 472 OFFCURVE",
"493 472 CURVE SMOOTH",
"539 472 OFFCURVE",
"559 520 OFFCURVE",
"559 559 CURVE SMOOTH",
"559 620 OFFCURVE",
"505 675 OFFCURVE",
"395 675 CURVE SMOOTH",
"176 675 OFFCURVE",
"70 479 OFFCURVE",
"70 229 CURVE SMOOTH",
"70 71 OFFCURVE",
"147 -7 OFFCURVE",
"256 -7 CURVE SMOOTH",
"349 -7 OFFCURVE",
"416 28 OFFCURVE",
"504 98 CURVE",
"472 141 LINE",
"403 86 OFFCURVE",
"340 51 OFFCURVE",
"277 51 CURVE SMOOTH",
"212 51 OFFCURVE",
"167 98 OFFCURVE",
"167 213 CURVE SMOOTH",
"167 422 OFFCURVE",
"236 623 OFFCURVE",
"385 624 CURVE",
"385 624 LINE"
);
},
{
closed = 1;
nodes = (
"437 725 OFFCURVE",
"461 752 OFFCURVE",
"461 796 CURVE SMOOTH",
"461 823 OFFCURVE",
"444 841 OFFCURVE",
"415 841 CURVE SMOOTH",
"379 841 OFFCURVE",
"355 814 OFFCURVE",
"355 770 CURVE SMOOTH",
"355 742 OFFCURVE",
"372 725 OFFCURVE",
"401 725 CURVE SMOOTH",
"401 725 LINE"
);
}
);
};
components = (
{
name = C;
},
{
name = dotaccentcomb.case;
transform = "{1, 0, 0, 1, 236, 0}";
}
);
layerId = "CF479DE4-94A2-4865-8D1E-65EA355866D4";
width = 495;
},
{
background = {
paths = (
{
closed = 1;
nodes = (
"364 -10 OFFCURVE",
"451 31 OFFCURVE",
"525 101 CURVE",
"497 133 LINE",
"443 84 OFFCURVE",
"386 58 OFFCURVE",
"333 58 CURVE SMOOTH",
"248 58 OFFCURVE",
"212 127 OFFCURVE",
"212 246 CURVE SMOOTH",
"212 407 OFFCURVE",
"255 621 OFFCURVE",
"384 621 CURVE SMOOTH",
"421 621 OFFCURVE",
"443 599 OFFCURVE",
"443 565 CURVE SMOOTH",
"443 544 OFFCURVE",
"433 522 OFFCURVE",
"418 502 CURVE",
"426 475 OFFCURVE",
"455 456 OFFCURVE",
"487 456 CURVE SMOOTH",
"537 456 OFFCURVE",
"582 501 OFFCURVE",
"582 555 CURVE SMOOTH",
"582 626 OFFCURVE",
"509 674 OFFCURVE",
"397 674 CURVE SMOOTH",
"165 674 OFFCURVE",
"47 511 OFFCURVE",
"47 249 CURVE SMOOTH",
"47 81 OFFCURVE",
"130 -10 OFFCURVE",
"289 -10 CURVE SMOOTH",
"289 -10 LINE"
);
},
{
closed = 1;
nodes = (
"437 726 OFFCURVE",
"470 757 OFFCURVE",
"470 810 CURVE SMOOTH",
"470 843 OFFCURVE",
"445 866 OFFCURVE",
"405 866 CURVE SMOOTH",
"355 866 OFFCURVE",
"322 835 OFFCURVE",
"322 782 CURVE SMOOTH",
"322 748 OFFCURVE",
"347 726 OFFCURVE",
"387 726 CURVE SMOOTH",
"387 726 LINE"
);
}
);
};
components = (
{
name = C;
},
{
name = dotaccentcomb.case;
transform = "{1, 0, 0, 1, 226, 0}";
}
);
layerId = "0FAD76F5-9F58-4721-BF81-08BC6166EF10";
width = 542;
}
);
leftKerningGroup = O;
rightKerningGroup = C;
unicode = 010A;
},
{
color = 4;
glyphname = D;
lastChange = "2019-11-22 04:19:41 +0000";
layers = (
{
anchors = (
{
name = top;
position = "{380, 667}";
}
);
background = {
anchors = (
{
name = cedilla;
position = "{279, 0}";
},
{
name = top;
position = "{368, 705}";
}
);
paths = (
{
closed = 1;
nodes = (
"117 630 LINE",
"148 626 OFFCURVE",
"177 619 OFFCURVE",
"202 604 CURVE",
"116 62 LINE",
"88 45 OFFCURVE",
"58 41 OFFCURVE",
"26 37 CURVE",
"21 0 LINE",
"228 0 LINE SMOOTH",
"478 0 OFFCURVE",
"617 159 OFFCURVE",
"617 431 CURVE SMOOTH",
"617 602 OFFCURVE",
"510 667 OFFCURVE",
"333 667 CURVE SMOOTH",
"122 667 LINE"
);
},
{
closed = 1;
nodes = (
"446 617 OFFCURVE",
"519 578 OFFCURVE",
"519 441 CURVE SMOOTH",
"519 274 OFFCURVE",
"449 49 OFFCURVE",
"264 49 CURVE SMOOTH",
"223 49 OFFCURVE",
"207 57 OFFCURVE",
"207 80 CURVE SMOOTH",
"207 83 OFFCURVE",
"207 86 OFFCURVE",
"208 90 CURVE SMOOTH",
"292 617 LINE",
"339 617 LINE"
);
}
);
};
layerId = "CF479DE4-94A2-4865-8D1E-65EA355866D4";
paths = (
{
closed = 1;
nodes = (
"228 0 LINE SMOOTH",
"478 0 OFFCURVE",
"617 159 OFFCURVE",
"617 431 CURVE SMOOTH",
"617 602 OFFCURVE",
"510 667 OFFCURVE",
"333 667 CURVE SMOOTH",
"122 667 LINE",
"117 630 LINE",
"148 626 OFFCURVE",
"177 619 OFFCURVE",
"202 604 CURVE",
"116 62 LINE",
"88 45 OFFCURVE",
"58 41 OFFCURVE",
"26 37 CURVE",
"21 0 LINE"
);
},
{
closed = 1;
nodes = (
"223 49 OFFCURVE",
"207 59 OFFCURVE",
"207 78 CURVE SMOOTH",
"207 88 OFFCURVE",
"209 97 OFFCURVE",
"211 110 CURVE SMOOTH",
"292 617 LINE",
"339 617 LINE SMOOTH",
"446 617 OFFCURVE",
"519 578 OFFCURVE",
"519 441 CURVE SMOOTH",
"519 274 OFFCURVE",
"449 49 OFFCURVE",
"264 49 CURVE SMOOTH"
);
}
);
width = 646;
},
{
anchors = (
{
name = top;
position = "{390, 667}";
}
);
layerId = "0FAD76F5-9F58-4721-BF81-08BC6166EF10";
paths = (
{
closed = 1;
nodes = (
"218 0 LINE SMOOTH",
"548 0 OFFCURVE",
"648 204 OFFCURVE",
"648 413 CURVE SMOOTH",
"648 608 OFFCURVE",
"502 667 OFFCURVE",
"302 667 CURVE SMOOTH",
"93 667 LINE",
"87 626 LINE",
"115 622 OFFCURVE",
"142 610 OFFCURVE",
"153 596 CURVE",
"69 70 LINE",
"48 55 OFFCURVE",
"30 46 OFFCURVE",
"-2 41 CURVE",
"-7 0 LINE"
);
},
{
closed = 1;
nodes = (
"233 63 OFFCURVE",
"222 75 OFFCURVE",
"222 96 CURVE SMOOTH",
"222 107 OFFCURVE",
"223 113 OFFCURVE",
"225 123 CURVE SMOOTH",
"302 605 LINE",
"329 605 LINE SMOOTH",
"434 605 OFFCURVE",
"492 549 OFFCURVE",
"492 429 CURVE SMOOTH",
"492 297 OFFCURVE",
"457 63 OFFCURVE",
"258 63 CURVE SMOOTH"
);
}
);
width = 679;
}
);
unicode = 0044;
},
{
glyphname = Eth;
lastChange = "2023-08-29 23:41:00 +0000";
layers = (
{
background = {
components = (
{
name = macron;
transform = "{1, 0, 0, 1, 79, -266}";
},
{
name = D;
}
);
};
components = (
{
alignment = -1;
name = macron;
transform = "{1, 0, 0, 1, 79, -266}";
},
{
alignment = -1;
name = D;
}
);
layerId = "CF479DE4-94A2-4865-8D1E-65EA355866D4";
width = 649;
},
{
background = {
paths = (
{
closed = 1;
nodes = (
"54 285 LINE",
"105 285 LINE",
"71 70 LINE",
"50 55 OFFCURVE",
"32 46 OFFCURVE",
"0 41 CURVE",
"-5 0 LINE",
"220 0 LINE SMOOTH",
"550 0 OFFCURVE",
"650 204 OFFCURVE",
"650 413 CURVE SMOOTH",
"650 608 OFFCURVE",
"504 667 OFFCURVE",
"304 667 CURVE SMOOTH",
"95 667 LINE",
"89 626 LINE",
"117 622 OFFCURVE",
"144 610 OFFCURVE",
"155 596 CURVE",
"120 380 LINE",
"69 380 LINE"
);
},
{
closed = 1;
nodes = (
"304 605 LINE",
"331 605 LINE SMOOTH",
"436 605 OFFCURVE",
"494 549 OFFCURVE",
"494 429 CURVE SMOOTH",
"494 297 OFFCURVE",
"459 63 OFFCURVE",
"260 63 CURVE SMOOTH",
"235 63 OFFCURVE",
"224 75 OFFCURVE",
"224 99 CURVE SMOOTH",
"224 104 OFFCURVE",
"225 110 OFFCURVE",
"226 117 CURVE SMOOTH",
"253 285 LINE",
"390 285 LINE",
"405 380 LINE",
"268 380 LINE"
);
}
);
};
components = (
{
name = D;
transform = "{1, 0, 0, 1, 2, 0}";
}
);
layerId = "0FAD76F5-9F58-4721-BF81-08BC6166EF10";
paths = (
{
closed = 1;
nodes = (
"397 292 LINE",
"408 362 LINE",
"55 362 LINE",
"44 292 LINE"
);
}
);
width = 679;
}
);
unicode = 00D0;
},
{
color = 4;
glyphname = Dcroat;
lastChange = "2019-11-27 00:12:06 +0000";
layers = (
{
background = {
components = (
{
name = D;
},
{
name = macron;
transform = "{1, 0, 0, 1, 79, -266}";
}
);
};
components = (
{
name = D;
}
);
layerId = "CF479DE4-94A2-4865-8D1E-65EA355866D4";
paths = (
{
closed = 1;
nodes = (
"387 304 LINE",
"394 348 LINE",
"117 348 LINE",
"110 304 LINE"
);
}
);
width = 646;
},
{
background = {
paths = (
{
closed = 1;
nodes = (
"54 285 LINE",
"105 285 LINE",
"71 70 LINE",
"50 55 OFFCURVE",
"32 46 OFFCURVE",
"0 41 CURVE",
"-5 0 LINE",
"220 0 LINE SMOOTH",
"550 0 OFFCURVE",
"650 204 OFFCURVE",
"650 413 CURVE SMOOTH",
"650 608 OFFCURVE",
"504 667 OFFCURVE",
"304 667 CURVE SMOOTH",
"95 667 LINE",
"89 626 LINE",
"117 622 OFFCURVE",
"144 610 OFFCURVE",
"155 596 CURVE",
"120 380 LINE",
"69 380 LINE"
);
},
{
closed = 1;
nodes = (
"304 605 LINE",
"331 605 LINE SMOOTH",
"436 605 OFFCURVE",
"494 549 OFFCURVE",
"494 429 CURVE SMOOTH",
"494 297 OFFCURVE",
"459 63 OFFCURVE",
"260 63 CURVE SMOOTH",
"235 63 OFFCURVE",
"224 75 OFFCURVE",
"224 99 CURVE SMOOTH",
"224 104 OFFCURVE",
"225 110 OFFCURVE",
"226 117 CURVE SMOOTH",
"253 285 LINE",
"390 285 LINE",
"405 380 LINE",
"268 380 LINE"
);
}
);
};
components = (
{
name = D;
transform = "{1, 0, 0, 1, 2, 0}";
}
);
layerId = "0FAD76F5-9F58-4721-BF81-08BC6166EF10";
paths = (
{
closed = 1;
nodes = (
"397 298 LINE",
"408 368 LINE",
"60 368 LINE",
"49 298 LINE"
);
}
);
width = 683;
}
);
leftKerningGroup = H;
rightKerningGroup = O;
unicode = 0110;
},
{
color = 4;
glyphname = E;
lastChange = "2019-11-22 04:23:08 +0000";
layers = (
{
anchors = (
{
name = ogonek;
position = "{400, 0}";
},
{
name = top;
position = "{365, 667}";
}
);
background = {
anchors = (
{
name = cedilla;
position = "{279, 0}";
},
{
name = ogonek;
position = "{400, 0}";
},
{
name = top;
position = "{375, 705}";
}
);
paths = (
{
closed = 1;
nodes = (
"494 169 LINE",
"486 170 OFFCURVE",
"479 171 OFFCURVE",
"473 171 CURVE SMOOTH",
"466 171 OFFCURVE",
"459 170 OFFCURVE",
"453 169 CURVE",
"441 136 OFFCURVE",
"424 92 OFFCURVE",
"393 57 CURVE",
"199 57 LINE",
"240 316 LINE",
"344 312 LINE SMOOTH",
"387 310 OFFCURVE",
"386 262 OFFCURVE",
"390 239 CURVE",
"421 239 LINE",
"452 434 LINE",
"420 434 LINE",
"411 412 OFFCURVE",
"390 371 OFFCURVE",
"355 368 CURVE SMOOTH",
"338 366 OFFCURVE",
"285 364 OFFCURVE",
"248 363 CURVE",
"288 614 LINE",
"472 614 LINE",
"492 583 OFFCURVE",
"496 544 OFFCURVE",
"497 513 CURVE",
"502 512 OFFCURVE",
"507 511 OFFCURVE",
"512 511 CURVE SMOOTH",
"522 511 OFFCURVE",
"532 513 OFFCURVE",
"541 516 CURVE",
"556 667 LINE",
"117 667 LINE",
"112 630 LINE",
"145 626 OFFCURVE",
"173 619 OFFCURVE",
"198 604 CURVE",
"112 63 LINE",
"84 46 OFFCURVE",
"55 41 OFFCURVE",
"22 37 CURVE",
"17 0 LINE",
"458 0 LINE"
);
}
);
};
layerId = "CF479DE4-94A2-4865-8D1E-65EA355866D4";
paths = (
{
closed = 1;
nodes = (
"458 0 LINE",
"494 169 LINE",
"487 170 OFFCURVE",
"480 171 OFFCURVE",
"473 171 CURVE SMOOTH",
"465 171 OFFCURVE",
"458 170 OFFCURVE",
"453 169 CURVE",
"441 136 OFFCURVE",
"424 92 OFFCURVE",
"393 57 CURVE",
"199 57 LINE",
"240 316 LINE",
"344 312 LINE SMOOTH",
"387 310 OFFCURVE",
"386 262 OFFCURVE",
"390 239 CURVE",
"421 239 LINE",
"452 434 LINE",
"420 434 LINE",
"411 412 OFFCURVE",
"390 371 OFFCURVE",
"355 368 CURVE",
"248 363 LINE",
"288 614 LINE",
"472 614 LINE",
"492 583 OFFCURVE",
"496 544 OFFCURVE",
"497 513 CURVE",
"502 512 OFFCURVE",
"507 511 OFFCURVE",
"515 511 CURVE SMOOTH",
"524 511 OFFCURVE",
"533 512 OFFCURVE",
"541 516 CURVE",
"556 667 LINE",
"117 667 LINE",
"112 630 LINE",
"145 626 OFFCURVE",
"173 619 OFFCURVE",
"198 604 CURVE",
"112 63 LINE",
"84 46 OFFCURVE",
"55 41 OFFCURVE",
"22 37 CURVE",
"17 0 LINE"
);
}
);
width = 568;
},
{
anchors = (
{
name = ogonek;
position = "{491, 0}";
},
{
name = top;
position = "{354, 705}";
}
);
layerId = "0FAD76F5-9F58-4721-BF81-08BC6166EF10";
paths = (
{
closed = 1;
nodes = (
"485 0 LINE",
"525 188 LINE",
"518 190 OFFCURVE",
"510 191 OFFCURVE",
"503 191 CURVE SMOOTH",
"484 191 OFFCURVE",
"471 188 OFFCURVE",
"457 184 CURVE",
"446 153 OFFCURVE",
"425 101 OFFCURVE",
"394 62 CURVE",
"207 62 LINE",
"247 314 LINE",
"335 310 LINE SMOOTH",
"358 309 OFFCURVE",
"370 290 OFFCURVE",
"380 236 CURVE",
"422 236 LINE",
"455 443 LINE",
"413 443 LINE",
"397 404 OFFCURVE",
"371 377 OFFCURVE",
"347 376 CURVE SMOOTH",
"256 372 LINE",
"294 606 LINE",
"463 606 LINE",
"480 572 OFFCURVE",
"484 528 OFFCURVE",
"485 499 CURVE",
"492 497 OFFCURVE",
"500 496 OFFCURVE",
"507 496 CURVE SMOOTH",
"526 496 OFFCURVE",
"539 499 OFFCURVE",
"553 503 CURVE",
"575 667 LINE",
"85 667 LINE",
"79 626 LINE",
"107 622 OFFCURVE",
"134 610 OFFCURVE",
"145 596 CURVE",
"62 71 LINE",
"41 55 OFFCURVE",
"23 46 OFFCURVE",
"-10 41 CURVE",
"-15 0 LINE"
);
}
);
width = 562;
}
);
unicode = 0045;
},
{
color = 4;
glyphname = Eogonek;
lastChange = "2019-11-29 23:32:56 +0000";
layers = (
{
background = {
components = (
{
name = E;
}
);
paths = (
{
closed = 1;
nodes = (
"356 -27 OFFCURVE",
"252 -64 OFFCURVE",
"252 -146 CURVE SMOOTH",
"252 -186 OFFCURVE",
"273 -204 OFFCURVE",
"310 -204 CURVE SMOOTH",
"349 -204 OFFCURVE",
"386 -186 OFFCURVE",
"414 -165 CURVE",
"397 -137 LINE",
"378 -147 OFFCURVE",
"352 -154 OFFCURVE",
"339 -154 CURVE SMOOTH",
"322 -154 OFFCURVE",
"313 -143 OFFCURVE",
"313 -126 CURVE SMOOTH",
"313 -68 OFFCURVE",
"386 0 OFFCURVE",
"433 0 CURVE SMOOTH",
"458 0 LINE",
"356 55 LINE"
);
},
{
closed = 1;
nodes = (
"356 -27 OFFCURVE",
"252 -64 OFFCURVE",
"252 -146 CURVE SMOOTH",
"252 -186 OFFCURVE",
"273 -204 OFFCURVE",
"310 -204 CURVE SMOOTH",
"349 -204 OFFCURVE",
"386 -186 OFFCURVE",
"414 -165 CURVE",
"397 -137 LINE",
"378 -147 OFFCURVE",
"352 -154 OFFCURVE",
"339 -154 CURVE SMOOTH",
"322 -154 OFFCURVE",
"313 -143 OFFCURVE",
"313 -126 CURVE SMOOTH",
"313 -68 OFFCURVE",
"386 0 OFFCURVE",
"433 0 CURVE SMOOTH",
"458 0 LINE",
"356 55 LINE"
);
}
);
};
components = (
{
name = E;
},
{
name = ogonekcomb.case;
transform = "{1, 0, 0, 1, 307, 0}";
}
);
layerId = "CF479DE4-94A2-4865-8D1E-65EA355866D4";
width = 506;
},
{
components = (
{
name = E;
},
{
name = ogonekcomb.case;
transform = "{1, 0, 0, 1, 315, 0}";
}
);
layerId = "0FAD76F5-9F58-4721-BF81-08BC6166EF10";
width = 568;
}
);
leftKerningGroup = H;
rightKerningGroup = E;
unicode = 0118;
},
{
color = 4;
glyphname = F;
lastChange = "2019-11-22 04:23:05 +0000";
layers = (
{
background = {
anchors = (
{
name = top;
position = "{364, 705}";
}
);
paths = (
{
closed = 1;
nodes = (
"69 46 OFFCURVE",
"40 41 OFFCURVE",
"7 37 CURVE",
"1 0 LINE",
"276 0 LINE",
"281 37 LINE",
"249 41 OFFCURVE",
"210 47 OFFCURVE",
"185 63 CURVE",
"224 311 LINE",
"329 307 LINE SMOOTH",
"372 305 OFFCURVE",
"371 257 OFFCURVE",
"375 234 CURVE",
"406 234 LINE",
"437 429 LINE",
"405 429 LINE",
"396 407 OFFCURVE",
"375 365 OFFCURVE",
"340 363 CURVE SMOOTH",
"232 358 LINE",
"273 614 LINE",
"452 614 LINE",
"473 583 OFFCURVE",
"481 544 OFFCURVE",
"482 513 CURVE",
"487 512 OFFCURVE",
"492 511 OFFCURVE",
"497 511 CURVE SMOOTH",
"507 511 OFFCURVE",
"517 513 OFFCURVE",
"526 516 CURVE",
"542 667 LINE",
"103 667 LINE",
"98 630 LINE",
"129 626 OFFCURVE",
"158 619 OFFCURVE",
"183 604 CURVE",
"97 63 LINE"
);
}
);
};
layerId = "CF479DE4-94A2-4865-8D1E-65EA355866D4";
paths = (
{
closed = 1;
nodes = (
"276 0 LINE",
"281 37 LINE",
"249 41 OFFCURVE",
"210 47 OFFCURVE",
"185 63 CURVE",
"224 311 LINE",
"329 307 LINE SMOOTH",
"372 305 OFFCURVE",
"371 257 OFFCURVE",
"375 234 CURVE",
"406 234 LINE",
"437 429 LINE",
"405 429 LINE",
"396 407 OFFCURVE",
"375 365 OFFCURVE",
"340 363 CURVE SMOOTH",
"232 358 LINE",
"273 614 LINE",
"452 614 LINE",
"473 583 OFFCURVE",
"481 544 OFFCURVE",
"482 513 CURVE",
"487 512 OFFCURVE",
"492 511 OFFCURVE",
"497 511 CURVE SMOOTH",
"507 511 OFFCURVE",
"517 513 OFFCURVE",
"526 516 CURVE",
"542 667 LINE",
"103 667 LINE",
"98 630 LINE",
"129 626 OFFCURVE",
"158 619 OFFCURVE",
"183 604 CURVE",
"97 63 LINE",
"69 46 OFFCURVE",
"40 41 OFFCURVE",
"7 37 CURVE",
"1 0 LINE"
);
}
);
width = 527;
},
{
layerId = "0FAD76F5-9F58-4721-BF81-08BC6166EF10";
paths = (
{
closed = 1;
nodes = (
"291 0 LINE",
"296 41 LINE",
"264 48 OFFCURVE",
"222 57 OFFCURVE",
"209 71 CURVE",
"246 304 LINE",
"334 300 LINE SMOOTH",
"357 299 OFFCURVE",
"369 280 OFFCURVE",
"379 226 CURVE",
"421 226 LINE",
"454 433 LINE",
"412 433 LINE",
"396 394 OFFCURVE",
"370 367 OFFCURVE",
"346 366 CURVE SMOOTH",
"255 362 LINE",
"294 606 LINE",
"464 606 LINE",
"481 572 OFFCURVE",
"485 528 OFFCURVE",
"486 499 CURVE",
"493 497 OFFCURVE",
"501 496 OFFCURVE",
"508 496 CURVE SMOOTH",
"527 496 OFFCURVE",
"540 499 OFFCURVE",
"554 503 CURVE",
"576 667 LINE",
"85 667 LINE",
"79 626 LINE",
"107 622 OFFCURVE",
"134 610 OFFCURVE",
"145 596 CURVE",
"62 71 LINE",
"41 55 OFFCURVE",
"23 46 OFFCURVE",
"-10 41 CURVE",
"-15 0 LINE"
);
}
);
width = 536;
}
);
unicode = 0046;
},
{
color = 4;
glyphname = G;
lastChange = "2019-11-22 04:26:29 +0000";
layers = (
{
anchors = (
{
name = bottom;
position = "{288, 0}";
},
{
name = top;
position = "{397, 667}";
}
);
background = {
anchors = (
{
name = bottom;
position = "{288, 0}";
},
{
name = cedilla;
position = "{259, 0}";
},
{
name = top;
position = "{400, 705}";
}
);
paths = (
{
closed = 1;
nodes = (
"385 250 OFFCURVE",
"418 243 OFFCURVE",
"441 236 CURVE",
"420 107 LINE SMOOTH",
"412 59 OFFCURVE",
"326 49 OFFCURVE",
"289 49 CURVE SMOOTH",
"219 49 OFFCURVE",
"167 91 OFFCURVE",
"167 213 CURVE SMOOTH",
"167 424 OFFCURVE",
"236 624 OFFCURVE",
"385 624 CURVE SMOOTH",
"438 624 OFFCURVE",
"463 591 OFFCURVE",
"463 560 CURVE SMOOTH",
"463 543 OFFCURVE",
"456 525 OFFCURVE",
"443 511 CURVE",
"445 488 OFFCURVE",
"466 472 OFFCURVE",
"493 472 CURVE SMOOTH",
"539 472 OFFCURVE",
"559 520 OFFCURVE",
"559 559 CURVE SMOOTH",
"559 620 OFFCURVE",
"505 675 OFFCURVE",
"395 675 CURVE SMOOTH",
"176 675 OFFCURVE",
"70 479 OFFCURVE",
"70 229 CURVE SMOOTH",
"70 55 OFFCURVE",
"163 -8 OFFCURVE",
"275 -8 CURVE SMOOTH",
"345 -8 OFFCURVE",
"424 11 OFFCURVE",
"490 55 CURVE",
"531 296 LINE",
"349 296 LINE",
"343 254 LINE"
);
}
);
};
layerId = "CF479DE4-94A2-4865-8D1E-65EA355866D4";
paths = (
{
closed = 1;
nodes = (
"345 -8 OFFCURVE",
"424 11 OFFCURVE",
"490 55 CURVE",
"531 296 LINE",
"349 296 LINE",
"343 254 LINE",
"385 250 OFFCURVE",
"418 243 OFFCURVE",
"441 236 CURVE",
"420 107 LINE SMOOTH",
"412 59 OFFCURVE",
"326 49 OFFCURVE",
"289 49 CURVE SMOOTH",
"219 49 OFFCURVE",
"167 91 OFFCURVE",
"167 213 CURVE SMOOTH",
"167 424 OFFCURVE",
"236 624 OFFCURVE",
"385 624 CURVE SMOOTH",
"438 624 OFFCURVE",
"463 591 OFFCURVE",
"463 560 CURVE SMOOTH",
"463 543 OFFCURVE",
"456 525 OFFCURVE",
"443 511 CURVE",
"445 488 OFFCURVE",
"466 472 OFFCURVE",
"493 472 CURVE SMOOTH",
"539 472 OFFCURVE",
"559 520 OFFCURVE",
"559 559 CURVE SMOOTH",
"559 620 OFFCURVE",
"505 675 OFFCURVE",
"395 675 CURVE SMOOTH",
"176 675 OFFCURVE",
"70 479 OFFCURVE",
"70 229 CURVE SMOOTH",
"70 55 OFFCURVE",
"163 -8 OFFCURVE",
"275 -8 CURVE SMOOTH"
);
}
);
width = 585;
},
{
anchors = (
{
name = bottom;
position = "{323, 0}";
},
{
name = top;
position = "{406, 667}";
}
);
background = {
paths = (
{
closed = 1;
nodes = (
"363 254 LINE",
"405 250 OFFCURVE",
"438 243 OFFCURVE",
"461 236 CURVE",
"440 107 LINE SMOOTH",
"432 59 OFFCURVE",
"346 49 OFFCURVE",
"309 49 CURVE SMOOTH",
"239 49 OFFCURVE",
"187 91 OFFCURVE",
"187 213 CURVE SMOOTH",
"187 424 OFFCURVE",
"256 624 OFFCURVE",
"405 624 CURVE SMOOTH",
"458 624 OFFCURVE",
"483 591 OFFCURVE",
"483 560 CURVE SMOOTH",
"483 543 OFFCURVE",
"476 525 OFFCURVE",
"463 511 CURVE",
"465 488 OFFCURVE",
"486 472 OFFCURVE",
"513 472 CURVE SMOOTH",
"559 472 OFFCURVE",
"579 520 OFFCURVE",
"579 559 CURVE SMOOTH",
"579 620 OFFCURVE",
"525 675 OFFCURVE",
"415 675 CURVE SMOOTH",
"196 675 OFFCURVE",
"90 479 OFFCURVE",
"90 229 CURVE SMOOTH",
"90 55 OFFCURVE",
"183 -8 OFFCURVE",
"295 -8 CURVE SMOOTH",
"365 -8 OFFCURVE",
"444 11 OFFCURVE",
"510 55 CURVE",
"551 296 LINE",
"369 296 LINE"
);
},
{
closed = 1;
nodes = (
"588 310 LINE",
"361 310 LINE",
"353 252 LINE",
"384 250 OFFCURVE",
"409 244 OFFCURVE",
"428 233 CURVE",
"402 72 LINE",
"386 64 OFFCURVE",
"359 58 OFFCURVE",
"337 58 CURVE SMOOTH",
"249 58 OFFCURVE",
"206 121 OFFCURVE",
"206 249 CURVE SMOOTH",
"206 456 OFFCURVE",
"271 621 OFFCURVE",
"403 621 CURVE SMOOTH",
"453 621 OFFCURVE",
"478 601 OFFCURVE",
"478 564 CURVE SMOOTH",
"478 542 OFFCURVE",
"468 524 OFFCURVE",
"452 502 CURVE",
"460 475 OFFCURVE",
"489 456 OFFCURVE",
"521 456 CURVE SMOOTH",
"571 456 OFFCURVE",
"616 501 OFFCURVE",
"616 555 CURVE SMOOTH",
"616 625 OFFCURVE",
"537 674 OFFCURVE",
"416 674 CURVE SMOOTH",
"175 674 OFFCURVE",
"51 513 OFFCURVE",
"51 249 CURVE SMOOTH",
"51 81 OFFCURVE",
"133 -10 OFFCURVE",
"293 -10 CURVE SMOOTH",
"380 -10 OFFCURVE",
"474 18 OFFCURVE",
"548 66 CURVE"
);
}
);
};
layerId = "0FAD76F5-9F58-4721-BF81-08BC6166EF10";
paths = (
{
closed = 1;
nodes = (
"380 -10 OFFCURVE",
"474 18 OFFCURVE",
"548 66 CURVE",
"588 310 LINE",
"361 310 LINE",
"353 252 LINE",
"384 250 OFFCURVE",
"409 244 OFFCURVE",
"428 233 CURVE",
"405 91 LINE",
"400 70 OFFCURVE",
"373 58 OFFCURVE",
"337 58 CURVE SMOOTH",
"249 58 OFFCURVE",
"206 121 OFFCURVE",
"206 249 CURVE SMOOTH",
"206 456 OFFCURVE",
"271 621 OFFCURVE",
"403 621 CURVE SMOOTH",
"453 621 OFFCURVE",
"478 601 OFFCURVE",
"478 564 CURVE SMOOTH",
"478 542 OFFCURVE",
"468 524 OFFCURVE",
"452 502 CURVE",
"460 475 OFFCURVE",
"489 456 OFFCURVE",
"521 456 CURVE SMOOTH",
"571 456 OFFCURVE",
"616 501 OFFCURVE",
"616 555 CURVE SMOOTH",
"616 625 OFFCURVE",
"537 674 OFFCURVE",
"416 674 CURVE SMOOTH",
"175 674 OFFCURVE",
"51 513 OFFCURVE",
"51 249 CURVE SMOOTH",
"51 81 OFFCURVE",
"133 -10 OFFCURVE",
"293 -10 CURVE SMOOTH"
);
}
);
width = 619;
}
);
unicode = 0047;
},
{
color = 4;
glyphname = H;
lastChange = "2019-11-22 04:26:26 +0000";
layers = (
{
anchors = (
{
name = top;
position = "{402, 667}";
}
);
background = {
anchors = (
{
name = cedilla;
position = "{136, 0}";
},
{
name = top;
position = "{408, 705}";
}
);
paths = (
{
closed = 1;
nodes = (
"265 0 LINE",
"269 37 LINE",
"237 41 OFFCURVE",
"211 47 OFFCURVE",
"184 63 CURVE",
"224 315 LINE",
"479 315 LINE",
"439 63 LINE",
"411 46 OFFCURVE",
"391 41 OFFCURVE",
"359 37 CURVE",
"354 0 LINE",
"613 0 LINE",
"618 37 LINE",
"585 41 OFFCURVE",
"555 47 OFFCURVE",
"527 63 CURVE",
"613 604 LINE",
"640 620 OFFCURVE",
"660 626 OFFCURVE",
"692 630 CURVE",
"698 667 LINE",
"444 667 LINE",
"440 630 LINE",
"472 626 OFFCURVE",
"498 619 OFFCURVE",
"525 604 CURVE",
"487 369 LINE",
"232 369 LINE",
"270 604 LINE",
"297 620 OFFCURVE",
"317 626 OFFCURVE",
"350 630 CURVE",
"355 667 LINE",
"101 667 LINE",
"96 630 LINE",
"129 626 OFFCURVE",
"157 619 OFFCURVE",
"182 604 CURVE",
"96 63 LINE",
"68 46 OFFCURVE",
"43 41 OFFCURVE",
"11 37 CURVE",
"6 0 LINE"
);
}
);
};
layerId = "CF479DE4-94A2-4865-8D1E-65EA355866D4";
paths = (
{
closed = 1;
nodes = (
"265 0 LINE",
"269 37 LINE",
"237 41 OFFCURVE",
"211 47 OFFCURVE",
"184 63 CURVE",
"224 315 LINE",
"479 315 LINE",
"439 63 LINE",
"411 46 OFFCURVE",
"391 41 OFFCURVE",
"359 37 CURVE",
"354 0 LINE",
"613 0 LINE",
"618 37 LINE",
"585 41 OFFCURVE",
"555 47 OFFCURVE",
"527 63 CURVE",
"613 604 LINE",
"640 620 OFFCURVE",
"660 626 OFFCURVE",
"692 630 CURVE",
"698 667 LINE",
"444 667 LINE",
"440 630 LINE",
"472 626 OFFCURVE",
"498 619 OFFCURVE",
"525 604 CURVE",
"487 369 LINE",
"232 369 LINE",
"270 604 LINE",
"297 620 OFFCURVE",
"317 626 OFFCURVE",
"350 630 CURVE",
"355 667 LINE",
"101 667 LINE",
"96 630 LINE",
"129 626 OFFCURVE",
"157 619 OFFCURVE",
"182 604 CURVE",
"96 63 LINE",
"68 46 OFFCURVE",
"43 41 OFFCURVE",
"11 37 CURVE",
"6 0 LINE"
);
}
);
width = 669;
},
{
anchors = (
{
name = top;
position = "{408, 667}";
}
);
layerId = "0FAD76F5-9F58-4721-BF81-08BC6166EF10";
paths = (
{
closed = 1;
nodes = (
"272 0 LINE",
"277 41 LINE",
"245 48 OFFCURVE",
"223 57 OFFCURVE",
"210 71 CURVE",
"248 310 LINE",
"457 310 LINE",
"419 71 LINE",
"398 55 OFFCURVE",
"380 46 OFFCURVE",
"347 41 CURVE",
"342 0 LINE",
"628 0 LINE",
"633 41 LINE",
"601 48 OFFCURVE",
"579 57 OFFCURVE",
"566 71 CURVE",
"649 596 LINE",
"672 613 OFFCURVE",
"689 620 OFFCURVE",
"722 626 CURVE",
"728 667 LINE",
"442 667 LINE",
"436 626 LINE",
"464 622 OFFCURVE",
"491 610 OFFCURVE",
"502 596 CURVE",
"467 373 LINE",
"258 373 LINE",
"293 596 LINE",
"316 613 OFFCURVE",
"333 620 OFFCURVE",
"366 626 CURVE",
"372 667 LINE",
"86 667 LINE",
"80 626 LINE",
"108 622 OFFCURVE",
"135 610 OFFCURVE",
"146 596 CURVE",
"63 71 LINE",
"42 55 OFFCURVE",
"24 46 OFFCURVE",
"-9 41 CURVE",
"-14 0 LINE"
);
}
);
width = 691;
}
);
unicode = 0048;
},
{
glyphname = Hbar;
lastChange = "2019-11-27 00:14:14 +0000";
layers = (
{
background = {
components = (
{
name = H;
}
);
paths = (
{
closed = 1;
nodes = (
"670 454 LINE",
"677 498 LINE",
"83 498 LINE",
"77 454 LINE"
);
}
);
};
components = (
{
name = H;
}
);
layerId = "CF479DE4-94A2-4865-8D1E-65EA355866D4";
paths = (
{
closed = 1;
nodes = (
"670 454 LINE",
"677 498 LINE",
"83 498 LINE",
"77 454 LINE"
);
}
);
width = 673;
},
{
background = {
paths = (
{
closed = 1;
nodes = (
"51 442 LINE",
"695 442 LINE",
"706 510 LINE",
"62 510 LINE"
);
},
{
closed = 1;
nodes = (
"51 442 LINE",
"695 442 LINE",
"706 510 LINE",
"62 510 LINE"
);
}
);
};
components = (
{
name = H;
}
);
layerId = "0FAD76F5-9F58-4721-BF81-08BC6166EF10";
paths = (
{
closed = 1;
nodes = (
"695 442 LINE",
"706 510 LINE",
"62 510 LINE",
"51 442 LINE"
);
}
);
width = 691;
}
);
leftKerningGroup = H;
rightKerningGroup = H;
unicode = 0126;
},
{
color = 4;
glyphname = I;
lastChange = "2019-11-22 04:26:22 +0000";
layers = (
{
anchors = (
{
name = ogonek;
position = "{143, 0}";
},
{
name = top;
position = "{243, 705}";
}
);
background = {
anchors = (
{
name = ogonek;
position = "{143, 0}";
},
{
name = top;
position = "{243, 705}";
}
);
paths = (
{
closed = 1;
nodes = (
"271 0 LINE",
"276 37 LINE",
"244 41 OFFCURVE",
"213 47 OFFCURVE",
"186 63 CURVE",
"272 604 LINE",
"300 620 OFFCURVE",
"325 626 OFFCURVE",
"357 630 CURVE",
"362 667 LINE",
"103 667 LINE",
"98 630 LINE",
"131 626 OFFCURVE",
"159 619 OFFCURVE",
"184 604 CURVE",
"98 63 LINE",
"70 46 OFFCURVE",
"44 41 OFFCURVE",
"12 37 CURVE",
"7 0 LINE"
);
}
);
};
layerId = "CF479DE4-94A2-4865-8D1E-65EA355866D4";
paths = (
{
closed = 1;
nodes = (
"271 0 LINE",
"276 37 LINE",
"244 41 OFFCURVE",
"213 47 OFFCURVE",
"186 63 CURVE",
"272 604 LINE",
"300 620 OFFCURVE",
"325 626 OFFCURVE",
"357 630 CURVE",
"362 667 LINE",
"103 667 LINE",
"98 630 LINE",
"131 626 OFFCURVE",
"159 619 OFFCURVE",
"184 604 CURVE",
"98 63 LINE",
"70 46 OFFCURVE",
"44 41 OFFCURVE",
"12 37 CURVE",
"7 0 LINE"
);
}
);
width = 320;
},
{
anchors = (
{
name = ogonek;
position = "{200, 0}";
},
{
name = top;
position = "{238, 667}";
}
);
layerId = "0FAD76F5-9F58-4721-BF81-08BC6166EF10";
paths = (
{
closed = 1;
nodes = (
"281 0 LINE",
"286 41 LINE",
"254 48 OFFCURVE",
"232 57 OFFCURVE",
"219 71 CURVE",
"302 596 LINE",
"325 613 OFFCURVE",
"342 620 OFFCURVE",
"375 626 CURVE",
"381 667 LINE",
"95 667 LINE",
"89 626 LINE",
"117 622 OFFCURVE",
"144 610 OFFCURVE",
"155 596 CURVE",
"72 71 LINE",
"51 55 OFFCURVE",
"33 46 OFFCURVE",
"0 41 CURVE",
"-5 0 LINE"
);
}
);
width = 341;
}
);
unicode = 0049;
},
{
glyphname = IJ;
lastChange = "2019-11-20 03:09:56 +0000";
layers = (
{
background = {
paths = (
{
closed = 1;
nodes = (
"605 620 OFFCURVE",
"630 626 OFFCURVE",
"662 630 CURVE",
"668 667 LINE",
"408 667 LINE",
"403 630 LINE",
"436 626 OFFCURVE",
"465 619 OFFCURVE",
"490 604 CURVE",
"394 1 LINE SMOOTH",
"378 -96 OFFCURVE",
"315 -139 OFFCURVE",
"252 -165 CURVE",
"258 -195 LINE",
"379 -165 OFFCURVE",
"466 -106 OFFCURVE",
"485 16 CURVE SMOOTH",
"578 604 LINE"
);
},
{
closed = 1;
nodes = (
"271 0 LINE",
"276 37 LINE",
"244 41 OFFCURVE",
"213 47 OFFCURVE",
"186 63 CURVE",
"272 604 LINE",
"300 620 OFFCURVE",
"325 626 OFFCURVE",
"357 630 CURVE",
"362 667 LINE",
"103 667 LINE",
"98 630 LINE",
"131 626 OFFCURVE",
"159 619 OFFCURVE",
"184 604 CURVE",
"98 63 LINE",
"70 46 OFFCURVE",
"44 41 OFFCURVE",
"12 37 CURVE",
"7 0 LINE"
);
}
);
};
layerId = "CF479DE4-94A2-4865-8D1E-65EA355866D4";
paths = (
{
closed = 1;
nodes = (
"605 620 OFFCURVE",
"630 626 OFFCURVE",
"662 630 CURVE",
"668 667 LINE",
"408 667 LINE",
"403 630 LINE",
"436 626 OFFCURVE",
"465 619 OFFCURVE",
"490 604 CURVE",
"394 1 LINE SMOOTH",
"378 -96 OFFCURVE",
"315 -139 OFFCURVE",
"252 -165 CURVE",
"258 -195 LINE",
"379 -165 OFFCURVE",
"466 -106 OFFCURVE",
"485 16 CURVE SMOOTH",
"578 604 LINE"
);
},
{
closed = 1;
nodes = (
"271 0 LINE",
"276 37 LINE",
"244 41 OFFCURVE",
"213 47 OFFCURVE",
"186 63 CURVE",
"272 604 LINE",
"300 620 OFFCURVE",
"325 626 OFFCURVE",
"357 630 CURVE",
"362 667 LINE",
"103 667 LINE",
"98 630 LINE",
"131 626 OFFCURVE",
"159 619 OFFCURVE",
"184 604 CURVE",
"98 63 LINE",
"70 46 OFFCURVE",
"44 41 OFFCURVE",
"12 37 CURVE",
"7 0 LINE"
);
}
);
width = 620;
},
{
layerId = "0FAD76F5-9F58-4721-BF81-08BC6166EF10";
paths = (
{
closed = 1;
nodes = (
"117 622 OFFCURVE",
"144 610 OFFCURVE",
"155 596 CURVE",
"72 71 LINE",
"51 55 OFFCURVE",
"33 46 OFFCURVE",
"0 41 CURVE",
"-5 0 LINE",
"281 0 LINE",
"286 41 LINE",
"254 48 OFFCURVE",
"232 57 OFFCURVE",
"219 71 CURVE",
"302 596 LINE",
"325 613 OFFCURVE",
"342 620 OFFCURVE",
"375 626 CURVE",
"381 667 LINE",
"95 667 LINE",
"89 626 LINE"
);
},
{
closed = 1;
nodes = (
"456 622 OFFCURVE",
"483 610 OFFCURVE",
"494 596 CURVE",
"400 1 LINE SMOOTH",
"385 -95 OFFCURVE",
"326 -137 OFFCURVE",
"272 -163 CURVE",
"284 -218 LINE",
"428 -183 OFFCURVE",
"529 -119 OFFCURVE",
"550 16 CURVE SMOOTH",
"641 596 LINE",
"664 613 OFFCURVE",
"681 620 OFFCURVE",
"714 626 CURVE",
"720 667 LINE",
"434 667 LINE",
"428 626 LINE"
);
}
);
width = 674;
}
);
unicode = 0132;
},
{
color = 4;
glyphname = Iogonek;
lastChange = "2019-11-29 23:31:53 +0000";
layers = (
{
background = {
paths = (
{
closed = 1;
nodes = (
"262 37 LINE",
"230 41 OFFCURVE",
"199 47 OFFCURVE",
"172 63 CURVE",
"258 604 LINE",
"286 620 OFFCURVE",
"311 626 OFFCURVE",
"343 630 CURVE",
"348 667 LINE",
"89 667 LINE",
"84 630 LINE",
"117 626 OFFCURVE",
"145 619 OFFCURVE",
"170 604 CURVE",
"82 52 LINE SMOOTH",
"69 -28 OFFCURVE",
"-23 -64 OFFCURVE",
"-23 -146 CURVE SMOOTH",
"-23 -186 OFFCURVE",
"-2 -204 OFFCURVE",
"35 -204 CURVE SMOOTH",
"74 -204 OFFCURVE",
"111 -186 OFFCURVE",
"139 -165 CURVE",
"122 -137 LINE",
"103 -147 OFFCURVE",
"77 -154 OFFCURVE",
"64 -154 CURVE SMOOTH",
"47 -154 OFFCURVE",
"38 -143 OFFCURVE",
"38 -126 CURVE SMOOTH",
"38 -69 OFFCURVE",
"107 -3 OFFCURVE",
"154 0 CURVE",
"257 0 LINE"
);
},
{
closed = 1;
nodes = (
"257 0 LINE",
"262 37 LINE",
"230 41 OFFCURVE",
"199 47 OFFCURVE",
"172 63 CURVE",
"258 604 LINE",
"286 620 OFFCURVE",
"311 626 OFFCURVE",
"343 630 CURVE",
"348 667 LINE",
"89 667 LINE",
"84 630 LINE",
"117 626 OFFCURVE",
"145 619 OFFCURVE",
"170 604 CURVE",
"84 63 LINE",
"56 46 OFFCURVE",
"30 41 OFFCURVE",
"-2 37 CURVE",
"-7 0 LINE"
);
},
{
closed = 1;
nodes = (
"61 -8 OFFCURVE",
"44 -28 OFFCURVE",
"24 -49 CURVE SMOOTH",
"5 -70 OFFCURVE",
"-24 -102 OFFCURVE",
"-24 -142 CURVE SMOOTH",
"-24 -180 OFFCURVE",
"6 -204 OFFCURVE",
"46 -204 CURVE SMOOTH",
"74 -204 OFFCURVE",
"109 -190 OFFCURVE",
"135 -166 CURVE",
"120 -136 LINE",
"102 -147 OFFCURVE",
"87 -155 OFFCURVE",
"70 -155 CURVE SMOOTH",
"51 -155 OFFCURVE",
"38 -143 OFFCURVE",
"38 -120 CURVE SMOOTH",
"38 -98 OFFCURVE",
"53 -72 OFFCURVE",
"72 -51 CURVE SMOOTH",
"91 -30 OFFCURVE",
"126 -2 OFFCURVE",
"152 0 CURVE",
"121 25 LINE",
"74 16 LINE"
);
}
);
};
layerId = "CF479DE4-94A2-4865-8D1E-65EA355866D4";
paths = (
{
closed = 1;
nodes = (
"262 37 LINE",
"230 41 OFFCURVE",
"199 47 OFFCURVE",
"172 63 CURVE",
"258 604 LINE",
"286 620 OFFCURVE",
"311 626 OFFCURVE",
"343 630 CURVE",
"348 667 LINE",
"89 667 LINE",
"84 630 LINE",
"117 626 OFFCURVE",
"145 619 OFFCURVE",
"170 604 CURVE",
"84 63 LINE SMOOTH",
"76 15 OFFCURVE",
"64 -1 OFFCURVE",
"31 -39 CURVE SMOOTH",
"2 -72 OFFCURVE",
"-24 -102 OFFCURVE",
"-24 -142 CURVE SMOOTH",
"-24 -180 OFFCURVE",
"6 -204 OFFCURVE",
"46 -204 CURVE SMOOTH",
"74 -204 OFFCURVE",
"109 -190 OFFCURVE",
"135 -166 CURVE",
"120 -136 LINE",
"102 -147 OFFCURVE",
"87 -155 OFFCURVE",
"70 -155 CURVE SMOOTH",
"51 -155 OFFCURVE",
"38 -143 OFFCURVE",
"38 -120 CURVE SMOOTH",
"38 -98 OFFCURVE",
"53 -72 OFFCURVE",
"72 -51 CURVE SMOOTH",
"91 -30 OFFCURVE",
"126 -2 OFFCURVE",
"152 0 CURVE",
"257 0 LINE"
);
}
);
width = 320;
},
{
background = {
paths = (
{
closed = 1;
nodes = (
"89 626 LINE",
"117 622 OFFCURVE",
"144 610 OFFCURVE",
"155 596 CURVE",
"72 71 LINE",
"51 55 OFFCURVE",
"33 46 OFFCURVE",
"0 41 CURVE",
"-5 0 LINE",
"281 0 LINE",
"286 41 LINE",
"254 48 OFFCURVE",
"232 57 OFFCURVE",
"219 71 CURVE",
"302 596 LINE",
"325 613 OFFCURVE",
"342 620 OFFCURVE",
"375 626 CURVE",
"381 667 LINE",
"95 667 LINE"
);
},
{
closed = 1;
nodes = (
"119 8 LINE",
"73 -35 OFFCURVE",
"3 -78 OFFCURVE",
"3 -132 CURVE SMOOTH",
"3 -178 OFFCURVE",
"40 -204 OFFCURVE",
"85 -204 CURVE SMOOTH",
"124 -204 OFFCURVE",
"166 -188 OFFCURVE",
"197 -157 CURVE",
"177 -122 LINE",
"163 -132 OFFCURVE",
"140 -144 OFFCURVE",
"123 -144 CURVE SMOOTH",
"110 -144 OFFCURVE",
"100 -136 OFFCURVE",
"100 -115 CURVE SMOOTH",
"100 -75 OFFCURVE",
"136 -20 OFFCURVE",
"200 0 CURVE"
);
},
{
closed = 1;
nodes = (
"64 29 LINE SMOOTH",
"53 -41 OFFCURVE",
"-41 -64 OFFCURVE",
"-41 -132 CURVE SMOOTH",
"-41 -178 OFFCURVE",
"-4 -204 OFFCURVE",
"41 -204 CURVE SMOOTH",
"80 -204 OFFCURVE",
"122 -188 OFFCURVE",
"153 -157 CURVE",
"133 -122 LINE",
"119 -132 OFFCURVE",
"96 -144 OFFCURVE",
"79 -144 CURVE SMOOTH",
"66 -144 OFFCURVE",
"56 -136 OFFCURVE",
"56 -115 CURVE SMOOTH",
"56 -76 OFFCURVE",
"93 -3 OFFCURVE",
"198 0 CURVE",
"281 0 LINE",
"286 41 LINE",
"254 48 OFFCURVE",
"232 57 OFFCURVE",
"219 71 CURVE",
"302 596 LINE",
"325 613 OFFCURVE",
"342 620 OFFCURVE",
"375 626 CURVE",
"381 667 LINE",
"95 667 LINE",
"89 626 LINE",
"117 622 OFFCURVE",
"144 610 OFFCURVE",
"155 596 CURVE"
);
},
{
closed = 1;
nodes = (
"281 0 LINE",
"286 41 LINE",
"254 48 OFFCURVE",
"232 57 OFFCURVE",
"219 71 CURVE",
"302 596 LINE",
"325 613 OFFCURVE",
"342 620 OFFCURVE",
"375 626 CURVE",
"381 667 LINE",
"95 667 LINE",
"89 626 LINE",
"117 622 OFFCURVE",
"144 610 OFFCURVE",
"155 596 CURVE",
"72 71 LINE",
"51 55 OFFCURVE",
"33 46 OFFCURVE",
"0 41 CURVE",
"-5 0 LINE"
);
},
{
closed = 1;
nodes = (
"61 1 OFFCURVE",
"38 -23 OFFCURVE",
"14 -47 CURVE SMOOTH",
"-15 -75 OFFCURVE",
"-35 -101 OFFCURVE",
"-35 -135 CURVE SMOOTH",
"-35 -177 OFFCURVE",
"-2 -204 OFFCURVE",
"44 -204 CURVE SMOOTH",
"79 -204 OFFCURVE",
"128 -187 OFFCURVE",
"157 -156 CURVE",
"134 -121 LINE",
"120 -133 OFFCURVE",
"101 -145 OFFCURVE",
"83 -145 CURVE SMOOTH",
"66 -145 OFFCURVE",
"54 -134 OFFCURVE",
"54 -112 CURVE SMOOTH",
"54 -66 OFFCURVE",
"113 0 OFFCURVE",
"176 0 CURVE",
"152 24 LINE",
"68 24 LINE"
);
}
);
};
layerId = "0FAD76F5-9F58-4721-BF81-08BC6166EF10";
paths = (
{
closed = 1;
nodes = (
"286 41 LINE",
"254 48 OFFCURVE",
"232 57 OFFCURVE",
"219 71 CURVE",
"302 596 LINE",
"325 613 OFFCURVE",
"342 620 OFFCURVE",
"375 626 CURVE",
"381 667 LINE",
"95 667 LINE",
"89 626 LINE",
"117 622 OFFCURVE",
"144 610 OFFCURVE",
"155 596 CURVE",
"67 46 LINE SMOOTH",
"60 1 OFFCURVE",
"42 -19 OFFCURVE",
"14 -47 CURVE SMOOTH",
"-16 -77 OFFCURVE",
"-35 -101 OFFCURVE",
"-35 -135 CURVE SMOOTH",
"-35 -177 OFFCURVE",
"-2 -204 OFFCURVE",
"44 -204 CURVE SMOOTH",
"79 -204 OFFCURVE",
"128 -187 OFFCURVE",
"157 -156 CURVE",
"134 -121 LINE",
"120 -133 OFFCURVE",
"101 -145 OFFCURVE",
"83 -145 CURVE SMOOTH",
"66 -145 OFFCURVE",
"54 -134 OFFCURVE",
"54 -112 CURVE SMOOTH",
"54 -89 OFFCURVE",
"70 -60 OFFCURVE",
"96 -37 CURVE SMOOTH",
"120 -16 OFFCURVE",
"152 0 OFFCURVE",
"188 0 CURVE SMOOTH",
"281 0 LINE"
);
}
);
width = 345;
}
);
leftKerningGroup = H;
rightKerningGroup = H;
unicode = 012E;
},
{
color = 4;
glyphname = J;
lastChange = "2019-11-22 04:31:07 +0000";
layers = (
{
anchors = (
{
name = top;
position = "{232, 667}";
}
);
background = {
anchors = (
{
name = top;
position = "{242, 705}";
}
);
paths = (
{
closed = 1;
nodes = (
"299 620 OFFCURVE",
"324 626 OFFCURVE",
"356 630 CURVE",
"362 667 LINE",
"102 667 LINE",
"97 630 LINE",
"130 626 OFFCURVE",
"159 619 OFFCURVE",
"184 604 CURVE",
"88 1 LINE SMOOTH",
"73 -96 OFFCURVE",
"9 -139 OFFCURVE",
"-54 -165 CURVE",
"-48 -195 LINE",
"73 -165 OFFCURVE",
"160 -106 OFFCURVE",
"179 16 CURVE SMOOTH",
"272 604 LINE"
);
}
);
};
layerId = "CF479DE4-94A2-4865-8D1E-65EA355866D4";
paths = (
{
closed = 1;
nodes = (
"73 -165 OFFCURVE",
"160 -106 OFFCURVE",
"179 16 CURVE SMOOTH",
"272 604 LINE",
"299 620 OFFCURVE",
"324 626 OFFCURVE",
"356 630 CURVE",
"362 667 LINE",
"102 667 LINE",
"97 630 LINE",
"130 626 OFFCURVE",
"159 619 OFFCURVE",
"184 604 CURVE",
"88 1 LINE SMOOTH",
"73 -96 OFFCURVE",
"9 -139 OFFCURVE",
"-54 -165 CURVE",
"-48 -195 LINE"
);
}
);
width = 299;
},
{
anchors = (
{
name = top;
position = "{236, 667}";
}
);
layerId = "0FAD76F5-9F58-4721-BF81-08BC6166EF10";
paths = (
{
closed = 1;
nodes = (
"87 -183 OFFCURVE",
"188 -119 OFFCURVE",
"209 16 CURVE SMOOTH",
"300 596 LINE",
"323 613 OFFCURVE",
"340 620 OFFCURVE",
"373 626 CURVE",
"379 667 LINE",
"93 667 LINE",
"87 626 LINE",
"115 622 OFFCURVE",
"142 610 OFFCURVE",
"153 596 CURVE",
"59 1 LINE SMOOTH",
"44 -95 OFFCURVE",
"-15 -137 OFFCURVE",
"-69 -163 CURVE",
"-57 -218 LINE"
);
}
);
width = 333;
}
);
unicode = 004A;
},
{
color = 4;
glyphname = K;
lastChange = "2019-11-22 04:32:00 +0000";
layers = (
{
anchors = (
{
name = bottom;
position = "{323, 0}";
}
);
background = {
anchors = (
{
name = bottom;
position = "{321, 0}";
},
{
name = cedilla;
position = "{287, 0}";
},
{
name = top;
position = "{388, 705}";
}
);
paths = (
{
closed = 1;
nodes = (
"280 0 LINE",
"284 37 LINE",
"252 41 OFFCURVE",
"222 47 OFFCURVE",
"194 63 CURVE",
"282 612 LINE",
"304 622 OFFCURVE",
"324 627 OFFCURVE",
"351 630 CURVE",
"356 667 LINE",
"111 667 LINE",
"106 630 LINE",
"139 626 OFFCURVE",
"168 619 OFFCURVE",
"192 604 CURVE",
"105 63 LINE",
"78 46 OFFCURVE",
"53 41 OFFCURVE",
"21 37 CURVE",
"15 0 LINE"
);
},
{
closed = 1;
nodes = (
"379 66 LINE SMOOTH",
"403 17 OFFCURVE",
"417 0 OFFCURVE",
"465 0 CURVE SMOOTH",
"558 0 LINE",
"569 38 LINE",
"518 44 OFFCURVE",
"490 58 OFFCURVE",
"478 83 CURVE SMOOTH",
"332 369 LINE",
"553 608 LINE",
"579 627 OFFCURVE",
"609 630 OFFCURVE",
"633 630 CURVE",
"637 667 LINE",
"419 667 LINE",
"414 630 LINE",
"448 629 OFFCURVE",
"463 620 OFFCURVE",
"463 602 CURVE SMOOTH",
"463 596 OFFCURVE",
"461 590 OFFCURVE",
"451 579 CURVE SMOOTH",
"242 347 LINE"
);
},
{
closed = 1;
nodes = (
"558 0 LINE",
"569 38 LINE",
"518 44 OFFCURVE",
"490 58 OFFCURVE",
"478 83 CURVE SMOOTH",
"332 369 LINE",
"553 608 LINE",
"579 627 OFFCURVE",
"609 630 OFFCURVE",
"633 630 CURVE",
"637 667 LINE",
"419 667 LINE",
"414 630 LINE",
"448 629 OFFCURVE",
"463 620 OFFCURVE",
"463 602 CURVE SMOOTH",
"463 596 OFFCURVE",
"461 590 OFFCURVE",
"451 579 CURVE SMOOTH",
"242 347 LINE",
"379 66 LINE SMOOTH",
"403 17 OFFCURVE",
"417 0 OFFCURVE",
"465 0 CURVE SMOOTH"
);
},
{
closed = 1;
nodes = (
"280 0 LINE",
"284 37 LINE",
"252 41 OFFCURVE",
"222 47 OFFCURVE",
"194 63 CURVE",
"282 612 LINE",
"304 622 OFFCURVE",
"324 627 OFFCURVE",
"351 630 CURVE",
"356 667 LINE",
"111 667 LINE",
"106 630 LINE",
"139 626 OFFCURVE",
"168 619 OFFCURVE",
"192 604 CURVE",
"105 63 LINE",
"78 46 OFFCURVE",
"53 41 OFFCURVE",
"21 37 CURVE",
"15 0 LINE"
);
}
);
};
layerId = "CF479DE4-94A2-4865-8D1E-65EA355866D4";
paths = (
{
closed = 1;
nodes = (
"558 0 LINE",
"569 38 LINE",
"518 44 OFFCURVE",
"490 58 OFFCURVE",
"478 83 CURVE SMOOTH",
"332 369 LINE",
"546 600 LINE SMOOTH",
"567 623 OFFCURVE",
"591 628 OFFCURVE",
"633 630 CURVE",
"637 667 LINE",
"419 667 LINE",
"414 630 LINE",
"448 629 OFFCURVE",
"463 620 OFFCURVE",
"463 602 CURVE SMOOTH",
"463 596 OFFCURVE",
"461 590 OFFCURVE",
"451 579 CURVE SMOOTH",
"242 347 LINE",
"383 58 LINE SMOOTH",
"406 10 OFFCURVE",
"426 0 OFFCURVE",
"465 0 CURVE SMOOTH"
);
},
{
closed = 1;
nodes = (
"280 0 LINE",
"284 37 LINE",
"252 41 OFFCURVE",
"222 47 OFFCURVE",
"194 63 CURVE",
"282 612 LINE",
"304 622 OFFCURVE",
"324 627 OFFCURVE",
"351 630 CURVE",
"356 667 LINE",
"111 667 LINE",
"106 630 LINE",
"139 626 OFFCURVE",
"168 619 OFFCURVE",
"192 604 CURVE",
"105 63 LINE",
"78 46 OFFCURVE",
"53 41 OFFCURVE",
"21 37 CURVE",
"15 0 LINE"
);
}
);
width = 603;
},
{
anchors = (
{
name = bottom;
position = "{317, 0}";
}
);
layerId = "0FAD76F5-9F58-4721-BF81-08BC6166EF10";
paths = (
{
closed = 1;
nodes = (
"619 0 LINE",
"624 41 LINE",
"589 48 OFFCURVE",
"570 59 OFFCURVE",
"552 76 CURVE",
"425 391 LINE",
"613 589 LINE SMOOTH",
"645 622 OFFCURVE",
"686 625 OFFCURVE",
"706 626 CURVE",
"712 667 LINE",
"474 667 LINE",
"469 626 LINE",
"495 626 OFFCURVE",
"517 620 OFFCURVE",
"517 603 CURVE SMOOTH",
"517 597 OFFCURVE",
"513 589 OFFCURVE",
"505 581 CURVE SMOOTH",
"272 341 LINE",
"382 58 LINE",
"392 38 OFFCURVE",
"411 0 OFFCURVE",
"462 0 CURVE SMOOTH"
);
},
{
closed = 1;
nodes = (
"277 0 LINE",
"282 41 LINE",
"250 48 OFFCURVE",
"228 57 OFFCURVE",
"215 71 CURVE",
"298 596 LINE",
"321 613 OFFCURVE",
"338 620 OFFCURVE",
"371 626 CURVE",
"377 667 LINE",
"91 667 LINE",
"85 626 LINE",
"113 622 OFFCURVE",
"140 610 OFFCURVE",
"151 596 CURVE",
"68 71 LINE",
"47 55 OFFCURVE",
"29 46 OFFCURVE",
"-4 41 CURVE",
"-9 0 LINE"
);
}
);
width = 655;
}
);
unicode = 004B;
},
{
color = 4;
glyphname = L;
lastChange = "2019-11-22 04:37:34 +0000";
layers = (
{
anchors = (
{
name = bottom;
position = "{250, 0}";
},
{
name = top;
position = "{260, 667}";
}
);
background = {
anchors = (
{
name = bottom;
position = "{285, 0}";
},
{
name = cedilla;
position = "{241, 0}";
},
{
name = top;
position = "{267, 705}";
}
);
paths = (
{
closed = 1;
nodes = (
"89 46 OFFCURVE",
"64 41 OFFCURVE",
"32 37 CURVE",
"26 0 LINE",
"438 0 LINE",
"475 169 LINE",
"467 170 OFFCURVE",
"460 171 OFFCURVE",
"454 171 CURVE SMOOTH",
"447 171 OFFCURVE",
"440 170 OFFCURVE",
"434 169 CURVE",
"422 136 OFFCURVE",
"404 92 OFFCURVE",
"374 57 CURVE",
"277 57 LINE SMOOTH",
"227 57 OFFCURVE",
"210 64 OFFCURVE",
"210 88 CURVE SMOOTH",
"210 91 OFFCURVE",
"212 104 OFFCURVE",
"214 115 CURVE SMOOTH",
"292 604 LINE",
"319 620 OFFCURVE",
"354 626 OFFCURVE",
"387 630 CURVE",
"392 667 LINE",
"123 667 LINE",
"118 630 LINE",
"150 626 OFFCURVE",
"179 619 OFFCURVE",
"204 604 CURVE",
"117 63 LINE"
);
},
{
closed = 1;
nodes = (
"438 0 LINE",
"475 169 LINE",
"467 170 OFFCURVE",
"460 171 OFFCURVE",
"454 171 CURVE SMOOTH",
"447 171 OFFCURVE",
"440 170 OFFCURVE",
"434 169 CURVE",
"422 136 OFFCURVE",
"404 92 OFFCURVE",
"374 57 CURVE",
"277 57 LINE SMOOTH",
"227 57 OFFCURVE",
"210 64 OFFCURVE",
"210 86 CURVE SMOOTH",
"210 96 OFFCURVE",
"212 103 OFFCURVE",
"214 116 CURVE SMOOTH",
"292 604 LINE",
"319 620 OFFCURVE",
"354 626 OFFCURVE",
"387 630 CURVE",
"392 667 LINE",
"123 667 LINE",
"118 630 LINE",
"150 626 OFFCURVE",
"179 619 OFFCURVE",
"204 604 CURVE",
"117 63 LINE",
"89 46 OFFCURVE",
"64 41 OFFCURVE",
"32 37 CURVE",
"26 0 LINE"
);
}
);
};
guideLines = (
{
angle = 81;
position = "{217, 132}";
},
{
position = "{277, 57}";
}
);
layerId = "CF479DE4-94A2-4865-8D1E-65EA355866D4";
paths = (
{
closed = 1;
nodes = (
"438 0 LINE",
"475 169 LINE",
"467 170 OFFCURVE",
"460 171 OFFCURVE",
"454 171 CURVE SMOOTH",
"447 171 OFFCURVE",
"440 170 OFFCURVE",
"434 169 CURVE",
"422 136 OFFCURVE",
"404 92 OFFCURVE",
"374 57 CURVE",
"277 57 LINE SMOOTH",
"218 57 OFFCURVE",
"207 66 OFFCURVE",
"211 96 CURVE SMOOTH",
"292 604 LINE",
"319 620 OFFCURVE",
"354 626 OFFCURVE",
"387 630 CURVE",
"392 667 LINE",
"123 667 LINE",
"118 630 LINE",
"150 626 OFFCURVE",
"179 619 OFFCURVE",
"204 604 CURVE",
"117 63 LINE",
"89 46 OFFCURVE",
"64 41 OFFCURVE",
"32 37 CURVE",
"26 0 LINE"
);
}
);
width = 523;
},
{
anchors = (
{
name = bottom;
position = "{275, 0}";
},
{
name = top;
position = "{263, 705}";
}
);
background = {
paths = (
{
closed = 1;
nodes = (
"465 0 LINE",
"505 188 LINE",
"498 190 OFFCURVE",
"490 191 OFFCURVE",
"483 191 CURVE SMOOTH",
"464 191 OFFCURVE",
"451 188 OFFCURVE",
"437 184 CURVE",
"426 153 OFFCURVE",
"405 101 OFFCURVE",
"374 62 CURVE",
"227 62 LINE",
"312 596 LINE",
"335 613 OFFCURVE",
"362 620 OFFCURVE",
"395 626 CURVE",
"401 667 LINE",
"105 667 LINE",
"99 626 LINE",
"127 622 OFFCURVE",
"154 610 OFFCURVE",
"165 596 CURVE",
"82 71 LINE",
"61 55 OFFCURVE",
"43 46 OFFCURVE",
"10 41 CURVE",
"5 0 LINE"
);
}
);
};
layerId = "0FAD76F5-9F58-4721-BF81-08BC6166EF10";
paths = (
{
closed = 1;
nodes = (
"465 0 LINE",
"505 188 LINE",
"498 190 OFFCURVE",
"490 191 OFFCURVE",
"483 191 CURVE SMOOTH",
"464 191 OFFCURVE",
"451 188 OFFCURVE",
"437 184 CURVE",
"426 153 OFFCURVE",
"405 101 OFFCURVE",
"374 62 CURVE",
"274 62 LINE SMOOTH",
"235 62 OFFCURVE",
"229 75 OFFCURVE",
"232 96 CURVE SMOOTH",
"312 596 LINE",
"335 613 OFFCURVE",
"362 620 OFFCURVE",
"395 626 CURVE",
"401 667 LINE",
"105 667 LINE",
"99 626 LINE",
"127 622 OFFCURVE",
"154 610 OFFCURVE",
"165 596 CURVE",
"82 71 LINE",
"61 55 OFFCURVE",
"43 46 OFFCURVE",
"10 41 CURVE",
"5 0 LINE"
);
}
);
width = 531;
}
);
unicode = 004C;
},
{
color = 4;
glyphname = Lcaron;
lastChange = "2019-11-29 22:26:32 +0000";
layers = (
{
background = {
components = (
{
name = L;
},
{
name = commaaccent;
transform = "{1, 0, 0, 1, 373, 708}";
}
);
paths = (
{
closed = 1;
nodes = (
"65 46 OFFCURVE",
"40 41 OFFCURVE",
"8 37 CURVE",
"2 0 LINE",
"414 0 LINE",
"451 169 LINE",
"443 170 OFFCURVE",
"436 171 OFFCURVE",
"430 171 CURVE SMOOTH",
"423 171 OFFCURVE",
"416 170 OFFCURVE",
"410 169 CURVE",
"398 136 OFFCURVE",
"380 92 OFFCURVE",
"350 57 CURVE",
"253 57 LINE SMOOTH",
"203 57 OFFCURVE",
"186 64 OFFCURVE",
"186 88 CURVE SMOOTH",
"186 91 OFFCURVE",
"188 104 OFFCURVE",
"190 115 CURVE SMOOTH",
"268 604 LINE",
"295 620 OFFCURVE",
"330 626 OFFCURVE",
"363 630 CURVE",
"368 667 LINE",
"99 667 LINE",
"94 630 LINE",
"126 626 OFFCURVE",
"155 619 OFFCURVE",
"180 604 CURVE",
"93 63 LINE"
);
},
{
closed = 1;
nodes = (
"472 540 OFFCURVE",
"509 595 OFFCURVE",
"509 631 CURVE SMOOTH",
"509 655 OFFCURVE",
"492 671 OFFCURVE",
"463 671 CURVE SMOOTH",
"450 671 OFFCURVE",
"432 665 OFFCURVE",
"419 649 CURVE",
"430 639 OFFCURVE",
"435 628 OFFCURVE",
"435 612 CURVE SMOOTH",
"435 591 OFFCURVE",
"426 555 OFFCURVE",
"401 510 CURVE",
"435 497 LINE"
);
}
);
};
components = (
{
name = L;
},
{
name = caron.alt;
transform = "{1, 0, 0, 1, 350, -7}";
}
);
layerId = "CF479DE4-94A2-4865-8D1E-65EA355866D4";
width = 474;
},
{
background = {
paths = (
{
closed = 1;
nodes = (
"117 622 OFFCURVE",
"144 610 OFFCURVE",
"155 596 CURVE",
"72 71 LINE",
"51 55 OFFCURVE",
"33 46 OFFCURVE",
"0 41 CURVE",
"-5 0 LINE",
"455 0 LINE",
"495 188 LINE",
"488 190 OFFCURVE",
"480 191 OFFCURVE",
"473 191 CURVE SMOOTH",
"454 191 OFFCURVE",
"441 188 OFFCURVE",
"427 184 CURVE",
"416 153 OFFCURVE",
"395 101 OFFCURVE",
"364 62 CURVE",
"217 62 LINE",
"302 596 LINE",
"325 613 OFFCURVE",
"352 620 OFFCURVE",
"385 626 CURVE",
"391 667 LINE",
"95 667 LINE",
"89 626 LINE"
);
},
{
closed = 1;
nodes = (
"512 535 OFFCURVE",
"549 594 OFFCURVE",
"549 629 CURVE SMOOTH",
"549 655 OFFCURVE",
"528 672 OFFCURVE",
"496 672 CURVE SMOOTH",
"475 672 OFFCURVE",
"449 661 OFFCURVE",
"436 646 CURVE",
"448 635 OFFCURVE",
"453 623 OFFCURVE",
"453 607 CURVE SMOOTH",
"453 582 OFFCURVE",
"440 543 OFFCURVE",
"419 503 CURVE",
"464 483 LINE"
);
}
);
};
components = (
{
name = L;
},
{
name = caron.alt;
transform = "{1, 0, 0, 1, 373, -4}";
}
);
layerId = "0FAD76F5-9F58-4721-BF81-08BC6166EF10";
width = 516;
}
);
leftKerningGroup = H;
unicode = 013D;
},
{
color = 4;
glyphname = Lslash;
lastChange = "2019-11-27 00:16:45 +0000";
layers = (
{
background = {
components = (
{
name = L;
}
);
paths = (
{
closed = 1;
nodes = (
"410 409 LINE",
"390 455 LINE",
"32 266 LINE",
"52 220 LINE"
);
}
);
};
components = (
{
name = L;
}
);
layerId = "CF479DE4-94A2-4865-8D1E-65EA355866D4";
paths = (
{
closed = 1;
nodes = (
"410 409 LINE",
"390 455 LINE",
"32 266 LINE",
"52 220 LINE"
);
}
);
width = 526;
},
{
background = {
paths = (
{
closed = 1;
nodes = (
"90 626 LINE",
"118 622 OFFCURVE",
"145 610 OFFCURVE",
"156 596 CURVE",
"116 345 LINE",
"-13 278 LINE",
"25 208 LINE",
"101 247 LINE",
"73 71 LINE",
"52 55 OFFCURVE",
"34 46 OFFCURVE",
"1 41 CURVE",
"-4 0 LINE",
"456 0 LINE",
"496 188 LINE",
"489 190 OFFCURVE",
"481 191 OFFCURVE",
"474 191 CURVE SMOOTH",
"455 191 OFFCURVE",
"442 188 OFFCURVE",
"428 184 CURVE",
"417 153 OFFCURVE",
"396 101 OFFCURVE",
"365 62 CURVE",
"218 62 LINE",
"261 331 LINE",
"394 401 LINE",
"356 471 LINE",
"276 429 LINE",
"303 596 LINE",
"326 613 OFFCURVE",
"353 620 OFFCURVE",
"386 626 CURVE",
"392 667 LINE",
"96 667 LINE"
);
},
{
closed = 1;
nodes = (
"25 216 LINE",
"385 403 LINE",
"362 458 LINE",
"1 272 LINE"
);
}
);
};
components = (
{
name = L;
transform = "{1, 0, 0, 1, -10, 0}";
}
);
layerId = "0FAD76F5-9F58-4721-BF81-08BC6166EF10";
paths = (
{
closed = 1;
nodes = (
"385 401 LINE",
"362 460 LINE",
"1 274 LINE",
"25 214 LINE"
);
}
);
width = 531;
}
);
leftKerningGroup = H;
rightKerningGroup = L;
unicode = 0141;
},
{
glyphname = M;
lastChange = "2019-11-22 04:38:10 +0000";
layers = (
{
anchors = (
{
name = bottom;
position = "{359.017, 0}";
},
{
name = top;
position = "{464.66, 667}";
}
);
background = {
anchors = (
{
name = top;
position = "{469, 705}";
}
);
paths = (
{
closed = 1;
nodes = (
"653 512 LINE",
"575 63 LINE",
"547 46 OFFCURVE",
"522 41 OFFCURVE",
"490 37 CURVE",
"485 0 LINE",
"749 0 LINE",
"753 37 LINE",
"721 41 OFFCURVE",
"691 47 OFFCURVE",
"663 63 CURVE",
"749 604 LINE",
"777 620 OFFCURVE",
"802 626 OFFCURVE",
"834 630 CURVE",
"839 667 LINE",
"678 667 LINE",
"376 116 LINE",
"249 667 LINE",
"76 667 LINE",
"71 630 LINE",
"104 626 OFFCURVE",
"131 619 OFFCURVE",
"156 604 CURVE",
"70 63 LINE",
"42 46 OFFCURVE",
"18 41 OFFCURVE",
"-15 37 CURVE",
"-20 0 LINE",
"220 0 LINE",
"224 37 LINE",
"192 41 OFFCURVE",
"162 47 OFFCURVE",
"134 63 CURVE",
"198 512 LINE",
"318 0 LINE",
"372 0 LINE"
);
}
);
};
layerId = "CF479DE4-94A2-4865-8D1E-65EA355866D4";
paths = (
{
closed = 1;
nodes = (
"220 0 LINE",
"224 37 LINE",
"192 41 OFFCURVE",
"162 47 OFFCURVE",
"134 63 CURVE",
"198 512 LINE",
"318 0 LINE",
"372 0 LINE",
"653 512 LINE",
"575 63 LINE",
"547 46 OFFCURVE",
"522 41 OFFCURVE",
"490 37 CURVE",
"485 0 LINE",
"749 0 LINE",
"753 37 LINE",
"721 41 OFFCURVE",
"691 47 OFFCURVE",
"663 63 CURVE",
"749 604 LINE",
"777 620 OFFCURVE",
"802 626 OFFCURVE",
"834 630 CURVE",
"839 667 LINE",
"678 667 LINE",
"376 116 LINE",
"249 667 LINE",
"76 667 LINE",
"71 630 LINE",
"104 626 OFFCURVE",
"131 619 OFFCURVE",
"156 604 CURVE",
"70 63 LINE",
"42 46 OFFCURVE",
"18 41 OFFCURVE",
"-15 37 CURVE",
"-20 0 LINE"
);
}
);
width = 792;
},
{
anchors = (
{
name = bottom;
position = "{370.671, 0}";
},
{
name = top;
position = "{476.313, 667}";
}
);
layerId = "0FAD76F5-9F58-4721-BF81-08BC6166EF10";
paths = (
{
closed = 1;
nodes = (
"226 0 LINE",
"231 41 LINE",
"199 48 OFFCURVE",
"177 57 OFFCURVE",
"164 71 CURVE",
"229 484 LINE",
"322 0 LINE",
"399 0 LINE",
"628 484 LINE",
"563 71 LINE",
"542 55 OFFCURVE",
"524 46 OFFCURVE",
"491 41 CURVE",
"486 0 LINE",
"768 0 LINE",
"773 41 LINE",
"741 48 OFFCURVE",
"719 57 OFFCURVE",
"706 71 CURVE",
"789 596 LINE",
"812 613 OFFCURVE",
"829 620 OFFCURVE",
"862 626 CURVE",
"868 667 LINE",
"632 667 LINE",
"422 217 LINE",
"341 667 LINE",
"100 667 LINE",
"94 626 LINE",
"122 622 OFFCURVE",
"149 610 OFFCURVE",
"160 596 CURVE",
"77 71 LINE",
"56 55 OFFCURVE",
"38 46 OFFCURVE",
"5 41 CURVE",
"0 0 LINE"
);
}
);
width = 818;
}
);
unicode = 004D;
},
{
color = 4;
glyphname = N;
lastChange = "2019-11-22 04:39:22 +0000";
layers = (
{
anchors = (
{
name = bottom;
position = "{345, 0}";
},
{
name = top;
position = "{396, 667}";
}
);
background = {
anchors = (
{
name = bottom;
position = "{345, 0}";
},
{
name = cedilla;
position = "{297, 0}";
},
{
name = top;
position = "{394, 705}";
}
);
paths = (
{
closed = 1;
nodes = (
"97 667 LINE",
"92 630 LINE",
"124 626 OFFCURVE",
"152 619 OFFCURVE",
"177 604 CURVE",
"90 62 LINE",
"62 46 OFFCURVE",
"38 41 OFFCURVE",
"6 37 CURVE",
"0 0 LINE",
"241 0 LINE",
"245 37 LINE",
"213 41 OFFCURVE",
"183 47 OFFCURVE",
"154 63 CURVE",
"226 510 LINE",
"473 0 LINE",
"514 0 LINE",
"610 604 LINE",
"638 620 OFFCURVE",
"663 626 OFFCURVE",
"695 630 CURVE",
"700 667 LINE",
"464 667 LINE",
"460 630 LINE",
"492 626 OFFCURVE",
"521 619 OFFCURVE",
"545 604 CURVE",
"480 193 LINE",
"251 667 LINE"
);
}
);
};
layerId = "CF479DE4-94A2-4865-8D1E-65EA355866D4";
paths = (
{
closed = 1;
nodes = (
"241 0 LINE",
"245 37 LINE",
"213 41 OFFCURVE",
"183 47 OFFCURVE",
"154 63 CURVE",
"226 510 LINE",
"473 0 LINE",
"514 0 LINE",
"610 604 LINE",
"638 620 OFFCURVE",
"663 626 OFFCURVE",
"695 630 CURVE",
"700 667 LINE",
"464 667 LINE",
"460 630 LINE",
"492 626 OFFCURVE",
"521 619 OFFCURVE",
"545 604 CURVE",
"480 193 LINE",
"251 667 LINE",
"97 667 LINE",
"92 630 LINE",
"124 626 OFFCURVE",
"152 619 OFFCURVE",
"177 604 CURVE",
"90 62 LINE",
"62 46 OFFCURVE",
"38 41 OFFCURVE",
"6 37 CURVE",
"0 0 LINE"
);
}
);
width = 671;
},
{
anchors = (
{
name = bottom;
position = "{321, 0}";
},
{
name = top;
position = "{401, 667}";
}
);
layerId = "0FAD76F5-9F58-4721-BF81-08BC6166EF10";
paths = (
{
closed = 1;
nodes = (
"217 0 LINE",
"222 41 LINE",
"190 48 OFFCURVE",
"168 57 OFFCURVE",
"155 71 CURVE",
"217 460 LINE",
"388 0 LINE",
"540 0 LINE",
"634 596 LINE",
"657 613 OFFCURVE",
"674 620 OFFCURVE",
"707 626 CURVE",
"713 667 LINE",
"487 667 LINE",
"481 626 LINE",
"509 622 OFFCURVE",
"536 610 OFFCURVE",
"547 596 CURVE",
"482 183 LINE",
"303 667 LINE",
"91 667 LINE",
"85 626 LINE",
"113 622 OFFCURVE",
"140 610 OFFCURVE",
"151 596 CURVE",
"68 71 LINE",
"47 55 OFFCURVE",
"29 46 OFFCURVE",
"-4 41 CURVE",
"-9 0 LINE"
);
}
);
width = 662;
}
);
unicode = 004E;
},
{
color = 1;
glyphname = Eng;
lastChange = "2019-11-27 00:17:11 +0000";
layers = (
{
background = {
paths = (
{
closed = 1;
nodes = (
"241 0 LINE",
"245 37 LINE",
"213 41 OFFCURVE",
"183 47 OFFCURVE",
"154 63 CURVE",
"226 510 LINE",
"453 40 LINE",
"444 -36 OFFCURVE",
"435 -102 OFFCURVE",
"384 -102 CURVE SMOOTH",
"365 -102 OFFCURVE",
"356 -89 OFFCURVE",
"356 -74 CURVE SMOOTH",
"356 -62 OFFCURVE",
"362 -49 OFFCURVE",
"373 -43 CURVE",
"369 -19 OFFCURVE",
"349 -7 OFFCURVE",
"328 -7 CURVE SMOOTH",
"301 -7 OFFCURVE",
"271 -28 OFFCURVE",
"271 -71 CURVE SMOOTH",
"271 -120 OFFCURVE",
"311 -150 OFFCURVE",
"368 -150 CURVE SMOOTH",
"482 -150 OFFCURVE",
"504 -62 OFFCURVE",
"523 57 CURVE SMOOTH",
"610 604 LINE",
"638 620 OFFCURVE",
"663 626 OFFCURVE",
"695 630 CURVE",
"700 667 LINE",
"464 667 LINE",
"460 630 LINE",
"492 626 OFFCURVE",
"521 619 OFFCURVE",
"545 604 CURVE",
"480 194 LINE",
"251 667 LINE",
"97 667 LINE",
"92 630 LINE",
"124 626 OFFCURVE",
"152 619 OFFCURVE",
"177 604 CURVE",
"90 62 LINE",
"62 46 OFFCURVE",
"38 41 OFFCURVE",
"6 37 CURVE",
"0 0 LINE"
);
}
);
};
layerId = "CF479DE4-94A2-4865-8D1E-65EA355866D4";
paths = (
{
closed = 1;
nodes = (
"418 -150 OFFCURVE",
"450 -133 OFFCURVE",
"472 -104 CURVE SMOOTH",
"501 -67 OFFCURVE",
"512 -10 OFFCURVE",
"523 57 CURVE SMOOTH",
"610 604 LINE",
"638 620 OFFCURVE",
"663 626 OFFCURVE",
"695 630 CURVE",
"700 667 LINE",
"464 667 LINE",
"460 630 LINE",
"492 626 OFFCURVE",
"521 619 OFFCURVE",
"545 604 CURVE",
"480 194 LINE",
"251 667 LINE",
"97 667 LINE",
"92 630 LINE",
"124 626 OFFCURVE",
"152 619 OFFCURVE",
"177 604 CURVE",
"90 62 LINE",
"62 46 OFFCURVE",
"38 41 OFFCURVE",
"6 37 CURVE",
"0 0 LINE",
"241 0 LINE",
"245 37 LINE",
"213 41 OFFCURVE",
"183 47 OFFCURVE",
"154 63 CURVE",
"226 510 LINE",
"453 40 LINE",
"444 -46 OFFCURVE",
"430 -102 OFFCURVE",
"387 -102 CURVE SMOOTH",
"369 -102 OFFCURVE",
"356 -92 OFFCURVE",
"356 -74 CURVE SMOOTH",
"356 -62 OFFCURVE",
"362 -49 OFFCURVE",
"373 -43 CURVE",
"369 -19 OFFCURVE",
"349 -7 OFFCURVE",
"328 -7 CURVE SMOOTH",
"295 -7 OFFCURVE",
"271 -33 OFFCURVE",
"271 -74 CURVE SMOOTH",
"271 -120 OFFCURVE",
"311 -150 OFFCURVE",
"368 -150 CURVE SMOOTH"
);
}
);
width = 671;
},
{
background = {
paths = (
{
closed = 1;
nodes = (
"726 667 LINE",
"508 667 LINE",
"496 626 LINE",
"527 620 OFFCURVE",
"543 613 OFFCURVE",
"560 596 CURVE",
"495 183 LINE",
"296 667 LINE",
"99 667 LINE",
"88 628 LINE",
"113 619 OFFCURVE",
"131 609 OFFCURVE",
"144 596 CURVE",
"61 71 LINE",
"40 53 OFFCURVE",
"26 46 OFFCURVE",
"-1 41 CURVE",
"-11 0 LINE",
"205 0 LINE",
"218 39 LINE",
"185 46 OFFCURVE",
"161 57 OFFCURVE",
"148 71 CURVE",
"210 460 LINE",
"401 0 LINE",
"440 0 LINE",
"439 -57 OFFCURVE",
"439 -169 OFFCURVE",
"376 -169 CURVE SMOOTH",
"356 -169 OFFCURVE",
"347 -155 OFFCURVE",
"347 -139 CURVE SMOOTH",
"347 -124 OFFCURVE",
"355 -108 OFFCURVE",
"368 -97 CURVE",
"359 -80 OFFCURVE",
"343 -72 OFFCURVE",
"326 -72 CURVE SMOOTH",
"284 -72 OFFCURVE",
"252 -102 OFFCURVE",
"252 -143 CURVE SMOOTH",
"252 -193 OFFCURVE",
"305 -218 OFFCURVE",
"363 -218 CURVE SMOOTH",
"413 -218 OFFCURVE",
"472 -200 OFFCURVE",
"502 -161 CURVE SMOOTH",
"528 -127 OFFCURVE",
"541 -80 OFFCURVE",
"548 -33 CURVE SMOOTH",
"647 596 LINE",
"666 610 OFFCURVE",
"687 620 OFFCURVE",
"713 628 CURVE"
);
},
{
closed = 1;
nodes = (
"413 -218 OFFCURVE",
"472 -200 OFFCURVE",
"502 -161 CURVE SMOOTH",
"528 -127 OFFCURVE",
"541 -80 OFFCURVE",
"548 -33 CURVE SMOOTH",
"647 596 LINE",
"666 613 OFFCURVE",
"683 620 OFFCURVE",
"716 626 CURVE",
"722 667 LINE",
"496 667 LINE",
"490 626 LINE",
"518 622 OFFCURVE",
"545 610 OFFCURVE",
"556 596 CURVE",
"495 183 LINE",
"296 667 LINE",
"84 667 LINE",
"78 626 LINE",
"106 622 OFFCURVE",
"133 610 OFFCURVE",
"144 596 CURVE",
"61 71 LINE",
"42 55 OFFCURVE",
"24 46 OFFCURVE",
"-9 41 CURVE",
"-14 0 LINE",
"211 0 LINE",
"216 41 LINE",
"184 48 OFFCURVE",
"163 57 OFFCURVE",
"148 71 CURVE",
"210 460 LINE",
"401 0 LINE",
"440 0 LINE",
"439 -57 OFFCURVE",
"439 -169 OFFCURVE",
"376 -169 CURVE SMOOTH",
"356 -169 OFFCURVE",
"347 -155 OFFCURVE",
"347 -139 CURVE SMOOTH",
"347 -124 OFFCURVE",
"355 -108 OFFCURVE",
"368 -97 CURVE",
"359 -80 OFFCURVE",
"343 -72 OFFCURVE",
"326 -72 CURVE SMOOTH",
"284 -72 OFFCURVE",
"252 -102 OFFCURVE",
"252 -143 CURVE SMOOTH",
"252 -193 OFFCURVE",
"305 -218 OFFCURVE",
"363 -218 CURVE SMOOTH"
);
}
);
};
layerId = "0FAD76F5-9F58-4721-BF81-08BC6166EF10";
paths = (
{
closed = 1;
nodes = (
"416 -218 OFFCURVE",
"472 -198 OFFCURVE",
"498 -166 CURVE SMOOTH",
"529 -128 OFFCURVE",
"541 -80 OFFCURVE",
"548 -33 CURVE SMOOTH",
"647 596 LINE",
"666 613 OFFCURVE",
"683 620 OFFCURVE",
"716 626 CURVE",
"722 667 LINE",
"496 667 LINE",
"490 626 LINE",
"518 622 OFFCURVE",
"545 610 OFFCURVE",
"556 596 CURVE",
"495 183 LINE",
"296 667 LINE",
"84 667 LINE",
"78 626 LINE",
"106 622 OFFCURVE",
"133 610 OFFCURVE",
"144 596 CURVE",
"61 71 LINE",
"42 55 OFFCURVE",
"24 46 OFFCURVE",
"-9 41 CURVE",
"-14 0 LINE",
"211 0 LINE",
"216 41 LINE",
"184 48 OFFCURVE",
"163 57 OFFCURVE",
"148 71 CURVE",
"210 460 LINE",
"401 0 LINE",
"440 0 LINE",
"440 -12 LINE",
"439 -128 OFFCURVE",
"415 -169 OFFCURVE",
"378 -169 CURVE SMOOTH",
"359 -169 OFFCURVE",
"347 -159 OFFCURVE",
"347 -141 CURVE SMOOTH",
"347 -123 OFFCURVE",
"355 -107 OFFCURVE",
"368 -97 CURVE",
"359 -80 OFFCURVE",
"343 -72 OFFCURVE",
"326 -72 CURVE SMOOTH",
"284 -72 OFFCURVE",
"252 -102 OFFCURVE",
"252 -141 CURVE SMOOTH",
"252 -191 OFFCURVE",
"303 -218 OFFCURVE",
"368 -218 CURVE SMOOTH"
);
}
);
width = 662;
}
);
leftKerningGroup = H;
rightKerningGroup = N;
unicode = 014A;
},
{
color = 4;
glyphname = O;
lastChange = "2019-11-22 04:39:29 +0000";
layers = (
{
anchors = (
{
name = bottom;
position = "{274, 0}";
},
{
name = top;
position = "{400, 667}";
}
);
background = {
anchors = (
{
name = ogonek;
position = "{344, 0}";
},
{
name = top;
position = "{405, 705}";
}
);
paths = (
{
closed = 1;
nodes = (
"192 40 OFFCURVE",
"160 103 OFFCURVE",
"160 216 CURVE SMOOTH",
"160 464 OFFCURVE",
"259 627 OFFCURVE",
"394 627 CURVE SMOOTH",
"477 627 OFFCURVE",
"508 562 OFFCURVE",
"508 446 CURVE SMOOTH",
"508 201 OFFCURVE",
"407 40 OFFCURVE",
"274 40 CURVE SMOOTH",
"274 40 LINE"
);
},
{
closed = 1;
nodes = (
"165 675 OFFCURVE",
"61 457 OFFCURVE",
"61 234 CURVE SMOOTH",
"61 77 OFFCURVE",
"126 -7 OFFCURVE",
"281 -7 CURVE SMOOTH",
"502 -7 OFFCURVE",
"606 210 OFFCURVE",
"606 433 CURVE SMOOTH",
"606 591 OFFCURVE",
"542 675 OFFCURVE",
"387 675 CURVE SMOOTH",
"387 675 LINE"
);
}
);
};
layerId = "CF479DE4-94A2-4865-8D1E-65EA355866D4";
paths = (
{
closed = 1;
nodes = (
"502 -7 OFFCURVE",
"606 210 OFFCURVE",
"606 433 CURVE SMOOTH",
"606 591 OFFCURVE",
"542 675 OFFCURVE",
"387 675 CURVE SMOOTH",
"165 675 OFFCURVE",
"61 457 OFFCURVE",
"61 234 CURVE SMOOTH",
"61 77 OFFCURVE",
"126 -7 OFFCURVE",
"281 -7 CURVE SMOOTH"
);
},
{
closed = 1;
nodes = (
"192 40 OFFCURVE",
"160 103 OFFCURVE",
"160 216 CURVE SMOOTH",
"160 464 OFFCURVE",
"259 627 OFFCURVE",
"394 627 CURVE SMOOTH",
"477 627 OFFCURVE",
"508 562 OFFCURVE",
"508 446 CURVE SMOOTH",
"508 201 OFFCURVE",
"407 40 OFFCURVE",
"274 40 CURVE SMOOTH"
);
}
);
width = 622;
},
{
anchors = (
{
name = bottom;
position = "{299.671, 0}";
},
{
name = top;
position = "{403, 667}";
}
);
background = {
paths = (
{
closed = 1;
nodes = (
"208 350 OFFCURVE",
"269 620 OFFCURVE",
"399 620 CURVE SMOOTH",
"486 620 OFFCURVE",
"500 537 OFFCURVE",
"500 450 CURVE SMOOTH",
"500 320 OFFCURVE",
"439 50 OFFCURVE",
"309 50 CURVE SMOOTH",
"222 50 OFFCURVE",
"208 133 OFFCURVE",
"208 220 CURVE SMOOTH"
);
},
{
closed = 1;
nodes = (
"48 85 OFFCURVE",
"132 -10 OFFCURVE",
"300 -10 CURVE SMOOTH",
"542 -10 OFFCURVE",
"661 155 OFFCURVE",
"661 413 CURVE SMOOTH",
"661 584 OFFCURVE",
"578 678 OFFCURVE",
"409 678 CURVE SMOOTH",
"170 678 OFFCURVE",
"48 516 OFFCURVE",
"48 257 CURVE SMOOTH"
);
},
{
closed = 1;
nodes = (
"212 40 OFFCURVE",
"180 103 OFFCURVE",
"180 216 CURVE SMOOTH",
"180 464 OFFCURVE",
"279 627 OFFCURVE",
"414 627 CURVE SMOOTH",
"497 627 OFFCURVE",
"528 562 OFFCURVE",
"528 446 CURVE SMOOTH",
"528 201 OFFCURVE",
"427 40 OFFCURVE",
"294 40 CURVE SMOOTH"
);
},
{
closed = 1;
nodes = (
"185 675 OFFCURVE",
"81 457 OFFCURVE",
"81 234 CURVE SMOOTH",
"81 77 OFFCURVE",
"146 -7 OFFCURVE",
"301 -7 CURVE SMOOTH",
"522 -7 OFFCURVE",
"626 210 OFFCURVE",
"626 433 CURVE SMOOTH",
"626 591 OFFCURVE",
"562 675 OFFCURVE",
"407 675 CURVE SMOOTH"
);
}
);
};
guideLines = (
{
angle = 81.5;
position = "{352, 323}";
}
);
layerId = "0FAD76F5-9F58-4721-BF81-08BC6166EF10";
paths = (
{
closed = 1;
nodes = (
"542 -10 OFFCURVE",
"661 155 OFFCURVE",
"661 413 CURVE SMOOTH",
"661 584 OFFCURVE",
"578 678 OFFCURVE",
"409 678 CURVE SMOOTH",
"170 678 OFFCURVE",
"48 516 OFFCURVE",
"48 257 CURVE SMOOTH",
"48 85 OFFCURVE",
"132 -10 OFFCURVE",
"300 -10 CURVE SMOOTH"
);
},
{
closed = 1;
nodes = (
"219 50 OFFCURVE",
"208 130 OFFCURVE",
"208 220 CURVE SMOOTH",
"208 353 OFFCURVE",
"266 620 OFFCURVE",
"399 620 CURVE SMOOTH",
"489 620 OFFCURVE",
"500 540 OFFCURVE",
"500 450 CURVE SMOOTH",
"500 317 OFFCURVE",
"442 50 OFFCURVE",
"309 50 CURVE SMOOTH"
);
}
);
width = 675;
}
);
unicode = 004F;
},
{
color = 4;
glyphname = Ohungarumlaut;
lastChange = "2019-11-29 22:23:00 +0000";
layers = (
{
background = {
paths = (
{
closed = 1;
nodes = (
"502 -7 OFFCURVE",
"606 210 OFFCURVE",
"606 433 CURVE SMOOTH",
"606 591 OFFCURVE",
"542 675 OFFCURVE",
"387 675 CURVE SMOOTH",
"387 675 LINE",
"165 675 OFFCURVE",
"61 457 OFFCURVE",
"61 234 CURVE SMOOTH",
"61 77 OFFCURVE",
"126 -7 OFFCURVE",
"281 -7 CURVE SMOOTH"
);
},
{
closed = 1;
nodes = (
"274 40 LINE",
"192 40 OFFCURVE",
"160 103 OFFCURVE",
"160 216 CURVE SMOOTH",
"160 464 OFFCURVE",
"259 627 OFFCURVE",
"394 627 CURVE SMOOTH",
"477 627 OFFCURVE",
"508 562 OFFCURVE",
"508 446 CURVE SMOOTH",
"508 201 OFFCURVE",
"407 40 OFFCURVE",
"274 40 CURVE SMOOTH"
);
},
{
closed = 1;
nodes = (
"452 804 LINE SMOOTH",
"466 816 OFFCURVE",
"470 827 OFFCURVE",
"470 839 CURVE SMOOTH",
"470 861 OFFCURVE",
"456 875 OFFCURVE",
"437 875 CURVE SMOOTH",
"419 875 OFFCURVE",
"409 869 OFFCURVE",
"398 855 CURVE",
"320 728 LINE",
"341 706 LINE"
);
},
{
closed = 1;
nodes = (
"570 786 LINE SMOOTH",
"588 797 OFFCURVE",
"595 809 OFFCURVE",
"595 824 CURVE SMOOTH",
"595 847 OFFCURVE",
"576 859 OFFCURVE",
"558 859 CURVE SMOOTH",
"545 859 OFFCURVE",
"535 854 OFFCURVE",
"525 843 CURVE SMOOTH",
"423 731 LINE",
"445 706 LINE"
);
}
);
};
components = (
{
name = O;
},
{
name = hungarumlautcomb.case;
transform = "{1, 0, 0, 1, 219, 0}";
}
);
layerId = "CF479DE4-94A2-4865-8D1E-65EA355866D4";
width = 581;
},
{
components = (
{
name = O;
},
{
name = hungarumlautcomb.case;
transform = "{1, 0, 0, 1, 231, 0}";
}
);
layerId = "0FAD76F5-9F58-4721-BF81-08BC6166EF10";
width = 647;
}
);
leftKerningGroup = O;
rightKerningGroup = O;
unicode = 0150;
},
{
color = 4;
glyphname = Oslash;
lastChange = "2019-11-27 00:17:53 +0000";
layers = (
{
anchors = (
{
name = bottom;
position = "{274, 0}";
},
{
name = top;
position = "{400, 667}";
}
);
background = {
anchors = (
{
name = bottom;
position = "{327, 0}";
},
{
name = top;
position = "{392, 695}";
}
);
paths = (
{
closed = 1;
nodes = (
"165 675 OFFCURVE",
"61 457 OFFCURVE",
"61 234 CURVE SMOOTH",
"61 166 OFFCURVE",
"73 111 OFFCURVE",
"99 71 CURVE",
"40 -4 LINE",
"40 -4 OFFCURVE",
"51 -20 OFFCURVE",
"67 -28 CURVE",
"77 -27 LINE",
"128 38 LINE",
"164 8 OFFCURVE",
"214 -7 OFFCURVE",
"281 -7 CURVE SMOOTH",
"502 -7 OFFCURVE",
"606 210 OFFCURVE",
"606 433 CURVE SMOOTH",
"606 501 OFFCURVE",
"593 555 OFFCURVE",
"567 595 CURVE",
"619 661 LINE",
"619 661 OFFCURVE",
"608 677 OFFCURVE",
"592 685 CURVE",
"582 684 LINE",
"539 629 LINE",
"504 659 OFFCURVE",
"454 675 OFFCURVE",
"387 675 CURVE SMOOTH",
"387 675 LINE"
);
},
{
closed = 1;
nodes = (
"226 40 OFFCURVE",
"195 61 OFFCURVE",
"178 101 CURVE",
"503 514 LINE",
"506 494 OFFCURVE",
"508 471 OFFCURVE",
"508 446 CURVE SMOOTH",
"508 201 OFFCURVE",
"407 40 OFFCURVE",
"274 40 CURVE SMOOTH",
"274 40 LINE"
);
},
{
closed = 1;
nodes = (
"166 473 OFFCURVE",
"262 627 OFFCURVE",
"394 627 CURVE SMOOTH",
"441 627 OFFCURVE",
"472 606 OFFCURVE",
"489 566 CURVE",
"164 153 LINE",
"160 182 OFFCURVE",
"160 209 OFFCURVE",
"160 237 CURVE",
"160 237 LINE"
);
},
{
closed = 1;
nodes = (
"77 -27 LINE",
"128 38 LINE",
"164 8 OFFCURVE",
"214 -7 OFFCURVE",
"281 -7 CURVE SMOOTH",
"502 -7 OFFCURVE",
"606 210 OFFCURVE",
"606 433 CURVE SMOOTH",
"606 501 OFFCURVE",
"593 555 OFFCURVE",
"567 595 CURVE",
"619 661 LINE",
"619 661 OFFCURVE",
"608 677 OFFCURVE",
"592 685 CURVE",
"582 684 LINE",
"539 629 LINE",
"504 659 OFFCURVE",
"454 675 OFFCURVE",
"387 675 CURVE SMOOTH",
"165 675 OFFCURVE",
"61 457 OFFCURVE",
"61 234 CURVE SMOOTH",
"61 166 OFFCURVE",
"73 111 OFFCURVE",
"99 71 CURVE",
"40 -4 LINE",
"40 -4 OFFCURVE",
"51 -20 OFFCURVE",
"67 -28 CURVE"
);
},
{
closed = 1;
nodes = (
"226 40 OFFCURVE",
"195 61 OFFCURVE",
"178 101 CURVE",
"503 514 LINE",
"506 494 OFFCURVE",
"508 471 OFFCURVE",
"508 446 CURVE SMOOTH",
"508 201 OFFCURVE",
"407 40 OFFCURVE",
"274 40 CURVE SMOOTH"
);
},
{
closed = 1;
nodes = (
"160 182 OFFCURVE",
"160 209 OFFCURVE",
"160 237 CURVE SMOOTH",
"166 473 OFFCURVE",
"262 627 OFFCURVE",
"394 627 CURVE SMOOTH",
"441 627 OFFCURVE",
"472 606 OFFCURVE",
"489 566 CURVE",
"164 153 LINE"
);
},
{
closed = 1;
nodes = (
"77 -27 LINE",
"128 38 LINE",
"164 8 OFFCURVE",
"214 -7 OFFCURVE",
"281 -7 CURVE SMOOTH",
"502 -7 OFFCURVE",
"606 210 OFFCURVE",
"606 433 CURVE SMOOTH",
"606 501 OFFCURVE",
"593 555 OFFCURVE",
"567 595 CURVE",
"619 661 LINE",
"613 670 OFFCURVE",
"602 680 OFFCURVE",
"592 685 CURVE",
"582 684 LINE",
"539 629 LINE",
"504 659 OFFCURVE",
"454 675 OFFCURVE",
"387 675 CURVE SMOOTH",
"165 675 OFFCURVE",
"61 457 OFFCURVE",
"61 234 CURVE SMOOTH",
"61 166 OFFCURVE",
"73 111 OFFCURVE",
"99 71 CURVE",
"40 -4 LINE",
"44 -12 OFFCURVE",
"54 -22 OFFCURVE",
"67 -28 CURVE"
);
},
{
closed = 1;
nodes = (
"226 40 OFFCURVE",
"195 61 OFFCURVE",
"178 101 CURVE",
"503 514 LINE",
"506 494 OFFCURVE",
"508 471 OFFCURVE",
"508 446 CURVE SMOOTH",
"508 201 OFFCURVE",
"407 40 OFFCURVE",
"274 40 CURVE SMOOTH"
);
},
{
closed = 1;
nodes = (
"160 182 OFFCURVE",
"160 209 OFFCURVE",
"160 237 CURVE SMOOTH",
"166 473 OFFCURVE",
"262 627 OFFCURVE",
"394 627 CURVE SMOOTH",
"441 627 OFFCURVE",
"472 606 OFFCURVE",
"489 566 CURVE",
"164 153 LINE"
);
}
);
};
components = (
{
name = O;
}
);
layerId = "CF479DE4-94A2-4865-8D1E-65EA355866D4";
paths = (
{
closed = 1;
nodes = (
"77 -27 LINE",
"619 661 LINE",
"612 671 OFFCURVE",
"603 680 OFFCURVE",
"592 685 CURVE",
"582 684 LINE",
"40 -4 LINE",
"47 -15 OFFCURVE",
"57 -23 OFFCURVE",
"68 -28 CURVE"
);
}
);
width = 622;
},
{
anchors = (
{
name = bottom;
position = "{288, 0}";
},
{
name = top;
position = "{405.313, 667}";
}
);
background = {
paths = (
{
closed = 1;
nodes = (
"131 35 LINE",
"171 5 OFFCURVE",
"225 -10 OFFCURVE",
"293 -10 CURVE SMOOTH",
"535 -10 OFFCURVE",
"654 155 OFFCURVE",
"654 413 CURVE SMOOTH",
"654 477 OFFCURVE",
"642 531 OFFCURVE",
"618 573 CURVE",
"684 646 LINE",
"624 700 LINE",
"564 633 LINE",
"523 663 OFFCURVE",
"470 678 OFFCURVE",
"402 678 CURVE SMOOTH",
"163 678 OFFCURVE",
"41 516 OFFCURVE",
"41 257 CURVE SMOOTH",
"41 192 OFFCURVE",
"53 138 OFFCURVE",
"77 96 CURVE",
"2 13 LINE",
"62 -41 LINE"
);
},
{
closed = 1;
nodes = (
"249 50 OFFCURVE",
"223 80 OFFCURVE",
"211 123 CURVE",
"493 434 LINE",
"488 300 OFFCURVE",
"427 50 OFFCURVE",
"302 50 CURVE SMOOTH"
);
},
{
closed = 1;
nodes = (
"205 367 OFFCURVE",
"266 620 OFFCURVE",
"392 620 CURVE SMOOTH",
"445 620 OFFCURVE",
"471 589 OFFCURVE",
"483 544 CURVE",
"201 233 LINE"
);
}
);
};
components = (
{
name = O;
}
);
layerId = "0FAD76F5-9F58-4721-BF81-08BC6166EF10";
paths = (
{
closed = 1;
nodes = (
"68 -34 LINE",
"682 644 LINE",
"670 661 OFFCURVE",
"647 683 OFFCURVE",
"629 691 CURVE",
"617 692 LINE",
"3 14 LINE",
"17 -5 OFFCURVE",
"36 -23 OFFCURVE",
"59 -35 CURVE"
);
}
);
width = 675;
}
);
leftKerningGroup = O;
rightKerningGroup = O;
unicode = 00D8;
},
{
color = 4;
glyphname = Otilde;
lastChange = "2019-11-29 22:23:00 +0000";
layers = (
{
background = {
components = (
{
name = O;
},
{
name = tilde;
transform = "{1, 0, 0, 1, 256, 182}";
}
);
};
components = (
{
name = O;
},
{
name = tildecomb.case;
transform = "{1, 0, 0, 1, 154, 0}";
}
);
layerId = "CF479DE4-94A2-4865-8D1E-65EA355866D4";
width = 581;
},
{
background = {
paths = (
{
closed = 1;
nodes = (
"208 353 OFFCURVE",
"266 620 OFFCURVE",
"399 620 CURVE SMOOTH",
"489 620 OFFCURVE",
"500 540 OFFCURVE",
"500 450 CURVE SMOOTH",
"500 317 OFFCURVE",
"442 50 OFFCURVE",
"309 50 CURVE SMOOTH",
"219 50 OFFCURVE",
"208 130 OFFCURVE",
"208 220 CURVE SMOOTH",
"208 220 LINE"
);
},
{
closed = 1;
nodes = (
"48 85 OFFCURVE",
"132 -10 OFFCURVE",
"300 -10 CURVE SMOOTH",
"542 -10 OFFCURVE",
"661 155 OFFCURVE",
"661 413 CURVE SMOOTH",
"661 584 OFFCURVE",
"578 678 OFFCURVE",
"409 678 CURVE SMOOTH",
"170 678 OFFCURVE",
"48 516 OFFCURVE",
"48 257 CURVE SMOOTH",
"48 257 LINE"
);
},
{
closed = 1;
nodes = (
"449 814 OFFCURVE",
"414 854 OFFCURVE",
"374 854 CURVE SMOOTH",
"328 854 OFFCURVE",
"284 816 OFFCURVE",
"249 760 CURVE",
"260 745 OFFCURVE",
"283 733 OFFCURVE",
"297 728 CURVE",
"318 752 OFFCURVE",
"341 766 OFFCURVE",
"361 766 CURVE SMOOTH",
"401 766 OFFCURVE",
"437 727 OFFCURVE",
"477 727 CURVE SMOOTH",
"523 727 OFFCURVE",
"567 766 OFFCURVE",
"601 822 CURVE",
"590 836 OFFCURVE",
"567 848 OFFCURVE",
"553 853 CURVE",
"533 830 OFFCURVE",
"509 814 OFFCURVE",
"489 814 CURVE SMOOTH",
"489 814 LINE"
);
}
);
};
components = (
{
name = O;
},
{
name = tildecomb.case;
transform = "{1, 0, 0, 1, 151, 0}";
}
);
layerId = "0FAD76F5-9F58-4721-BF81-08BC6166EF10";
width = 647;
}
);
leftKerningGroup = O;
rightKerningGroup = O;
unicode = 00D5;
},
{
color = 4;
glyphname = OE;
lastChange = "2019-11-27 00:18:09 +0000";
layers = (
{
anchors = (
{
name = top;
position = "{528, 667}";
}
);
background = {
anchors = (
{
name = top;
position = "{509, 695}";
}
);
paths = (
{
closed = 1;
nodes = (
"790 0 LINE",
"826 169 LINE",
"818 170 OFFCURVE",
"811 171 OFFCURVE",
"805 171 CURVE SMOOTH",
"798 171 OFFCURVE",
"791 170 OFFCURVE",
"785 169 CURVE",
"773 136 OFFCURVE",
"756 92 OFFCURVE",
"725 57 CURVE",
"531 57 LINE",
"572 316 LINE",
"676 312 LINE SMOOTH",
"719 310 OFFCURVE",
"718 262 OFFCURVE",
"722 239 CURVE",
"753 239 LINE",
"784 434 LINE",
"752 434 LINE",
"743 412 OFFCURVE",
"722 371 OFFCURVE",
"687 368 CURVE SMOOTH",
"670 366 OFFCURVE",
"617 364 OFFCURVE",
"580 363 CURVE",
"620 614 LINE",
"804 614 LINE",
"824 583 OFFCURVE",
"828 544 OFFCURVE",
"829 513 CURVE",
"834 512 OFFCURVE",
"839 511 OFFCURVE",
"844 511 CURVE SMOOTH",
"854 511 OFFCURVE",
"864 513 OFFCURVE",
"873 516 CURVE",
"888 667 LINE",
"448 667 LINE",
"426 672 OFFCURVE",
"401 675 OFFCURVE",
"373 675 CURVE SMOOTH",
"151 675 OFFCURVE",
"47 457 OFFCURVE",
"47 234 CURVE SMOOTH",
"47 77 OFFCURVE",
"112 -7 OFFCURVE",
"267 -7 CURVE SMOOTH",
"290 -7 OFFCURVE",
"312 -4 OFFCURVE",
"333 0 CURVE",
"333 0 LINE"
);
},
{
closed = 1;
nodes = (
"178 40 OFFCURVE",
"146 103 OFFCURVE",
"146 216 CURVE SMOOTH",
"146 464 OFFCURVE",
"245 627 OFFCURVE",
"380 627 CURVE SMOOTH",
"463 627 OFFCURVE",
"494 562 OFFCURVE",
"494 446 CURVE SMOOTH",
"494 201 OFFCURVE",
"393 40 OFFCURVE",
"260 40 CURVE SMOOTH",
"260 40 LINE"
);
}
);
};
layerId = "CF479DE4-94A2-4865-8D1E-65EA355866D4";
paths = (
{
closed = 1;
nodes = (
"290 -7 OFFCURVE",
"312 -4 OFFCURVE",
"333 0 CURVE",
"790 0 LINE",
"826 169 LINE",
"818 170 OFFCURVE",
"811 171 OFFCURVE",
"805 171 CURVE SMOOTH",
"798 171 OFFCURVE",
"791 170 OFFCURVE",
"785 169 CURVE",
"773 136 OFFCURVE",
"756 92 OFFCURVE",
"725 57 CURVE",
"531 57 LINE",
"572 316 LINE",
"676 312 LINE SMOOTH",
"719 310 OFFCURVE",
"718 262 OFFCURVE",
"722 239 CURVE",
"753 239 LINE",
"784 434 LINE",
"752 434 LINE",
"743 412 OFFCURVE",
"722 371 OFFCURVE",
"687 368 CURVE SMOOTH",
"580 363 LINE",
"620 614 LINE",
"804 614 LINE",
"824 583 OFFCURVE",
"828 544 OFFCURVE",
"829 513 CURVE",
"834 512 OFFCURVE",
"839 511 OFFCURVE",
"844 511 CURVE SMOOTH",
"854 511 OFFCURVE",
"864 513 OFFCURVE",
"873 516 CURVE",
"888 667 LINE",
"448 667 LINE",
"426 672 OFFCURVE",
"401 675 OFFCURVE",
"373 675 CURVE SMOOTH",
"151 675 OFFCURVE",
"47 457 OFFCURVE",
"47 234 CURVE SMOOTH",
"47 77 OFFCURVE",
"112 -7 OFFCURVE",
"267 -7 CURVE SMOOTH"
);
},
{
closed = 1;
nodes = (
"178 40 OFFCURVE",
"146 103 OFFCURVE",
"146 216 CURVE SMOOTH",
"146 464 OFFCURVE",
"245 627 OFFCURVE",
"380 627 CURVE SMOOTH",
"463 627 OFFCURVE",
"494 562 OFFCURVE",
"494 446 CURVE SMOOTH",
"494 201 OFFCURVE",
"393 40 OFFCURVE",
"260 40 CURVE SMOOTH"
);
}
);
width = 896;
},
{
anchors = (
{
name = top;
position = "{568, 667}";
}
);
background = {
paths = (
{
closed = 1;
nodes = (
"336 -10 OFFCURVE",
"369 -6 OFFCURVE",
"396 0 CURVE",
"848 0 LINE",
"888 189 LINE",
"877 191 OFFCURVE",
"866 192 OFFCURVE",
"855 192 CURVE SMOOTH",
"840 192 OFFCURVE",
"828 191 OFFCURVE",
"814 189 CURVE",
"795 135 OFFCURVE",
"773 93 OFFCURVE",
"747 62 CURVE",
"572 62 LINE",
"612 318 LINE",
"703 310 LINE SMOOTH",
"726 308 OFFCURVE",
"738 290 OFFCURVE",
"748 236 CURVE",
"800 236 LINE",
"833 443 LINE",
"781 443 LINE",
"765 404 OFFCURVE",
"739 378 OFFCURVE",
"715 376 CURVE SMOOTH",
"620 369 LINE",
"658 606 LINE",
"826 606 LINE",
"842 579 OFFCURVE",
"849 550 OFFCURVE",
"852 499 CURVE",
"863 497 OFFCURVE",
"874 496 OFFCURVE",
"884 496 CURVE SMOOTH",
"898 496 OFFCURVE",
"912 498 OFFCURVE",
"927 502 CURVE",
"949 667 LINE",
"506 667 LINE",
"479 674 OFFCURVE",
"447 678 OFFCURVE",
"412 678 CURVE SMOOTH",
"173 678 OFFCURVE",
"51 516 OFFCURVE",
"51 257 CURVE SMOOTH",
"51 85 OFFCURVE",
"135 -10 OFFCURVE",
"303 -10 CURVE SMOOTH"
);
},
{
closed = 1;
nodes = (
"243 48 OFFCURVE",
"211 101 OFFCURVE",
"211 220 CURVE SMOOTH",
"211 422 OFFCURVE",
"308 620 OFFCURVE",
"403 620 CURVE SMOOTH",
"472 620 OFFCURVE",
"503 567 OFFCURVE",
"503 450 CURVE SMOOTH",
"503 246 OFFCURVE",
"407 48 OFFCURVE",
"313 48 CURVE SMOOTH"
);
},
{
closed = 1;
nodes = (
"336 -10 OFFCURVE",
"369 -6 OFFCURVE",
"396 0 CURVE",
"848 0 LINE",
"888 189 LINE",
"877 191 OFFCURVE",
"866 192 OFFCURVE",
"855 192 CURVE SMOOTH",
"840 192 OFFCURVE",
"828 191 OFFCURVE",
"814 189 CURVE",
"795 135 OFFCURVE",
"773 93 OFFCURVE",
"747 62 CURVE",
"572 62 LINE",
"612 318 LINE",
"703 310 LINE SMOOTH",
"726 308 OFFCURVE",
"738 290 OFFCURVE",
"748 236 CURVE",
"800 236 LINE",
"833 443 LINE",
"781 443 LINE",
"765 404 OFFCURVE",
"739 378 OFFCURVE",
"711 376 CURVE SMOOTH",
"620 369 LINE",
"658 606 LINE",
"826 606 LINE",
"842 579 OFFCURVE",
"849 550 OFFCURVE",
"852 499 CURVE",
"863 497 OFFCURVE",
"874 496 OFFCURVE",
"884 496 CURVE SMOOTH",
"898 496 OFFCURVE",
"912 498 OFFCURVE",
"927 502 CURVE",
"949 667 LINE",
"506 667 LINE",
"479 674 OFFCURVE",
"447 678 OFFCURVE",
"412 678 CURVE SMOOTH",
"173 678 OFFCURVE",
"51 516 OFFCURVE",
"51 257 CURVE SMOOTH",
"51 85 OFFCURVE",
"135 -10 OFFCURVE",
"303 -10 CURVE SMOOTH"
);
},
{
closed = 1;
nodes = (
"243 48 OFFCURVE",
"211 101 OFFCURVE",
"211 220 CURVE SMOOTH",
"211 422 OFFCURVE",
"308 620 OFFCURVE",
"403 620 CURVE SMOOTH",
"472 620 OFFCURVE",
"503 567 OFFCURVE",
"503 450 CURVE SMOOTH",
"503 246 OFFCURVE",
"407 48 OFFCURVE",
"313 48 CURVE SMOOTH"
);
}
);
};
layerId = "0FAD76F5-9F58-4721-BF81-08BC6166EF10";
paths = (
{
closed = 1;
nodes = (
"336 -10 OFFCURVE",
"369 -6 OFFCURVE",
"396 0 CURVE",
"848 0 LINE",
"888 189 LINE",
"877 191 OFFCURVE",
"866 192 OFFCURVE",
"855 192 CURVE SMOOTH",
"840 192 OFFCURVE",
"828 191 OFFCURVE",
"814 189 CURVE",
"795 135 OFFCURVE",
"773 93 OFFCURVE",
"747 62 CURVE",
"572 62 LINE",
"612 318 LINE",
"703 310 LINE SMOOTH",
"726 308 OFFCURVE",
"738 290 OFFCURVE",
"748 236 CURVE",
"800 236 LINE",
"833 443 LINE",
"781 443 LINE",
"765 404 OFFCURVE",
"739 378 OFFCURVE",
"711 376 CURVE SMOOTH",
"620 369 LINE",
"658 606 LINE",
"826 606 LINE",
"842 579 OFFCURVE",
"849 550 OFFCURVE",
"852 499 CURVE",
"863 497 OFFCURVE",
"874 496 OFFCURVE",
"884 496 CURVE SMOOTH",
"898 496 OFFCURVE",
"912 498 OFFCURVE",
"927 502 CURVE",
"949 667 LINE",
"506 667 LINE",
"479 674 OFFCURVE",
"447 678 OFFCURVE",
"412 678 CURVE SMOOTH",
"173 678 OFFCURVE",
"51 503 OFFCURVE",
"51 257 CURVE SMOOTH",
"51 77 OFFCURVE",
"135 -10 OFFCURVE",
"303 -10 CURVE SMOOTH"
);
},
{
closed = 1;
nodes = (
"243 48 OFFCURVE",
"211 101 OFFCURVE",
"211 220 CURVE SMOOTH",
"211 422 OFFCURVE",
"308 620 OFFCURVE",
"403 620 CURVE SMOOTH",
"472 620 OFFCURVE",
"503 567 OFFCURVE",
"503 450 CURVE SMOOTH",
"503 246 OFFCURVE",
"407 48 OFFCURVE",
"313 48 CURVE SMOOTH"
);
}
);
width = 917;
}
);
leftKerningGroup = O;
rightKerningGroup = E;
unicode = 0152;
},
{
color = 4;
glyphname = P;
lastChange = "2019-11-22 04:45:16 +0000";
layers = (
{
background = {
anchors = (
{
name = top;
position = "{362, 705}";
}
);
paths = (
{
closed = 1;
nodes = (
"120 667 LINE",
"115 630 LINE",
"148 626 OFFCURVE",
"176 619 OFFCURVE",
"201 604 CURVE",
"114 63 LINE",
"86 46 OFFCURVE",
"62 41 OFFCURVE",
"29 37 CURVE",
"24 0 LINE",
"289 0 LINE",
"293 37 LINE",
"261 41 OFFCURVE",
"230 47 OFFCURVE",
"203 63 CURVE",
"240 293 LINE",
"275 293 LINE SMOOTH",
"445 293 OFFCURVE",
"562 352 OFFCURVE",
"562 522 CURVE SMOOTH",
"562 623 OFFCURVE",
"494 667 OFFCURVE",
"355 667 CURVE",
"355 667 LINE"
);
},
{
closed = 1;
nodes = (
"432 625 OFFCURVE",
"472 591 OFFCURVE",
"472 520 CURVE SMOOTH",
"472 400 OFFCURVE",
"395 338 OFFCURVE",
"275 338 CURVE SMOOTH",
"247 338 LINE",
"287 589 LINE SMOOTH",
"291 614 OFFCURVE",
"298 621 OFFCURVE",
"331 624 CURVE SMOOTH",
"341 625 OFFCURVE",
"353 625 OFFCURVE",
"363 625 CURVE",
"363 625 LINE"
);
},
{
closed = 1;
nodes = (
"289 0 LINE",
"293 37 LINE",
"261 41 OFFCURVE",
"230 47 OFFCURVE",
"203 63 CURVE",
"240 293 LINE",
"275 293 LINE SMOOTH",
"445 293 OFFCURVE",
"562 352 OFFCURVE",
"562 522 CURVE SMOOTH",
"562 623 OFFCURVE",
"494 667 OFFCURVE",
"355 667 CURVE SMOOTH",
"120 667 LINE",
"115 630 LINE",
"148 626 OFFCURVE",
"176 619 OFFCURVE",
"201 604 CURVE",
"114 63 LINE",
"86 46 OFFCURVE",
"62 41 OFFCURVE",
"29 37 CURVE",
"24 0 LINE"
);
},
{
closed = 1;
nodes = (
"287 589 LINE SMOOTH",
"291 614 OFFCURVE",
"298 621 OFFCURVE",
"331 624 CURVE SMOOTH",
"341 625 OFFCURVE",
"353 625 OFFCURVE",
"363 625 CURVE SMOOTH",
"432 625 OFFCURVE",
"472 591 OFFCURVE",
"472 520 CURVE SMOOTH",
"472 400 OFFCURVE",
"395 338 OFFCURVE",
"275 338 CURVE SMOOTH",
"247 338 LINE"
);
}
);
};
layerId = "CF479DE4-94A2-4865-8D1E-65EA355866D4";
paths = (
{
closed = 1;
nodes = (
"289 0 LINE",
"293 37 LINE",
"261 41 OFFCURVE",
"230 47 OFFCURVE",
"203 63 CURVE",
"240 293 LINE",
"275 293 LINE SMOOTH",
"445 293 OFFCURVE",
"562 352 OFFCURVE",
"562 522 CURVE SMOOTH",
"562 623 OFFCURVE",
"494 667 OFFCURVE",
"355 667 CURVE SMOOTH",
"120 667 LINE",
"115 630 LINE",
"148 626 OFFCURVE",
"176 619 OFFCURVE",
"201 604 CURVE",
"114 63 LINE",
"86 46 OFFCURVE",
"62 41 OFFCURVE",
"29 37 CURVE",
"24 0 LINE"
);
},
{
closed = 1;
nodes = (
"287 589 LINE SMOOTH",
"292 619 OFFCURVE",
"302 625 OFFCURVE",
"363 625 CURVE SMOOTH",
"432 625 OFFCURVE",
"472 591 OFFCURVE",
"472 520 CURVE SMOOTH",
"472 400 OFFCURVE",
"395 338 OFFCURVE",
"275 338 CURVE SMOOTH",
"247 338 LINE"
);
}
);
width = 555;
},
{
background = {
paths = (
{
closed = 1;
nodes = (
"302 0 LINE",
"307 41 LINE",
"275 48 OFFCURVE",
"233 57 OFFCURVE",
"220 71 CURVE",
"252 277 LINE",
"267 277 LINE SMOOTH",
"437 277 OFFCURVE",
"617 340 OFFCURVE",
"617 510 CURVE SMOOTH",
"617 614 OFFCURVE",
"539 667 OFFCURVE",
"383 667 CURVE SMOOTH",
"96 667 LINE",
"90 626 LINE",
"118 622 OFFCURVE",
"145 610 OFFCURVE",
"156 596 CURVE",
"73 71 LINE",
"52 55 OFFCURVE",
"34 46 OFFCURVE",
"1 41 CURVE",
"-4 0 LINE"
);
},
{
closed = 1;
nodes = (
"298 565 LINE SMOOTH",
"303 597 OFFCURVE",
"311 606 OFFCURVE",
"360 606 CURVE SMOOTH",
"442 606 OFFCURVE",
"469 564 OFFCURVE",
"469 507 CURVE SMOOTH",
"469 436 OFFCURVE",
"421 343 OFFCURVE",
"282 343 CURVE SMOOTH",
"263 343 LINE"
);
}
);
};
layerId = "0FAD76F5-9F58-4721-BF81-08BC6166EF10";
paths = (
{
closed = 1;
nodes = (
"302 0 LINE",
"307 41 LINE",
"275 48 OFFCURVE",
"233 57 OFFCURVE",
"220 71 CURVE",
"252 277 LINE",
"267 277 LINE SMOOTH",
"437 277 OFFCURVE",
"617 340 OFFCURVE",
"617 510 CURVE SMOOTH",
"617 614 OFFCURVE",
"539 667 OFFCURVE",
"383 667 CURVE SMOOTH",
"96 667 LINE",
"90 626 LINE",
"118 622 OFFCURVE",
"145 610 OFFCURVE",
"156 596 CURVE",
"73 71 LINE",
"52 55 OFFCURVE",
"34 46 OFFCURVE",
"1 41 CURVE",
"-4 0 LINE"
);
},
{
closed = 1;
nodes = (
"298 565 LINE SMOOTH",
"303 598 OFFCURVE",
"311 607 OFFCURVE",
"360 607 CURVE SMOOTH",
"439 607 OFFCURVE",
"469 565 OFFCURVE",
"469 507 CURVE SMOOTH",
"469 436 OFFCURVE",
"421 343 OFFCURVE",
"282 343 CURVE SMOOTH",
"263 343 LINE"
);
}
);
width = 596;
}
);
unicode = 0050;
},
{
color = 4;
glyphname = Thorn;
lastChange = "2019-11-27 00:19:16 +0000";
layers = (
{
background = {
paths = (
{
closed = 1;
nodes = (
"271 0 LINE",
"276 37 LINE",
"244 41 OFFCURVE",
"213 47 OFFCURVE",
"186 63 CURVE",
"202 167 LINE",
"244 167 LINE SMOOTH",
"411 167 OFFCURVE",
"539 215 OFFCURVE",
"539 390 CURVE SMOOTH",
"539 479 OFFCURVE",
"480 531 OFFCURVE",
"346 531 CURVE SMOOTH",
"260 531 LINE",
"272 604 LINE",
"300 620 OFFCURVE",
"325 626 OFFCURVE",
"357 630 CURVE",
"362 667 LINE",
"103 667 LINE",
"98 630 LINE",
"131 626 OFFCURVE",
"159 619 OFFCURVE",
"184 604 CURVE",
"97 63 LINE",
"69 46 OFFCURVE",
"44 41 OFFCURVE",
"12 37 CURVE",
"7 0 LINE"
);
},
{
closed = 1;
nodes = (
"409 489 OFFCURVE",
"449 456 OFFCURVE",
"449 388 CURVE SMOOTH",
"449 264 OFFCURVE",
"366 212 OFFCURVE",
"251 212 CURVE SMOOTH",
"209 212 LINE",
"252 481 LINE",
"271 483 OFFCURVE",
"295 489 OFFCURVE",
"340 489 CURVE SMOOTH",
"340 489 LINE"
);
},
{
closed = 1;
nodes = (
"271 0 LINE",
"276 37 LINE",
"244 41 OFFCURVE",
"213 47 OFFCURVE",
"186 63 CURVE",
"202 167 LINE",
"244 167 LINE SMOOTH",
"411 167 OFFCURVE",
"539 215 OFFCURVE",
"539 390 CURVE SMOOTH",
"539 479 OFFCURVE",
"480 531 OFFCURVE",
"346 531 CURVE SMOOTH",
"260 531 LINE",
"272 604 LINE",
"300 620 OFFCURVE",
"325 626 OFFCURVE",
"357 630 CURVE",
"362 667 LINE",
"103 667 LINE",
"98 630 LINE",
"131 626 OFFCURVE",
"159 619 OFFCURVE",
"184 604 CURVE",
"97 63 LINE",
"69 46 OFFCURVE",
"44 41 OFFCURVE",
"12 37 CURVE",
"7 0 LINE"
);
},
{
closed = 1;
nodes = (
"409 489 OFFCURVE",
"449 456 OFFCURVE",
"449 388 CURVE SMOOTH",
"449 264 OFFCURVE",
"366 212 OFFCURVE",
"251 212 CURVE SMOOTH",
"209 212 LINE",
"252 481 LINE",
"271 483 OFFCURVE",
"295 489 OFFCURVE",
"340 489 CURVE SMOOTH"
);
}
);
};
layerId = "CF479DE4-94A2-4865-8D1E-65EA355866D4";
paths = (
{
closed = 1;
nodes = (
"271 0 LINE",
"276 37 LINE",
"244 41 OFFCURVE",
"213 47 OFFCURVE",
"186 63 CURVE",
"202 167 LINE",
"215 166 OFFCURVE",
"230 165 OFFCURVE",
"244 165 CURVE SMOOTH",
"402 165 OFFCURVE",
"539 213 OFFCURVE",
"539 390 CURVE SMOOTH",
"539 479 OFFCURVE",
"480 531 OFFCURVE",
"346 531 CURVE SMOOTH",
"260 531 LINE",
"272 604 LINE",
"300 620 OFFCURVE",
"325 626 OFFCURVE",
"357 630 CURVE",
"362 667 LINE",
"103 667 LINE",
"98 630 LINE",
"131 626 OFFCURVE",
"159 619 OFFCURVE",
"184 604 CURVE",
"97 63 LINE",
"69 46 OFFCURVE",
"44 41 OFFCURVE",
"12 37 CURVE",
"7 0 LINE"
);
},
{
closed = 1;
nodes = (
"252 481 LINE",
"271 483 OFFCURVE",
"295 489 OFFCURVE",
"340 489 CURVE SMOOTH",
"409 489 OFFCURVE",
"449 456 OFFCURVE",
"449 388 CURVE SMOOTH",
"449 264 OFFCURVE",
"366 212 OFFCURVE",
"251 212 CURVE SMOOTH",
"209 212 LINE"
);
}
);
width = 560;
},
{
background = {
paths = (
{
closed = 1;
nodes = (
"284 39 LINE",
"250 46 OFFCURVE",
"226 57 OFFCURVE",
"214 71 CURVE",
"227 153 LINE",
"241 152 OFFCURVE",
"271 150 OFFCURVE",
"291 150 CURVE SMOOTH",
"479 150 OFFCURVE",
"601 234 OFFCURVE",
"601 386 CURVE SMOOTH",
"601 487 OFFCURVE",
"523 537 OFFCURVE",
"366 537 CURVE SMOOTH",
"284 537 LINE",
"293 596 LINE",
"316 613 OFFCURVE",
"334 620 OFFCURVE",
"367 626 CURVE",
"380 667 LINE",
"105 667 LINE",
"94 628 LINE",
"122 618 OFFCURVE",
"139 608 OFFCURVE",
"150 596 CURVE",
"67 71 LINE",
"46 53 OFFCURVE",
"31 46 OFFCURVE",
"5 41 CURVE",
"-5 0 LINE",
"271 0 LINE"
);
},
{
closed = 1;
nodes = (
"445 275 OFFCURVE",
"396 213 OFFCURVE",
"302 213 CURVE SMOOTH",
"237 213 LINE",
"278 472 LINE",
"297 475 OFFCURVE",
"315 476 OFFCURVE",
"343 476 CURVE SMOOTH",
"409 476 OFFCURVE",
"445 439 OFFCURVE",
"445 374 CURVE SMOOTH"
);
},
{
closed = 1;
nodes = (
"217 153 LINE",
"231 152 OFFCURVE",
"271 150 OFFCURVE",
"291 150 CURVE SMOOTH",
"479 150 OFFCURVE",
"601 234 OFFCURVE",
"601 386 CURVE SMOOTH",
"601 487 OFFCURVE",
"523 537 OFFCURVE",
"366 537 CURVE SMOOTH",
"274 537 LINE",
"268 472 LINE",
"287 475 OFFCURVE",
"315 476 OFFCURVE",
"343 476 CURVE SMOOTH",
"409 476 OFFCURVE",
"445 439 OFFCURVE",
"445 374 CURVE SMOOTH",
"445 275 OFFCURVE",
"396 213 OFFCURVE",
"302 213 CURVE SMOOTH",
"227 213 LINE"
);
},
{
closed = 1;
nodes = (
"112 622 OFFCURVE",
"139 610 OFFCURVE",
"150 596 CURVE",
"67 71 LINE",
"46 55 OFFCURVE",
"28 46 OFFCURVE",
"-5 41 CURVE",
"-10 0 LINE",
"276 0 LINE",
"281 41 LINE",
"249 48 OFFCURVE",
"227 57 OFFCURVE",
"214 71 CURVE",
"297 596 LINE",
"320 613 OFFCURVE",
"337 620 OFFCURVE",
"370 626 CURVE",
"376 667 LINE",
"90 667 LINE",
"84 626 LINE"
);
}
);
};
layerId = "0FAD76F5-9F58-4721-BF81-08BC6166EF10";
paths = (
{
closed = 1;
nodes = (
"276 0 LINE",
"281 41 LINE",
"249 48 OFFCURVE",
"227 57 OFFCURVE",
"214 71 CURVE",
"227 152 LINE",
"245 151 OFFCURVE",
"275 150 OFFCURVE",
"291 150 CURVE SMOOTH",
"479 150 OFFCURVE",
"601 234 OFFCURVE",
"601 386 CURVE SMOOTH",
"601 487 OFFCURVE",
"523 537 OFFCURVE",
"366 537 CURVE SMOOTH",
"288 537 LINE",
"297 596 LINE",
"320 613 OFFCURVE",
"337 620 OFFCURVE",
"370 626 CURVE",
"376 667 LINE",
"90 667 LINE",
"84 626 LINE",
"112 622 OFFCURVE",
"139 610 OFFCURVE",
"150 596 CURVE",
"67 71 LINE",
"46 55 OFFCURVE",
"28 46 OFFCURVE",
"-5 41 CURVE",
"-10 0 LINE"
);
},
{
closed = 1;
nodes = (
"278 473 LINE",
"296 475 OFFCURVE",
"319 476 OFFCURVE",
"343 476 CURVE SMOOTH",
"409 476 OFFCURVE",
"445 439 OFFCURVE",
"445 374 CURVE SMOOTH",
"445 275 OFFCURVE",
"396 213 OFFCURVE",
"302 213 CURVE SMOOTH",
"236 213 LINE"
);
}
);
width = 601;
}
);
leftKerningGroup = H;
unicode = 00DE;
},
{
color = 4;
glyphname = Q;
lastChange = "2019-11-22 04:42:42 +0000";
layers = (
{
background = {
anchors = (
{
name = top;
position = "{408, 705}";
}
);
paths = (
{
closed = 1;
nodes = (
"165 675 OFFCURVE",
"61 457 OFFCURVE",
"61 234 CURVE SMOOTH",
"61 85 OFFCURVE",
"119 2 OFFCURVE",
"256 -6 CURVE",
"281 -81 OFFCURVE",
"336 -148 OFFCURVE",
"451 -168 CURVE",
"461 -161 OFFCURVE",
"465 -151 OFFCURVE",
"466 -138 CURVE",
"400 -114 OFFCURVE",
"350 -64 OFFCURVE",
"336 -2 CURVE",
"519 31 OFFCURVE",
"606 229 OFFCURVE",
"606 433 CURVE SMOOTH",
"606 591 OFFCURVE",
"542 675 OFFCURVE",
"387 675 CURVE SMOOTH",
"387 675 LINE"
);
},
{
closed = 1;
nodes = (
"192 40 OFFCURVE",
"160 103 OFFCURVE",
"160 216 CURVE SMOOTH",
"160 464 OFFCURVE",
"259 627 OFFCURVE",
"394 627 CURVE SMOOTH",
"477 627 OFFCURVE",
"508 562 OFFCURVE",
"508 446 CURVE SMOOTH",
"508 201 OFFCURVE",
"407 40 OFFCURVE",
"274 40 CURVE SMOOTH",
"274 40 LINE"
);
}
);
};
layerId = "CF479DE4-94A2-4865-8D1E-65EA355866D4";
paths = (
{
closed = 1;
nodes = (
"461 -161 OFFCURVE",
"465 -151 OFFCURVE",
"466 -138 CURVE",
"400 -114 OFFCURVE",
"350 -64 OFFCURVE",
"336 -2 CURVE",
"519 31 OFFCURVE",
"606 229 OFFCURVE",
"606 433 CURVE SMOOTH",
"606 591 OFFCURVE",
"542 675 OFFCURVE",
"387 675 CURVE SMOOTH",
"165 675 OFFCURVE",
"61 457 OFFCURVE",
"61 234 CURVE SMOOTH",
"61 85 OFFCURVE",
"119 2 OFFCURVE",
"256 -6 CURVE",
"281 -81 OFFCURVE",
"336 -148 OFFCURVE",
"451 -168 CURVE"
);
},
{
closed = 1;
nodes = (
"192 40 OFFCURVE",
"160 103 OFFCURVE",
"160 216 CURVE SMOOTH",
"160 464 OFFCURVE",
"259 627 OFFCURVE",
"394 627 CURVE SMOOTH",
"477 627 OFFCURVE",
"508 562 OFFCURVE",
"508 446 CURVE SMOOTH",
"508 201 OFFCURVE",
"407 40 OFFCURVE",
"274 40 CURVE SMOOTH"
);
}
);
width = 622;
},
{
background = {
paths = (
{
closed = 1;
nodes = (
"48 85 OFFCURVE",
"132 -10 OFFCURVE",
"300 -10 CURVE SMOOTH",
"542 -10 OFFCURVE",
"661 155 OFFCURVE",
"661 413 CURVE SMOOTH",
"661 584 OFFCURVE",
"578 678 OFFCURVE",
"409 678 CURVE SMOOTH",
"170 678 OFFCURVE",
"48 516 OFFCURVE",
"48 257 CURVE SMOOTH"
);
}
);
};
layerId = "0FAD76F5-9F58-4721-BF81-08BC6166EF10";
paths = (
{
closed = 1;
nodes = (
"477 -168 OFFCURVE",
"485 -153 OFFCURVE",
"485 -138 CURVE",
"426 -114 OFFCURVE",
"379 -66 OFFCURVE",
"370 -5 CURVE",
"565 24 OFFCURVE",
"661 181 OFFCURVE",
"661 413 CURVE SMOOTH",
"661 584 OFFCURVE",
"578 678 OFFCURVE",
"409 678 CURVE SMOOTH",
"170 678 OFFCURVE",
"48 516 OFFCURVE",
"48 257 CURVE SMOOTH",
"48 105 OFFCURVE",
"113 13 OFFCURVE",
"244 -6 CURVE",
"271 -84 OFFCURVE",
"333 -153 OFFCURVE",
"467 -174 CURVE"
);
},
{
closed = 1;
nodes = (
"219 50 OFFCURVE",
"208 130 OFFCURVE",
"208 220 CURVE SMOOTH",
"208 353 OFFCURVE",
"266 620 OFFCURVE",
"399 620 CURVE SMOOTH",
"489 620 OFFCURVE",
"500 540 OFFCURVE",
"500 450 CURVE SMOOTH",
"500 317 OFFCURVE",
"442 50 OFFCURVE",
"309 50 CURVE SMOOTH"
);
}
);
width = 675;
}
);
unicode = 0051;
},
{
color = 4;
glyphname = R;
lastChange = "2019-11-22 04:50:59 +0000";
layers = (
{
anchors = (
{
name = bottom;
position = "{337, 0}";
},
{
name = top;
position = "{362, 705}";
}
);
background = {
anchors = (
{
name = bottom;
position = "{337, 0}";
},
{
name = cedilla;
position = "{305, 0}";
},
{
name = top;
position = "{362, 705}";
}
);
paths = (
{
closed = 1;
nodes = (
"100 630 LINE",
"133 626 OFFCURVE",
"161 619 OFFCURVE",
"186 604 CURVE",
"100 63 LINE",
"72 46 OFFCURVE",
"46 41 OFFCURVE",
"14 37 CURVE",
"9 0 LINE",
"273 0 LINE",
"278 37 LINE",
"246 41 OFFCURVE",
"215 47 OFFCURVE",
"188 62 CURVE",
"226 306 LINE",
"245 306 LINE SMOOTH",
"328 306 OFFCURVE",
"336 299 OFFCURVE",
"355 219 CURVE SMOOTH",
"390 69 LINE SMOOTH",
"404 9 OFFCURVE",
"423 0 OFFCURVE",
"470 0 CURVE SMOOTH",
"557 0 LINE",
"568 38 LINE",
"532 42 OFFCURVE",
"491 54 OFFCURVE",
"484 80 CURVE SMOOTH",
"440 236 LINE SMOOTH",
"427 280 OFFCURVE",
"413 307 OFFCURVE",
"388 322 CURVE",
"489 349 OFFCURVE",
"547 417 OFFCURVE",
"547 523 CURVE SMOOTH",
"547 619 OFFCURVE",
"478 667 OFFCURVE",
"345 667 CURVE SMOOTH",
"105 667 LINE"
);
},
{
closed = 1;
nodes = (
"272 592 LINE",
"278 620 OFFCURVE",
"289 625 OFFCURVE",
"338 625 CURVE SMOOTH",
"417 625 OFFCURVE",
"456 590 OFFCURVE",
"456 521 CURVE SMOOTH",
"456 392 OFFCURVE",
"355 352 OFFCURVE",
"250 352 CURVE SMOOTH",
"234 352 LINE"
);
}
);
};
layerId = "CF479DE4-94A2-4865-8D1E-65EA355866D4";
paths = (
{
closed = 1;
nodes = (
"273 0 LINE",
"278 37 LINE",
"246 41 OFFCURVE",
"215 47 OFFCURVE",
"188 62 CURVE",
"226 306 LINE",
"245 306 LINE SMOOTH",
"328 306 OFFCURVE",
"336 299 OFFCURVE",
"355 219 CURVE SMOOTH",
"390 69 LINE SMOOTH",
"404 9 OFFCURVE",
"423 0 OFFCURVE",
"470 0 CURVE SMOOTH",
"557 0 LINE",
"568 38 LINE",
"532 42 OFFCURVE",
"491 54 OFFCURVE",
"484 80 CURVE SMOOTH",
"440 236 LINE SMOOTH",
"427 280 OFFCURVE",
"413 307 OFFCURVE",
"388 322 CURVE",
"489 349 OFFCURVE",
"547 417 OFFCURVE",
"547 523 CURVE SMOOTH",
"547 619 OFFCURVE",
"478 667 OFFCURVE",
"345 667 CURVE SMOOTH",
"105 667 LINE",
"100 630 LINE",
"133 626 OFFCURVE",
"161 619 OFFCURVE",
"186 604 CURVE",
"100 63 LINE",
"72 46 OFFCURVE",
"46 41 OFFCURVE",
"14 37 CURVE",
"9 0 LINE"
);
},
{
closed = 1;
nodes = (
"272 592 LINE",
"278 620 OFFCURVE",
"289 625 OFFCURVE",
"338 625 CURVE SMOOTH",
"417 625 OFFCURVE",
"456 590 OFFCURVE",
"456 521 CURVE SMOOTH",
"456 392 OFFCURVE",
"355 352 OFFCURVE",
"250 352 CURVE SMOOTH",
"234 352 LINE"
);
}
);
width = 590;
},
{
anchors = (
{
name = bottom;
position = "{343, 0}";
},
{
name = top;
position = "{377, 705}";
}
);
layerId = "0FAD76F5-9F58-4721-BF81-08BC6166EF10";
paths = (
{
closed = 1;
nodes = (
"280 0 LINE",
"285 41 LINE",
"253 48 OFFCURVE",
"231 57 OFFCURVE",
"218 71 CURVE",
"255 302 LINE",
"263 302 LINE SMOOTH",
"292 302 OFFCURVE",
"320 295 OFFCURVE",
"329 262 CURVE SMOOTH",
"381 66 LINE SMOOTH",
"390 22 OFFCURVE",
"425 0 OFFCURVE",
"469 0 CURVE SMOOTH",
"595 0 LINE",
"600 41 LINE",
"570 46 OFFCURVE",
"540 59 OFFCURVE",
"535 76 CURVE SMOOTH",
"483 252 LINE SMOOTH",
"473 287 OFFCURVE",
"451 311 OFFCURVE",
"424 324 CURVE",
"527 353 OFFCURVE",
"606 415 OFFCURVE",
"606 519 CURVE SMOOTH",
"606 617 OFFCURVE",
"532 667 OFFCURVE",
"376 667 CURVE SMOOTH",
"94 667 LINE",
"88 626 LINE",
"116 622 OFFCURVE",
"143 610 OFFCURVE",
"154 596 CURVE",
"71 71 LINE",
"50 55 OFFCURVE",
"32 46 OFFCURVE",
"-1 41 CURVE",
"-6 0 LINE"
);
},
{
closed = 1;
nodes = (
"297 566 LINE SMOOTH",
"303 600 OFFCURVE",
"311 606 OFFCURVE",
"359 606 CURVE SMOOTH",
"435 606 OFFCURVE",
"458 568 OFFCURVE",
"458 515 CURVE SMOOTH",
"458 448 OFFCURVE",
"410 363 OFFCURVE",
"271 363 CURVE SMOOTH",
"264 363 LINE"
);
}
);
width = 632;
}
);
unicode = 0052;
},
{
color = 4;
glyphname = S;
lastChange = "2019-11-22 05:06:26 +0000";
layers = (
{
anchors = (
{
name = bottom;
position = "{208, 0}";
},
{
name = cedilla;
position = "{192, 0}";
},
{
name = top;
position = "{330, 667}";
}
);
background = {
anchors = (
{
name = bottom;
position = "{259, 0}";
},
{
name = cedilla;
position = "{192, 0}";
},
{
name = top;
position = "{330, 705}";
}
);
paths = (
{
closed = 1;
nodes = (
"363 622 OFFCURVE",
"386 597 OFFCURVE",
"386 569 CURVE SMOOTH",
"386 555 OFFCURVE",
"380 539 OFFCURVE",
"368 525 CURVE",
"370 506 OFFCURVE",
"390 492 OFFCURVE",
"417 492 CURVE SMOOTH",
"460 492 OFFCURVE",
"481 532 OFFCURVE",
"481 565 CURVE SMOOTH",
"481 622 OFFCURVE",
"435 675 OFFCURVE",
"332 675 CURVE SMOOTH",
"227 675 OFFCURVE",
"116 607 OFFCURVE",
"116 476 CURVE SMOOTH",
"116 342 OFFCURVE",
"323 252 OFFCURVE",
"323 147 CURVE SMOOTH",
"323 87 OFFCURVE",
"275 46 OFFCURVE",
"215 46 CURVE SMOOTH",
"175 46 OFFCURVE",
"133 61 OFFCURVE",
"111 83 CURVE",
"108 96 OFFCURVE",
"106 114 OFFCURVE",
"106 132 CURVE SMOOTH",
"106 154 OFFCURVE",
"108 178 OFFCURVE",
"112 201 CURVE",
"66 208 LINE",
"22 44 LINE",
"69 15 OFFCURVE",
"121 -7 OFFCURVE",
"193 -7 CURVE SMOOTH",
"281 -7 OFFCURVE",
"414 36 OFFCURVE",
"414 182 CURVE SMOOTH",
"414 333 OFFCURVE",
"204 413 OFFCURVE",
"204 521 CURVE SMOOTH",
"204 581 OFFCURVE",
"252 624 OFFCURVE",
"312 624 CURVE",
"312 624 LINE"
);
}
);
};
layerId = "CF479DE4-94A2-4865-8D1E-65EA355866D4";
paths = (
{
closed = 1;
nodes = (
"281 -7 OFFCURVE",
"414 36 OFFCURVE",
"414 182 CURVE SMOOTH",
"414 259 OFFCURVE",
"360 317 OFFCURVE",
"307 370 CURVE SMOOTH",
"255 421 OFFCURVE",
"204 468 OFFCURVE",
"204 521 CURVE SMOOTH",
"204 581 OFFCURVE",
"252 624 OFFCURVE",
"312 624 CURVE SMOOTH",
"363 622 OFFCURVE",
"386 597 OFFCURVE",
"386 569 CURVE SMOOTH",
"386 555 OFFCURVE",
"380 539 OFFCURVE",
"368 525 CURVE",
"370 506 OFFCURVE",
"390 492 OFFCURVE",
"417 492 CURVE SMOOTH",
"460 492 OFFCURVE",
"481 532 OFFCURVE",
"481 565 CURVE SMOOTH",
"481 622 OFFCURVE",
"435 675 OFFCURVE",
"332 675 CURVE SMOOTH",
"227 675 OFFCURVE",
"116 607 OFFCURVE",
"116 476 CURVE SMOOTH",
"116 414 OFFCURVE",
"160 361 OFFCURVE",
"208 312 CURVE SMOOTH",
"263 255 OFFCURVE",
"323 203 OFFCURVE",
"323 147 CURVE SMOOTH",
"323 87 OFFCURVE",
"275 46 OFFCURVE",
"215 46 CURVE SMOOTH",
"175 46 OFFCURVE",
"133 61 OFFCURVE",
"111 83 CURVE",
"108 96 OFFCURVE",
"106 114 OFFCURVE",
"106 132 CURVE SMOOTH",
"106 154 OFFCURVE",
"108 178 OFFCURVE",
"112 201 CURVE",
"66 208 LINE",
"22 44 LINE",
"69 15 OFFCURVE",
"121 -7 OFFCURVE",
"193 -7 CURVE SMOOTH"
);
}
);
width = 481;
},
{
anchors = (
{
name = bottom;
position = "{233, 0}";
},
{
name = cedilla;
position = "{233, 0}";
},
{
name = top;
position = "{318, 667}";
}
);
background = {
paths = (
{
closed = 1;
nodes = (
"56 221 LINE",
"6 44 LINE",
"64 11 OFFCURVE",
"138 -7 OFFCURVE",
"212 -7 CURVE SMOOTH",
"359 -7 OFFCURVE",
"466 82 OFFCURVE",
"466 222 CURVE SMOOTH",
"466 305 OFFCURVE",
"423 363 OFFCURVE",
"318 412 CURVE SMOOTH",
"241 447 OFFCURVE",
"212 476 OFFCURVE",
"212 524 CURVE SMOOTH",
"212 584 OFFCURVE",
"257 621 OFFCURVE",
"319 621 CURVE SMOOTH",
"369 621 OFFCURVE",
"399 601 OFFCURVE",
"399 568 CURVE SMOOTH",
"399 547 OFFCURVE",
"385 522 OFFCURVE",
"363 501 CURVE",
"387 480 OFFCURVE",
"410 471 OFFCURVE",
"435 471 CURVE SMOOTH",
"479 471 OFFCURVE",
"512 507 OFFCURVE",
"512 556 CURVE SMOOTH",
"512 622 OFFCURVE",
"433 675 OFFCURVE",
"326 675 CURVE SMOOTH",
"185 675 OFFCURVE",
"69 586 OFFCURVE",
"69 458 CURVE SMOOTH",
"69 379 OFFCURVE",
"112 332 OFFCURVE",
"216 286 CURVE SMOOTH",
"283 256 OFFCURVE",
"315 218 OFFCURVE",
"315 161 CURVE SMOOTH",
"315 92 OFFCURVE",
"269 48 OFFCURVE",
"211 48 CURVE SMOOTH",
"183 48 OFFCURVE",
"143 59 OFFCURVE",
"115 82 CURVE",
"113 96 OFFCURVE",
"112 110 OFFCURVE",
"112 127 CURVE SMOOTH",
"112 150 OFFCURVE",
"114 177 OFFCURVE",
"118 210 CURVE"
);
}
);
};
layerId = "0FAD76F5-9F58-4721-BF81-08BC6166EF10";
paths = (
{
closed = 1;
nodes = (
"359 -7 OFFCURVE",
"466 82 OFFCURVE",
"466 222 CURVE SMOOTH",
"466 305 OFFCURVE",
"423 363 OFFCURVE",
"318 412 CURVE SMOOTH",
"241 447 OFFCURVE",
"212 476 OFFCURVE",
"212 524 CURVE SMOOTH",
"212 584 OFFCURVE",
"257 621 OFFCURVE",
"319 621 CURVE SMOOTH",
"369 621 OFFCURVE",
"399 601 OFFCURVE",
"399 568 CURVE SMOOTH",
"399 547 OFFCURVE",
"385 522 OFFCURVE",
"363 501 CURVE",
"387 480 OFFCURVE",
"410 471 OFFCURVE",
"435 471 CURVE SMOOTH",
"479 471 OFFCURVE",
"512 507 OFFCURVE",
"512 556 CURVE SMOOTH",
"512 622 OFFCURVE",
"433 675 OFFCURVE",
"326 675 CURVE SMOOTH",
"185 675 OFFCURVE",
"69 586 OFFCURVE",
"69 458 CURVE SMOOTH",
"69 379 OFFCURVE",
"112 332 OFFCURVE",
"216 286 CURVE SMOOTH",
"283 256 OFFCURVE",
"315 218 OFFCURVE",
"315 161 CURVE SMOOTH",
"315 92 OFFCURVE",
"269 50 OFFCURVE",
"211 50 CURVE SMOOTH",
"183 50 OFFCURVE",
"153 59 OFFCURVE",
"125 82 CURVE",
"123 96 OFFCURVE",
"122 110 OFFCURVE",
"122 127 CURVE SMOOTH",
"122 150 OFFCURVE",
"125 175 OFFCURVE",
"129 208 CURVE",
"56 221 LINE",
"6 44 LINE",
"64 11 OFFCURVE",
"138 -7 OFFCURVE",
"212 -7 CURVE SMOOTH"
);
}
);
width = 501;
}
);
unicode = 0053;
},
{
color = 4;
glyphname = T;
lastChange = "2019-11-22 05:10:00 +0000";
layers = (
{
anchors = (
{
name = bottom;
position = "{257, 0}";
},
{
name = top;
position = "{361, 705}";
}
);
background = {
anchors = (
{
name = bottom;
position = "{296, 0}";
},
{
name = cedilla;
position = "{251, 0}";
},
{
name = top;
position = "{362, 705}";
}
);
paths = (
{
closed = 1;
nodes = (
"399 0 LINE",
"404 37 LINE",
"372 41 OFFCURVE",
"332 47 OFFCURVE",
"304 62 CURVE",
"392 615 LINE",
"452 614 OFFCURVE",
"492 613 OFFCURVE",
"520 611 CURVE",
"534 583 OFFCURVE",
"538 550 OFFCURVE",
"538 524 CURVE SMOOTH",
"538 515 OFFCURVE",
"538 508 OFFCURVE",
"537 501 CURVE",
"544 500 OFFCURVE",
"552 499 OFFCURVE",
"560 499 CURVE SMOOTH",
"567 499 OFFCURVE",
"574 499 OFFCURVE",
"582 501 CURVE",
"608 670 LINE",
"608 670 OFFCURVE",
"437 667 OFFCURVE",
"341 667 CURVE SMOOTH",
"218 667 OFFCURVE",
"120 670 OFFCURVE",
"98 670 CURVE",
"72 501 LINE",
"78 499 OFFCURVE",
"85 499 OFFCURVE",
"92 499 CURVE SMOOTH",
"100 499 OFFCURVE",
"108 500 OFFCURVE",
"116 501 CURVE",
"122 529 OFFCURVE",
"140 576 OFFCURVE",
"169 613 CURVE",
"197 614 OFFCURVE",
"239 615 OFFCURVE",
"304 615 CURVE",
"215 62 LINE",
"187 45 OFFCURVE",
"152 40 OFFCURVE",
"121 37 CURVE",
"115 0 LINE"
);
},
{
closed = 1;
nodes = (
"399 0 LINE",
"404 37 LINE",
"372 41 OFFCURVE",
"332 47 OFFCURVE",
"304 62 CURVE",
"392 615 LINE",
"452 614 OFFCURVE",
"492 613 OFFCURVE",
"520 611 CURVE",
"534 583 OFFCURVE",
"538 550 OFFCURVE",
"538 524 CURVE SMOOTH",
"538 515 OFFCURVE",
"538 508 OFFCURVE",
"537 501 CURVE",
"544 500 OFFCURVE",
"552 499 OFFCURVE",
"560 499 CURVE SMOOTH",
"567 499 OFFCURVE",
"574 499 OFFCURVE",
"582 501 CURVE",
"608 670 LINE",
"608 670 OFFCURVE",
"437 667 OFFCURVE",
"341 667 CURVE SMOOTH",
"218 667 OFFCURVE",
"120 670 OFFCURVE",
"98 670 CURVE",
"72 501 LINE",
"78 499 OFFCURVE",
"85 499 OFFCURVE",
"92 499 CURVE SMOOTH",
"100 499 OFFCURVE",
"108 500 OFFCURVE",
"116 501 CURVE",
"122 529 OFFCURVE",
"140 576 OFFCURVE",
"169 613 CURVE",
"197 614 OFFCURVE",
"239 615 OFFCURVE",
"304 615 CURVE",
"215 62 LINE",
"187 45 OFFCURVE",
"152 40 OFFCURVE",
"121 37 CURVE",
"115 0 LINE"
);
}
);
};
layerId = "CF479DE4-94A2-4865-8D1E-65EA355866D4";
paths = (
{
closed = 1;
nodes = (
"399 0 LINE",
"404 37 LINE",
"372 41 OFFCURVE",
"332 47 OFFCURVE",
"304 62 CURVE",
"392 615 LINE",
"452 614 OFFCURVE",
"492 613 OFFCURVE",
"520 611 CURVE",
"536 580 OFFCURVE",
"541 538 OFFCURVE",
"537 501 CURVE",
"544 500 OFFCURVE",
"552 499 OFFCURVE",
"560 499 CURVE SMOOTH",
"567 499 OFFCURVE",
"574 499 OFFCURVE",
"582 501 CURVE",
"608 670 LINE",
"608 670 OFFCURVE",
"437 667 OFFCURVE",
"341 667 CURVE SMOOTH",
"218 667 OFFCURVE",
"120 670 OFFCURVE",
"98 670 CURVE",
"72 501 LINE",
"78 499 OFFCURVE",
"85 499 OFFCURVE",
"92 499 CURVE SMOOTH",
"100 499 OFFCURVE",
"108 500 OFFCURVE",
"116 501 CURVE",
"122 529 OFFCURVE",
"140 576 OFFCURVE",
"169 613 CURVE",
"197 614 OFFCURVE",
"239 615 OFFCURVE",
"304 615 CURVE",
"215 62 LINE",
"187 45 OFFCURVE",
"152 40 OFFCURVE",
"121 37 CURVE",
"115 0 LINE"
);
}
);
width = 574;
},
{
anchors = (
{
name = bottom;
position = "{268, 0}";
},
{
name = top;
position = "{373, 705}";
}
);
layerId = "0FAD76F5-9F58-4721-BF81-08BC6166EF10";
paths = (
{
closed = 1;
nodes = (
"431 0 LINE",
"436 41 LINE",
"404 48 OFFCURVE",
"362 57 OFFCURVE",
"349 71 CURVE",
"434 606 LINE",
"473 605 OFFCURVE",
"496 602 OFFCURVE",
"526 598 CURVE",
"538 571 OFFCURVE",
"543 528 OFFCURVE",
"543 483 CURVE",
"555 481 OFFCURVE",
"567 480 OFFCURVE",
"579 480 CURVE SMOOTH",
"590 480 OFFCURVE",
"601 481 OFFCURVE",
"612 483 CURVE",
"642 671 LINE",
"628 670 OFFCURVE",
"451 667 OFFCURVE",
"370 667 CURVE SMOOTH",
"236 667 OFFCURVE",
"99 671 OFFCURVE",
"99 671 CURVE",
"69 483 LINE",
"80 481 OFFCURVE",
"91 480 OFFCURVE",
"102 480 CURVE SMOOTH",
"114 480 OFFCURVE",
"126 481 OFFCURVE",
"138 483 CURVE",
"146 522 OFFCURVE",
"169 570 OFFCURVE",
"195 599 CURVE",
"224 601 OFFCURVE",
"248 604 OFFCURVE",
"287 605 CURVE",
"202 71 LINE",
"181 55 OFFCURVE",
"143 46 OFFCURVE",
"110 41 CURVE",
"105 0 LINE"
);
}
);
width = 603;
}
);
unicode = 0054;
},
{
glyphname = Tbar;
lastChange = "2019-11-20 03:09:55 +0000";
layers = (
{
background = {
components = (
{
name = T;
}
);
paths = (
{
closed = 1;
nodes = (
"468 306 LINE",
"475 350 LINE",
"126 350 LINE",
"119 306 LINE"
);
}
);
};
components = (
{
name = T;
}
);
layerId = "CF479DE4-94A2-4865-8D1E-65EA355866D4";
paths = (
{
closed = 1;
nodes = (
"468 306 LINE",
"475 350 LINE",
"126 350 LINE",
"119 306 LINE"
);
}
);
width = 574;
},
{
background = {
paths = (
{
closed = 1;
nodes = (
"117 297 LINE",
"239 297 LINE",
"203 71 LINE",
"181 54 OFFCURVE",
"158 45 OFFCURVE",
"126 41 CURVE",
"116 0 LINE",
"407 0 LINE",
"420 41 LINE",
"385 48 OFFCURVE",
"362 58 OFFCURVE",
"350 71 CURVE",
"386 297 LINE",
"508 297 LINE",
"518 360 LINE",
"396 360 LINE",
"435 606 LINE",
"474 605 OFFCURVE",
"507 602 OFFCURVE",
"537 598 CURVE",
"547 575 OFFCURVE",
"555 540 OFFCURVE",
"555 502 CURVE SMOOTH",
"555 496 OFFCURVE",
"554 489 OFFCURVE",
"554 483 CURVE",
"566 481 OFFCURVE",
"578 480 OFFCURVE",
"590 480 CURVE SMOOTH",
"601 480 OFFCURVE",
"612 481 OFFCURVE",
"623 483 CURVE",
"653 671 LINE",
"639 670 OFFCURVE",
"452 667 OFFCURVE",
"371 667 CURVE SMOOTH",
"237 667 OFFCURVE",
"90 671 OFFCURVE",
"90 671 CURVE",
"60 483 LINE",
"71 481 OFFCURVE",
"82 480 OFFCURVE",
"93 480 CURVE SMOOTH",
"105 480 OFFCURVE",
"117 481 OFFCURVE",
"129 483 CURVE",
"137 522 OFFCURVE",
"160 570 OFFCURVE",
"186 599 CURVE",
"215 601 OFFCURVE",
"249 604 OFFCURVE",
"288 605 CURVE",
"249 360 LINE",
"127 360 LINE"
);
}
);
};
components = (
{
name = T;
transform = "{1, 0, 0, 1, 1, 0}";
}
);
layerId = "0FAD76F5-9F58-4721-BF81-08BC6166EF10";
paths = (
{
closed = 1;
nodes = (
"502 294 LINE",
"513 362 LINE",
"129 362 LINE",
"118 294 LINE"
);
}
);
width = 603;
}
);
unicode = 0166;
},
{
color = 4;
glyphname = U;
lastChange = "2019-11-22 05:09:57 +0000";
layers = (
{
anchors = (
{
name = ogonek;
position = "{346, 0}";
},
{
name = top;
position = "{392, 667}";
}
);
background = {
anchors = (
{
name = ogonek;
position = "{346, 0}";
},
{
name = top;
position = "{393, 705}";
}
);
paths = (
{
closed = 1;
nodes = (
"445 667 LINE",
"440 630 LINE",
"473 626 OFFCURVE",
"501 619 OFFCURVE",
"526 604 CURVE",
"463 212 LINE SMOOTH",
"446 104 OFFCURVE",
"385 45 OFFCURVE",
"292 45 CURVE SMOOTH",
"213 45 OFFCURVE",
"173 77 OFFCURVE",
"173 157 CURVE SMOOTH",
"173 172 OFFCURVE",
"174 188 OFFCURVE",
"177 207 CURVE SMOOTH",
"241 605 LINE",
"268 620 OFFCURVE",
"293 626 OFFCURVE",
"324 630 CURVE",
"330 667 LINE",
"70 667 LINE",
"65 630 LINE",
"98 626 OFFCURVE",
"127 619 OFFCURVE",
"151 604 CURVE",
"87 207 LINE SMOOTH",
"84 186 OFFCURVE",
"82 167 OFFCURVE",
"82 150 CURVE SMOOTH",
"82 42 OFFCURVE",
"144 -7 OFFCURVE",
"282 -7 CURVE SMOOTH",
"418 -7 OFFCURVE",
"505 72 OFFCURVE",
"527 212 CURVE SMOOTH",
"590 605 LINE",
"617 620 OFFCURVE",
"642 626 OFFCURVE",
"673 630 CURVE",
"679 667 LINE"
);
}
);
};
layerId = "CF479DE4-94A2-4865-8D1E-65EA355866D4";
paths = (
{
closed = 1;
nodes = (
"418 -7 OFFCURVE",
"505 72 OFFCURVE",
"527 212 CURVE SMOOTH",
"590 605 LINE",
"617 620 OFFCURVE",
"642 626 OFFCURVE",
"673 630 CURVE",
"679 667 LINE",
"445 667 LINE",
"440 630 LINE",
"473 626 OFFCURVE",
"501 619 OFFCURVE",
"526 604 CURVE",
"463 212 LINE SMOOTH",
"446 104 OFFCURVE",
"385 45 OFFCURVE",
"292 45 CURVE SMOOTH",
"213 45 OFFCURVE",
"173 77 OFFCURVE",
"173 157 CURVE SMOOTH",
"173 172 OFFCURVE",
"174 188 OFFCURVE",
"177 207 CURVE SMOOTH",
"241 605 LINE",
"268 620 OFFCURVE",
"293 626 OFFCURVE",
"324 630 CURVE",
"330 667 LINE",
"70 667 LINE",
"65 630 LINE",
"98 626 OFFCURVE",
"127 619 OFFCURVE",
"151 604 CURVE",
"87 207 LINE SMOOTH",
"84 186 OFFCURVE",
"82 167 OFFCURVE",
"82 150 CURVE SMOOTH",
"82 42 OFFCURVE",
"144 -7 OFFCURVE",
"282 -7 CURVE SMOOTH"
);
}
);
width = 632;
},
{
anchors = (
{
name = ogonek;
position = "{377, 0}";
},
{
name = top;
position = "{427, 667}";
}
);
background = {
paths = (
{
closed = 1;
nodes = (
"468 626 LINE",
"496 622 OFFCURVE",
"523 610 OFFCURVE",
"534 596 CURVE",
"473 213 LINE SMOOTH",
"456 106 OFFCURVE",
"388 77 OFFCURVE",
"328 77 CURVE SMOOTH",
"256 77 OFFCURVE",
"225 106 OFFCURVE",
"225 182 CURVE SMOOTH",
"225 255 OFFCURVE",
"283 596 OFFCURVE",
"284 596 CURVE SMOOTH",
"307 613 OFFCURVE",
"324 620 OFFCURVE",
"357 626 CURVE",
"363 667 LINE",
"77 667 LINE",
"71 626 LINE",
"99 622 OFFCURVE",
"126 610 OFFCURVE",
"137 596 CURVE",
"77 209 LINE SMOOTH",
"74 193 OFFCURVE",
"73 177 OFFCURVE",
"73 163 CURVE SMOOTH",
"73 45 OFFCURVE",
"164 -7 OFFCURVE",
"298 -7 CURVE SMOOTH",
"463 -7 OFFCURVE",
"553 58 OFFCURVE",
"577 208 CURVE SMOOTH",
"638 596 LINE",
"661 613 OFFCURVE",
"678 620 OFFCURVE",
"711 626 CURVE",
"717 667 LINE",
"474 667 LINE"
);
}
);
};
layerId = "0FAD76F5-9F58-4721-BF81-08BC6166EF10";
paths = (
{
closed = 1;
nodes = (
"489 -7 OFFCURVE",
"558 83 OFFCURVE",
"583 245 CURVE SMOOTH",
"637 596 LINE",
"660 613 OFFCURVE",
"677 620 OFFCURVE",
"710 626 CURVE",
"716 667 LINE",
"487 667 LINE",
"481 626 LINE",
"509 622 OFFCURVE",
"536 610 OFFCURVE",
"547 596 CURVE",
"490 223 LINE",
"475 132 OFFCURVE",
"437 60 OFFCURVE",
"340 60 CURVE SMOOTH",
"257 60 OFFCURVE",
"220 97 OFFCURVE",
"220 168 CURVE SMOOTH",
"220 193 OFFCURVE",
"234 285 OFFCURVE",
"236 299 CURVE SMOOTH",
"283 596 LINE",
"306 613 OFFCURVE",
"323 620 OFFCURVE",
"356 626 CURVE",
"362 667 LINE",
"76 667 LINE",
"70 626 LINE",
"98 622 OFFCURVE",
"125 610 OFFCURVE",
"136 596 CURVE",
"92 303 LINE SMOOTH",
"85 263 OFFCURVE",
"72 186 OFFCURVE",
"72 161 CURVE SMOOTH",
"72 55 OFFCURVE",
"150 -7 OFFCURVE",
"307 -7 CURVE SMOOTH"
);
}
);
width = 654;
}
);
unicode = 0055;
},
{
color = 4;
glyphname = Uogonek;
lastChange = "2019-11-29 23:32:56 +0000";
layers = (
{
background = {
components = (
{
name = U;
},
{
name = ogonek;
transform = "{1, 0, 0, 1, 110, 1}";
}
);
paths = (
{
closed = 1;
nodes = (
"445 667 LINE",
"440 630 LINE",
"473 626 OFFCURVE",
"501 619 OFFCURVE",
"526 604 CURVE",
"463 212 LINE SMOOTH",
"446 104 OFFCURVE",
"385 45 OFFCURVE",
"292 45 CURVE SMOOTH",
"213 45 OFFCURVE",
"173 77 OFFCURVE",
"173 157 CURVE SMOOTH",
"173 172 OFFCURVE",
"174 188 OFFCURVE",
"177 207 CURVE SMOOTH",
"241 605 LINE",
"268 620 OFFCURVE",
"293 626 OFFCURVE",
"324 630 CURVE",
"330 667 LINE",
"70 667 LINE",
"65 630 LINE",
"98 626 OFFCURVE",
"127 619 OFFCURVE",
"151 604 CURVE",
"87 207 LINE SMOOTH",
"84 186 OFFCURVE",
"82 167 OFFCURVE",
"82 150 CURVE SMOOTH",
"82 42 OFFCURVE",
"144 -7 OFFCURVE",
"282 -7 CURVE SMOOTH",
"418 -7 OFFCURVE",
"505 72 OFFCURVE",
"527 212 CURVE SMOOTH",
"590 605 LINE",
"617 620 OFFCURVE",
"642 626 OFFCURVE",
"673 630 CURVE",
"679 667 LINE"
);
},
{
closed = 1;
nodes = (
"244 -86 OFFCURVE",
"274 -27 OFFCURVE",
"352 1 CURVE",
"281 11 LINE",
"248 -35 OFFCURVE",
"183 -82 OFFCURVE",
"183 -145 CURVE SMOOTH",
"183 -186 OFFCURVE",
"204 -204 OFFCURVE",
"241 -204 CURVE SMOOTH",
"280 -204 OFFCURVE",
"317 -186 OFFCURVE",
"345 -165 CURVE",
"328 -137 LINE",
"309 -147 OFFCURVE",
"283 -154 OFFCURVE",
"270 -154 CURVE SMOOTH",
"253 -154 OFFCURVE",
"244 -143 OFFCURVE",
"244 -125 CURVE SMOOTH",
"244 -125 LINE"
);
}
);
};
components = (
{
name = U;
},
{
name = ogonekcomb.case;
transform = "{1, 0, 0, 1, 230, 0}";
}
);
layerId = "CF479DE4-94A2-4865-8D1E-65EA355866D4";
width = 623;
},
{
components = (
{
name = U;
},
{
name = ogonekcomb.case;
transform = "{1, 0, 0, 1, 215, 0}";
}
);
layerId = "0FAD76F5-9F58-4721-BF81-08BC6166EF10";
width = 662;
}
);
leftKerningGroup = U;
rightKerningGroup = U;
unicode = 0172;
},
{
glyphname = V;
lastChange = "2019-11-20 03:09:55 +0000";
layers = (
{
anchors = (
{
name = top;
position = "{362, 705}";
}
);
background = {
anchors = (
{
name = top;
position = "{362, 705}";
}
);
paths = (
{
closed = 1;
nodes = (
"406 667 LINE",
"401 630 LINE",
"433 626 OFFCURVE",
"461 619 OFFCURVE",
"485 605 CURVE",
"284 145 LINE",
"217 604 LINE",
"248 620 OFFCURVE",
"273 626 OFFCURVE",
"305 630 CURVE",
"310 667 LINE",
"61 667 LINE",
"56 630 LINE",
"79 627 OFFCURVE",
"101 619 OFFCURVE",
"120 609 CURVE",
"219 0 LINE",
"239 -7 OFFCURVE",
"273 -7 OFFCURVE",
"273 -7 CURVE",
"553 611 LINE",
"575 621 OFFCURVE",
"597 626 OFFCURVE",
"625 630 CURVE",
"630 667 LINE"
);
}
);
};
layerId = "CF479DE4-94A2-4865-8D1E-65EA355866D4";
paths = (
{
closed = 1;
nodes = (
"406 667 LINE",
"401 630 LINE",
"433 626 OFFCURVE",
"461 619 OFFCURVE",
"485 605 CURVE",
"284 145 LINE",
"217 604 LINE",
"248 620 OFFCURVE",
"273 626 OFFCURVE",
"305 630 CURVE",
"310 667 LINE",
"61 667 LINE",
"56 630 LINE",
"79 627 OFFCURVE",
"101 619 OFFCURVE",
"120 609 CURVE",
"219 0 LINE",
"239 -7 OFFCURVE",
"273 -7 OFFCURVE",
"273 -7 CURVE",
"553 611 LINE",
"575 621 OFFCURVE",
"597 626 OFFCURVE",
"625 630 CURVE",
"630 667 LINE"
);
}
);
width = 575;
},
{
layerId = "0FAD76F5-9F58-4721-BF81-08BC6166EF10";
paths = (
{
closed = 1;
nodes = (
"260 605 LINE",
"275 618 OFFCURVE",
"298 623 OFFCURVE",
"327 627 CURVE",
"333 667 LINE",
"57 667 LINE",
"52 626 LINE",
"79 620 OFFCURVE",
"107 608 OFFCURVE",
"110 585 CURVE SMOOTH",
"184 0 LINE",
"285 0 LINE",
"590 602 LINE",
"605 619 OFFCURVE",
"629 624 OFFCURVE",
"655 626 CURVE",
"661 667 LINE",
"435 667 LINE",
"430 627 LINE",
"463 623 OFFCURVE",
"493 613 OFFCURVE",
"510 597 CURVE",
"309 185 LINE"
);
}
);
width = 596;
}
);
unicode = 0056;
},
{
glyphname = W;
lastChange = "2019-11-20 03:09:55 +0000";
layers = (
{
anchors = (
{
name = top;
position = "{542, 705}";
}
);
background = {
anchors = (
{
name = top;
position = "{542, 705}";
}
);
paths = (
{
closed = 1;
nodes = (
"86 667 LINE",
"81 630 LINE",
"105 627 OFFCURVE",
"128 618 OFFCURVE",
"148 608 CURVE",
"201 0 LINE",
"220 -7 OFFCURVE",
"255 -7 OFFCURVE",
"255 -7 CURVE",
"491 477 LINE",
"537 0 LINE",
"556 -7 OFFCURVE",
"591 -7 OFFCURVE",
"591 -7 CURVE",
"879 605 LINE",
"899 617 OFFCURVE",
"926 625 OFFCURVE",
"947 630 CURVE",
"952 667 LINE",
"733 667 LINE",
"728 630 LINE",
"760 626 OFFCURVE",
"788 619 OFFCURVE",
"813 604 CURVE",
"605 152 LINE",
"570 657 LINE",
"570 657 OFFCURVE",
"529 656 OFFCURVE",
"510 649 CURVE",
"270 150 LINE",
"242 604 LINE",
"273 620 OFFCURVE",
"298 626 OFFCURVE",
"330 630 CURVE",
"335 667 LINE"
);
}
);
};
layerId = "CF479DE4-94A2-4865-8D1E-65EA355866D4";
paths = (
{
closed = 1;
nodes = (
"86 667 LINE",
"81 630 LINE",
"105 627 OFFCURVE",
"128 618 OFFCURVE",
"148 608 CURVE",
"201 0 LINE",
"220 -7 OFFCURVE",
"255 -7 OFFCURVE",
"255 -7 CURVE",
"491 477 LINE",
"537 0 LINE",
"556 -7 OFFCURVE",
"591 -7 OFFCURVE",
"591 -7 CURVE",
"879 605 LINE",
"899 617 OFFCURVE",
"926 625 OFFCURVE",
"947 630 CURVE",
"952 667 LINE",
"733 667 LINE",
"728 630 LINE",
"760 626 OFFCURVE",
"788 619 OFFCURVE",
"813 604 CURVE",
"605 152 LINE",
"570 657 LINE",
"570 657 OFFCURVE",
"529 656 OFFCURVE",
"510 649 CURVE",
"270 150 LINE",
"242 604 LINE",
"273 620 OFFCURVE",
"298 626 OFFCURVE",
"330 630 CURVE",
"335 667 LINE"
);
}
);
width = 896;
},
{
anchors = (
{
name = top;
position = "{569, 705}";
}
);
layerId = "0FAD76F5-9F58-4721-BF81-08BC6166EF10";
paths = (
{
closed = 1;
nodes = (
"664 185 LINE",
"604 667 LINE",
"518 667 LINE",
"302 185 LINE",
"253 605 LINE",
"267 618 OFFCURVE",
"290 623 OFFCURVE",
"319 627 CURVE",
"325 667 LINE",
"52 667 LINE",
"46 626 LINE",
"70 621 OFFCURVE",
"89 611 OFFCURVE",
"101 596 CURVE",
"177 0 LINE",
"277 0 LINE",
"481 430 LINE",
"541 0 LINE",
"641 0 LINE",
"932 602 LINE",
"947 619 OFFCURVE",
"962 624 OFFCURVE",
"988 626 CURVE",
"993 667 LINE",
"777 667 LINE",
"772 627 LINE",
"805 623 OFFCURVE",
"835 613 OFFCURVE",
"852 596 CURVE",
"852 596 LINE"
);
}
);
width = 930;
}
);
unicode = 0057;
},
{
glyphname = X;
lastChange = "2019-11-20 03:09:55 +0000";
layers = (
{
anchors = (
{
name = cedilla;
position = "{245, 0}";
},
{
name = top;
position = "{325, 705}";
}
);
background = {
anchors = (
{
name = cedilla;
position = "{245, 0}";
},
{
name = top;
position = "{325, 705}";
}
);
paths = (
{
closed = 1;
nodes = (
"208 651 OFFCURVE",
"207 667 OFFCURVE",
"168 667 CURVE SMOOTH",
"65 667 LINE",
"60 630 LINE",
"106 629 OFFCURVE",
"129 609 OFFCURVE",
"139 584 CURVE SMOOTH",
"347 66 LINE SMOOTH",
"367 16 OFFCURVE",
"380 0 OFFCURVE",
"427 0 CURVE SMOOTH",
"514 0 LINE",
"520 38 LINE",
"465 44 OFFCURVE",
"451 58 OFFCURVE",
"439 83 CURVE",
"229 600 LINE"
);
},
{
closed = 1;
nodes = (
"35 61 LINE",
"9 45 OFFCURVE",
"-16 41 OFFCURVE",
"-46 37 CURVE",
"-52 0 LINE",
"186 0 LINE",
"190 37 LINE",
"158 41 OFFCURVE",
"128 47 OFFCURVE",
"100 63 CURVE",
"275 302 LINE",
"252 355 LINE"
);
},
{
closed = 1;
nodes = (
"502 606 LINE",
"527 620 OFFCURVE",
"551 626 OFFCURVE",
"582 630 CURVE",
"587 667 LINE",
"355 667 LINE",
"350 630 LINE",
"383 626 OFFCURVE",
"411 619 OFFCURVE",
"436 604 CURVE",
"291 384 LINE",
"314 331 LINE"
);
}
);
};
layerId = "CF479DE4-94A2-4865-8D1E-65EA355866D4";
paths = (
{
closed = 1;
nodes = (
"208 651 OFFCURVE",
"207 667 OFFCURVE",
"168 667 CURVE SMOOTH",
"65 667 LINE",
"60 630 LINE",
"106 629 OFFCURVE",
"129 609 OFFCURVE",
"139 584 CURVE SMOOTH",
"347 66 LINE SMOOTH",
"367 16 OFFCURVE",
"380 0 OFFCURVE",
"427 0 CURVE SMOOTH",
"514 0 LINE",
"520 38 LINE",
"465 44 OFFCURVE",
"451 58 OFFCURVE",
"439 83 CURVE",
"229 600 LINE"
);
},
{
closed = 1;
nodes = (
"35 61 LINE",
"9 45 OFFCURVE",
"-16 41 OFFCURVE",
"-46 37 CURVE",
"-52 0 LINE",
"186 0 LINE",
"190 37 LINE",
"158 41 OFFCURVE",
"128 47 OFFCURVE",
"100 63 CURVE",
"275 302 LINE",
"252 355 LINE"
);
},
{
closed = 1;
nodes = (
"502 606 LINE",
"527 620 OFFCURVE",
"551 626 OFFCURVE",
"582 630 CURVE",
"587 667 LINE",
"355 667 LINE",
"350 630 LINE",
"383 626 OFFCURVE",
"411 619 OFFCURVE",
"436 604 CURVE",
"291 384 LINE",
"314 331 LINE"
);
}
);
width = 545;
},
{
layerId = "0FAD76F5-9F58-4721-BF81-08BC6166EF10";
paths = (
{
closed = 1;
nodes = (
"370 38 OFFCURVE",
"389 0 OFFCURVE",
"440 0 CURVE SMOOTH",
"572 0 LINE",
"577 41 LINE",
"542 48 OFFCURVE",
"529 54 OFFCURVE",
"519 76 CURVE SMOOTH",
"384 365 LINE",
"578 599 LINE SMOOTH",
"593 616 OFFCURVE",
"619 625 OFFCURVE",
"645 627 CURVE",
"650 667 LINE",
"424 667 LINE",
"419 627 LINE",
"452 623 OFFCURVE",
"473 613 OFFCURVE",
"490 597 CURVE",
"353 432 LINE",
"271 609 LINE SMOOTH",
"261 629 OFFCURVE",
"242 667 OFFCURVE",
"191 667 CURVE SMOOTH",
"59 667 LINE",
"54 626 LINE",
"89 619 OFFCURVE",
"102 613 OFFCURVE",
"112 591 CURVE SMOOTH",
"240 314 LINE",
"32 65 LINE SMOOTH",
"20 51 OFFCURVE",
"-11 42 OFFCURVE",
"-34 40 CURVE",
"-39 0 LINE",
"187 0 LINE",
"192 40 LINE",
"159 44 OFFCURVE",
"139 52 OFFCURVE",
"122 68 CURVE",
"271 247 LINE",
"360 58 LINE"
);
}
);
width = 586;
}
);
unicode = 0058;
},
{
glyphname = Y;
lastChange = "2019-11-20 03:09:55 +0000";
layers = (
{
anchors = (
{
name = cedilla;
position = "{234, 0}";
},
{
name = top;
position = "{351, 705}";
}
);
background = {
anchors = (
{
name = cedilla;
position = "{234, 0}";
},
{
name = top;
position = "{351, 705}";
}
);
paths = (
{
closed = 1;
nodes = (
"380 0 LINE",
"384 37 LINE",
"352 41 OFFCURVE",
"312 47 OFFCURVE",
"284 63 CURVE",
"319 285 LINE",
"520 606 LINE",
"546 621 OFFCURVE",
"570 626 OFFCURVE",
"601 630 CURVE",
"606 667 LINE",
"373 667 LINE",
"368 630 LINE",
"399 626 OFFCURVE",
"428 619 OFFCURVE",
"453 604 CURVE",
"297 347 LINE",
"219 607 LINE",
"245 621 OFFCURVE",
"269 626 OFFCURVE",
"299 630 CURVE",
"304 667 LINE",
"61 667 LINE",
"56 630 LINE",
"78 627 OFFCURVE",
"99 620 OFFCURVE",
"118 611 CURVE",
"228 272 LINE",
"196 63 LINE",
"168 46 OFFCURVE",
"133 41 OFFCURVE",
"101 37 CURVE",
"96 0 LINE"
);
}
);
};
layerId = "CF479DE4-94A2-4865-8D1E-65EA355866D4";
paths = (
{
closed = 1;
nodes = (
"380 0 LINE",
"384 37 LINE",
"352 41 OFFCURVE",
"312 47 OFFCURVE",
"284 63 CURVE",
"319 285 LINE",
"520 606 LINE",
"546 621 OFFCURVE",
"570 626 OFFCURVE",
"601 630 CURVE",
"606 667 LINE",
"373 667 LINE",
"368 630 LINE",
"399 626 OFFCURVE",
"428 619 OFFCURVE",
"453 604 CURVE",
"297 347 LINE",
"219 607 LINE",
"245 621 OFFCURVE",
"269 626 OFFCURVE",
"299 630 CURVE",
"304 667 LINE",
"61 667 LINE",
"56 630 LINE",
"78 627 OFFCURVE",
"99 620 OFFCURVE",
"118 611 CURVE",
"228 272 LINE",
"196 63 LINE",
"168 46 OFFCURVE",
"133 41 OFFCURVE",
"101 37 CURVE",
"96 0 LINE"
);
}
);
width = 548;
},
{
anchors = (
{
name = top;
position = "{401, 705}";
}
);
layerId = "0FAD76F5-9F58-4721-BF81-08BC6166EF10";
paths = (
{
closed = 1;
nodes = (
"164 55 OFFCURVE",
"136 46 OFFCURVE",
"103 41 CURVE",
"98 0 LINE",
"404 0 LINE",
"409 41 LINE",
"377 48 OFFCURVE",
"345 57 OFFCURVE",
"332 71 CURVE",
"363 268 LINE",
"585 601 LINE",
"603 617 OFFCURVE",
"623 625 OFFCURVE",
"649 627 CURVE",
"654 667 LINE",
"428 667 LINE",
"423 627 LINE",
"456 623 OFFCURVE",
"486 613 OFFCURVE",
"503 597 CURVE",
"343 357 LINE",
"273 605 LINE",
"288 618 OFFCURVE",
"314 623 OFFCURVE",
"343 627 CURVE",
"349 667 LINE",
"73 667 LINE",
"69 627 LINE",
"96 621 OFFCURVE",
"119 607 OFFCURVE",
"126 585 CURVE SMOOTH",
"217 269 LINE",
"185 71 LINE"
);
}
);
width = 577;
}
);
unicode = 0059;
},
{
glyphname = Z;
lastChange = "2019-11-20 03:09:55 +0000";
layers = (
{
anchors = (
{
name = cedilla;
position = "{246, 0}";
},
{
name = top;
position = "{329, 705}";
}
);
background = {
anchors = (
{
name = cedilla;
position = "{246, 0}";
},
{
name = top;
position = "{329, 705}";
}
);
paths = (
{
closed = 1;
nodes = (
"472 179 OFFCURVE",
"465 180 OFFCURVE",
"457 180 CURVE SMOOTH",
"450 180 OFFCURVE",
"437 179 OFFCURVE",
"430 178 CURVE",
"410 130 OFFCURVE",
"401 96 OFFCURVE",
"375 62 CURVE",
"139 53 LINE",
"537 627 LINE",
"535 667 LINE",
"134 667 LINE",
"110 644 LINE",
"99 499 LINE",
"104 497 OFFCURVE",
"115 497 OFFCURVE",
"121 497 CURVE SMOOTH",
"128 497 OFFCURVE",
"136 498 OFFCURVE",
"143 499 CURVE",
"154 533 OFFCURVE",
"166 569 OFFCURVE",
"186 605 CURVE",
"253 608 OFFCURVE",
"357 611 OFFCURVE",
"419 612 CURVE",
"24 44 LINE",
"30 0 LINE",
"441 0 LINE",
"479 178 LINE"
);
}
);
};
layerId = "CF479DE4-94A2-4865-8D1E-65EA355866D4";
paths = (
{
closed = 1;
nodes = (
"472 179 OFFCURVE",
"465 180 OFFCURVE",
"457 180 CURVE SMOOTH",
"450 180 OFFCURVE",
"437 179 OFFCURVE",
"430 178 CURVE",
"410 130 OFFCURVE",
"401 96 OFFCURVE",
"375 62 CURVE",
"139 53 LINE",
"537 627 LINE",
"535 667 LINE",
"134 667 LINE",
"110 644 LINE",
"99 499 LINE",
"104 497 OFFCURVE",
"115 497 OFFCURVE",
"121 497 CURVE SMOOTH",
"128 497 OFFCURVE",
"136 498 OFFCURVE",
"143 499 CURVE",
"154 533 OFFCURVE",
"166 569 OFFCURVE",
"186 605 CURVE",
"253 608 OFFCURVE",
"357 611 OFFCURVE",
"419 612 CURVE",
"24 44 LINE",
"30 0 LINE",
"441 0 LINE",
"479 178 LINE"
);
}
);
width = 512;
},
{
anchors = (
{
name = top;
position = "{349, 704}";
}
);
layerId = "0FAD76F5-9F58-4721-BF81-08BC6166EF10";
paths = (
{
closed = 1;
nodes = (
"92 476 OFFCURVE",
"110 473 OFFCURVE",
"129 473 CURVE SMOOTH",
"136 473 OFFCURVE",
"154 474 OFFCURVE",
"161 476 CURVE",
"163 506 OFFCURVE",
"172 556 OFFCURVE",
"189 592 CURVE",
"251 598 OFFCURVE",
"363 600 OFFCURVE",
"379 600 CURVE",
"0 45 LINE",
"-3 0 LINE",
"474 0 LINE",
"513 194 LINE",
"499 198 OFFCURVE",
"481 201 OFFCURVE",
"462 201 CURVE SMOOTH",
"455 201 OFFCURVE",
"437 200 OFFCURVE",
"430 198 CURVE",
"420 170 OFFCURVE",
"402 113 OFFCURVE",
"376 75 CURVE",
"326 70 OFFCURVE",
"273 69 OFFCURVE",
"181 69 CURVE",
"570 631 LINE",
"566 667 LINE",
"118 667 LINE",
"89 639 LINE",
"78 480 LINE"
);
}
);
width = 544;
}
);
unicode = 005A;
},
{
glyphname = a;
lastChange = "2019-11-20 03:09:55 +0000";
layers = (
{
anchors = (
{
name = ogonek;
position = "{476, 49}";
},
{
name = top;
position = "{297, 505}";
}
);
background = {
anchors = (
{
name = ogonek;
position = "{476, 49}";
},
{
name = top;
position = "{297, 505}";
}
);
paths = (
{
closed = 1;
nodes = (
"306 16 OFFCURVE",
"312 -7 OFFCURVE",
"362 -7 CURVE SMOOTH",
"402 -7 OFFCURVE",
"454 30 OFFCURVE",
"476 49 CURVE",
"466 81 LINE",
"461 78 OFFCURVE",
"433 62 OFFCURVE",
"415 62 CURVE SMOOTH",
"401 62 OFFCURVE",
"394 66 OFFCURVE",
"394 77 CURVE SMOOTH",
"394 79 OFFCURVE",
"396 91 OFFCURVE",
"397 99 CURVE SMOOTH",
"458 474 LINE",
"458 474 OFFCURVE",
"444 476 OFFCURVE",
"427 476 CURVE SMOOTH",
"402 476 OFFCURVE",
"386 463 OFFCURVE",
"376 452 CURVE",
"337 470 OFFCURVE",
"300 478 OFFCURVE",
"267 478 CURVE SMOOTH",
"123 478 OFFCURVE",
"40 324 OFFCURVE",
"40 172 CURVE SMOOTH",
"40 69 OFFCURVE",
"65 -7 OFFCURVE",
"167 -7 CURVE SMOOTH",
"231 -7 OFFCURVE",
"283 52 OFFCURVE",
"314 98 CURVE",
"309 72 OFFCURVE",
"306 53 OFFCURVE",
"306 45 CURVE SMOOTH",
"306 45 LINE"
);
},
{
closed = 1;
nodes = (
"146 45 OFFCURVE",
"129 101 OFFCURVE",
"129 171 CURVE SMOOTH",
"129 273 OFFCURVE",
"185 430 OFFCURVE",
"287 430 CURVE SMOOTH",
"309 430 OFFCURVE",
"334 423 OFFCURVE",
"360 406 CURVE",
"343 301 LINE SMOOTH",
"318 145 OFFCURVE",
"245 45 OFFCURVE",
"193 45 CURVE SMOOTH",
"193 45 LINE"
);
}
);
};
layerId = "CF479DE4-94A2-4865-8D1E-65EA355866D4";
paths = (
{
closed = 1;
nodes = (
"306 16 OFFCURVE",
"312 -7 OFFCURVE",
"362 -7 CURVE SMOOTH",
"402 -7 OFFCURVE",
"454 30 OFFCURVE",
"476 49 CURVE",
"466 81 LINE",
"461 78 OFFCURVE",
"433 62 OFFCURVE",
"415 62 CURVE SMOOTH",
"401 62 OFFCURVE",
"394 66 OFFCURVE",
"394 77 CURVE SMOOTH",
"394 79 OFFCURVE",
"396 91 OFFCURVE",
"397 99 CURVE SMOOTH",
"458 474 LINE",
"458 474 OFFCURVE",
"444 476 OFFCURVE",
"427 476 CURVE SMOOTH",
"402 476 OFFCURVE",
"386 463 OFFCURVE",
"376 452 CURVE",
"337 470 OFFCURVE",
"300 478 OFFCURVE",
"267 478 CURVE SMOOTH",
"123 478 OFFCURVE",
"40 324 OFFCURVE",
"40 172 CURVE SMOOTH",
"40 69 OFFCURVE",
"65 -7 OFFCURVE",
"167 -7 CURVE SMOOTH",
"231 -7 OFFCURVE",
"283 52 OFFCURVE",
"314 98 CURVE",
"309 72 OFFCURVE",
"306 53 OFFCURVE",
"306 45 CURVE SMOOTH",
"306 45 LINE"
);
},
{
closed = 1;
nodes = (
"146 45 OFFCURVE",
"129 101 OFFCURVE",
"129 171 CURVE SMOOTH",
"129 273 OFFCURVE",
"185 430 OFFCURVE",
"287 430 CURVE SMOOTH",
"309 430 OFFCURVE",
"334 423 OFFCURVE",
"360 406 CURVE",
"343 301 LINE SMOOTH",
"318 145 OFFCURVE",
"245 45 OFFCURVE",
"193 45 CURVE SMOOTH",
"193 45 LINE"
);
}
);
width = 526;
},
{
anchors = (
{
name = ogonek;
position = "{548, 46}";
},
{
name = top;
position = "{333, 515}";
}
);
layerId = "0FAD76F5-9F58-4721-BF81-08BC6166EF10";
paths = (
{
closed = 1;
nodes = (
"519 490 OFFCURVE",
"508 491 OFFCURVE",
"497 491 CURVE SMOOTH",
"461 491 OFFCURVE",
"434 484 OFFCURVE",
"413 472 CURVE",
"379 484 OFFCURVE",
"346 492 OFFCURVE",
"309 492 CURVE SMOOTH",
"158 492 OFFCURVE",
"37 395 OFFCURVE",
"37 181 CURVE SMOOTH",
"37 49 OFFCURVE",
"113 -11 OFFCURVE",
"196 -11 CURVE SMOOTH",
"256 -11 OFFCURVE",
"297 15 OFFCURVE",
"326 56 CURVE",
"331 19 OFFCURVE",
"351 -6 OFFCURVE",
"406 -6 CURVE SMOOTH",
"467 -6 OFFCURVE",
"523 30 OFFCURVE",
"548 46 CURVE",
"535 84 LINE",
"519 74 OFFCURVE",
"500 69 OFFCURVE",
"488 69 CURVE SMOOTH",
"473 69 OFFCURVE",
"467 76 OFFCURVE",
"467 93 CURVE SMOOTH",
"467 115 OFFCURVE",
"529 488 OFFCURVE",
"529 489 CURVE",
"529 489 LINE"
);
},
{
closed = 1;
nodes = (
"195 50 OFFCURVE",
"181 112 OFFCURVE",
"181 182 CURVE SMOOTH",
"181 358 OFFCURVE",
"252 443 OFFCURVE",
"332 443 CURVE SMOOTH",
"349 443 OFFCURVE",
"364 440 OFFCURVE",
"380 434 CURVE",
"348 249 LINE SMOOTH",
"327 127 OFFCURVE",
"290 50 OFFCURVE",
"241 50 CURVE SMOOTH",
"241 50 LINE"
);
}
);
width = 570;
}
);
unicode = 0061;
},
{
color = 4;
glyphname = aogonek;
lastChange = "2019-11-29 23:44:23 +0000";
layers = (
{
background = {
paths = (
{
closed = 1;
nodes = (
"306 16 OFFCURVE",
"312 -6 OFFCURVE",
"359 -7 CURVE",
"325 -47 OFFCURVE",
"277 -90 OFFCURVE",
"277 -145 CURVE SMOOTH",
"277 -186 OFFCURVE",
"298 -204 OFFCURVE",
"335 -204 CURVE SMOOTH",
"374 -204 OFFCURVE",
"411 -186 OFFCURVE",
"439 -165 CURVE",
"422 -137 LINE",
"403 -147 OFFCURVE",
"377 -154 OFFCURVE",
"364 -154 CURVE SMOOTH",
"347 -154 OFFCURVE",
"338 -143 OFFCURVE",
"338 -125 CURVE SMOOTH",
"338 -68 OFFCURVE",
"402 0 OFFCURVE",
"476 49 CURVE",
"466 81 LINE",
"461 78 OFFCURVE",
"433 62 OFFCURVE",
"415 62 CURVE SMOOTH",
"401 62 OFFCURVE",
"394 66 OFFCURVE",
"394 77 CURVE SMOOTH",
"394 79 OFFCURVE",
"394 81 OFFCURVE",
"395 84 CURVE SMOOTH",
"458 474 LINE",
"458 474 OFFCURVE",
"444 476 OFFCURVE",
"427 476 CURVE SMOOTH",
"402 476 OFFCURVE",
"386 463 OFFCURVE",
"376 452 CURVE",
"329 474 OFFCURVE",
"290 476 OFFCURVE",
"262 476 CURVE SMOOTH",
"121 476 OFFCURVE",
"40 313 OFFCURVE",
"40 172 CURVE SMOOTH",
"40 69 OFFCURVE",
"65 -7 OFFCURVE",
"167 -7 CURVE SMOOTH",
"231 -7 OFFCURVE",
"283 52 OFFCURVE",
"314 98 CURVE",
"309 72 OFFCURVE",
"306 53 OFFCURVE",
"306 45 CURVE SMOOTH",
"306 45 LINE"
);
},
{
closed = 1;
nodes = (
"146 45 OFFCURVE",
"129 101 OFFCURVE",
"129 171 CURVE SMOOTH",
"129 280 OFFCURVE",
"191 431 OFFCURVE",
"285 431 CURVE SMOOTH",
"314 431 OFFCURVE",
"340 419 OFFCURVE",
"360 406 CURVE",
"343 301 LINE SMOOTH",
"318 145 OFFCURVE",
"245 45 OFFCURVE",
"193 45 CURVE SMOOTH",
"193 45 LINE"
);
},
{
closed = 1;
nodes = (
"346 -32 OFFCURVE",
"277 -80 OFFCURVE",
"277 -142 CURVE SMOOTH",
"277 -180 OFFCURVE",
"306 -204 OFFCURVE",
"345 -204 CURVE SMOOTH",
"373 -204 OFFCURVE",
"407 -191 OFFCURVE",
"433 -165 CURVE",
"419 -139 LINE",
"400 -151 OFFCURVE",
"387 -156 OFFCURVE",
"373 -156 CURVE SMOOTH",
"352 -156 OFFCURVE",
"339 -144 OFFCURVE",
"339 -121 CURVE SMOOTH",
"339 -79 OFFCURVE",
"387 -15 OFFCURVE",
"442 24 CURVE",
"419 32 LINE",
"373 11 LINE"
);
},
{
closed = 1;
nodes = (
"346 -32 OFFCURVE",
"277 -80 OFFCURVE",
"277 -142 CURVE SMOOTH",
"277 -180 OFFCURVE",
"306 -204 OFFCURVE",
"345 -204 CURVE SMOOTH",
"373 -204 OFFCURVE",
"407 -191 OFFCURVE",
"433 -165 CURVE",
"419 -139 LINE",
"400 -151 OFFCURVE",
"387 -156 OFFCURVE",
"373 -156 CURVE SMOOTH",
"352 -156 OFFCURVE",
"339 -144 OFFCURVE",
"339 -121 CURVE SMOOTH",
"339 -79 OFFCURVE",
"387 -15 OFFCURVE",
"442 24 CURVE",
"419 32 LINE",
"373 11 LINE"
);
}
);
};
components = (
{
name = a;
},
{
name = ogonekcomb;
transform = "{1, 0, 0, 1, 333, 0}";
}
);
layerId = "CF479DE4-94A2-4865-8D1E-65EA355866D4";
width = 515;
},
{
background = {
paths = (
{
closed = 1;
nodes = (
"353 -35 OFFCURVE",
"283 -78 OFFCURVE",
"283 -132 CURVE SMOOTH",
"283 -178 OFFCURVE",
"320 -204 OFFCURVE",
"365 -204 CURVE SMOOTH",
"404 -204 OFFCURVE",
"446 -188 OFFCURVE",
"477 -157 CURVE",
"457 -122 LINE",
"443 -132 OFFCURVE",
"420 -144 OFFCURVE",
"403 -144 CURVE SMOOTH",
"390 -144 OFFCURVE",
"380 -136 OFFCURVE",
"380 -115 CURVE SMOOTH",
"380 -43 OFFCURVE",
"484 21 OFFCURVE",
"548 46 CURVE",
"399 8 LINE"
);
},
{
closed = 1;
nodes = (
"519 490 OFFCURVE",
"508 491 OFFCURVE",
"497 491 CURVE SMOOTH",
"461 491 OFFCURVE",
"434 484 OFFCURVE",
"413 472 CURVE",
"379 484 OFFCURVE",
"346 492 OFFCURVE",
"309 492 CURVE SMOOTH",
"158 492 OFFCURVE",
"37 395 OFFCURVE",
"37 181 CURVE SMOOTH",
"37 49 OFFCURVE",
"113 -11 OFFCURVE",
"196 -11 CURVE SMOOTH",
"256 -11 OFFCURVE",
"297 15 OFFCURVE",
"326 56 CURVE",
"331 19 OFFCURVE",
"351 -6 OFFCURVE",
"406 -6 CURVE",
"548 46 LINE",
"535 84 LINE",
"519 74 OFFCURVE",
"500 69 OFFCURVE",
"488 69 CURVE SMOOTH",
"473 69 OFFCURVE",
"467 76 OFFCURVE",
"467 93 CURVE SMOOTH",
"467 115 OFFCURVE",
"529 488 OFFCURVE",
"529 489 CURVE",
"529 489 LINE"
);
},
{
closed = 1;
nodes = (
"195 50 OFFCURVE",
"181 112 OFFCURVE",
"181 182 CURVE SMOOTH",
"181 358 OFFCURVE",
"252 443 OFFCURVE",
"332 443 CURVE SMOOTH",
"349 443 OFFCURVE",
"364 440 OFFCURVE",
"380 434 CURVE",
"348 249 LINE SMOOTH",
"327 127 OFFCURVE",
"290 50 OFFCURVE",
"241 50 CURVE SMOOTH",
"241 50 LINE"
);
},
{
closed = 1;
nodes = (
"389 1 OFFCURVE",
"365 -17 OFFCURVE",
"340 -42 CURVE SMOOTH",
"310 -72 OFFCURVE",
"288 -101 OFFCURVE",
"288 -135 CURVE SMOOTH",
"288 -179 OFFCURVE",
"324 -204 OFFCURVE",
"366 -204 CURVE SMOOTH",
"403 -204 OFFCURVE",
"444 -188 OFFCURVE",
"473 -157 CURVE",
"454 -122 LINE",
"439 -134 OFFCURVE",
"421 -145 OFFCURVE",
"404 -145 CURVE SMOOTH",
"387 -145 OFFCURVE",
"373 -134 OFFCURVE",
"373 -112 CURVE SMOOTH",
"373 -66 OFFCURVE",
"432 0 OFFCURVE",
"495 0 CURVE",
"471 24 LINE",
"392 24 LINE"
);
},
{
closed = 1;
nodes = (
"389 1 OFFCURVE",
"365 -17 OFFCURVE",
"340 -42 CURVE SMOOTH",
"310 -72 OFFCURVE",
"288 -101 OFFCURVE",
"288 -135 CURVE SMOOTH",
"288 -179 OFFCURVE",
"324 -204 OFFCURVE",
"366 -204 CURVE SMOOTH",
"403 -204 OFFCURVE",
"444 -188 OFFCURVE",
"473 -157 CURVE",
"454 -122 LINE",
"439 -134 OFFCURVE",
"421 -145 OFFCURVE",
"404 -145 CURVE SMOOTH",
"387 -145 OFFCURVE",
"373 -134 OFFCURVE",
"373 -112 CURVE SMOOTH",
"373 -64 OFFCURVE",
"431 -11 OFFCURVE",
"491 17 CURVE",
"467 41 LINE",
"392 24 LINE"
);
}
);
};
components = (
{
name = a;
},
{
name = ogonekcomb;
transform = "{1, 0, 0, 1, 341, 0}";
}
);
layerId = "0FAD76F5-9F58-4721-BF81-08BC6166EF10";
width = 564;
}
);
leftKerningGroup = o;
rightKerningGroup = a;
unicode = 0105;
},
{
color = 4;
glyphname = aringacute;
lastChange = "2019-11-27 00:21:58 +0000";
layers = (
{
background = {
components = (
{
name = a;
}
);
paths = (
{
closed = 1;
nodes = (
"380 716 LINE SMOOTH",
"402 727 OFFCURVE",
"421 736 OFFCURVE",
"421 756 CURVE SMOOTH",
"421 773 OFFCURVE",
"410 786 OFFCURVE",
"390 786 CURVE SMOOTH",
"378 786 OFFCURVE",
"367 781 OFFCURVE",
"350 767 CURVE SMOOTH",
"243 680 LINE",
"261 655 LINE"
);
},
{
closed = 1;
nodes = (
"353 505 OFFCURVE",
"396 547 OFFCURVE",
"396 600 CURVE SMOOTH",
"396 639 OFFCURVE",
"368 666 OFFCURVE",
"323 666 CURVE SMOOTH",
"268 666 OFFCURVE",
"224 625 OFFCURVE",
"224 571 CURVE SMOOTH",
"224 532 OFFCURVE",
"250 505 OFFCURVE",
"297 505 CURVE SMOOTH",
"297 505 LINE"
);
},
{
closed = 1;
nodes = (
"281 544 OFFCURVE",
"266 560 OFFCURVE",
"266 579 CURVE SMOOTH",
"266 604 OFFCURVE",
"292 628 OFFCURVE",
"317 628 CURVE SMOOTH",
"339 628 OFFCURVE",
"354 612 OFFCURVE",
"354 592 CURVE SMOOTH",
"354 567 OFFCURVE",
"330 544 OFFCURVE",
"304 544 CURVE SMOOTH",
"304 544 LINE"
);
}
);
};
components = (
{
name = a;
},
{
name = ringcomb;
transform = "{1, 0, 0, 1, 172, 0}";
},
{
alignment = -1;
name = acutecomb;
transform = "{0.92773, -0.16358, 0.16358, 0.92773, 118, 204}";
}
);
layerId = "CF479DE4-94A2-4865-8D1E-65EA355866D4";
width = 515;
},
{
background = {
components = (
{
name = a;
},
{
name = ring;
transform = "{1, 0, 0, 1, 182, 31}";
},
{
name = acute;
transform = "{1, 0, 0, 1, 234, 31}";
}
);
};
components = (
{
name = a;
},
{
name = ringcomb;
transform = "{1, 0, 0, 1, 173, 0}";
},
{
alignment = -1;
name = acutecomb;
transform = "{0.94638, -0.16687, 0.16687, 0.94638, 157, 241}";
}
);
layerId = "0FAD76F5-9F58-4721-BF81-08BC6166EF10";
width = 564;
}
);
leftKerningGroup = o;
rightKerningGroup = a;
unicode = 01FB;
},
{
color = 1;
glyphname = ae;
lastChange = "2019-11-29 21:55:43 +0000";
layers = (
{
anchors = (
{
name = top;
position = "{399, 467}";
}
);
background = {
anchors = (
{
name = bottom;
position = "{381, 0}";
},
{
name = top;
position = "{381, 505}";
}
);
paths = (
{
closed = 1;
nodes = (
"153 476 OFFCURVE",
"72 427 OFFCURVE",
"72 352 CURVE SMOOTH",
"72 320 OFFCURVE",
"96 305 OFFCURVE",
"122 305 CURVE SMOOTH",
"151 305 OFFCURVE",
"183 323 OFFCURVE",
"186 354 CURVE",
"170 360 OFFCURVE",
"162 372 OFFCURVE",
"162 386 CURVE SMOOTH",
"162 417 OFFCURVE",
"198 436 OFFCURVE",
"252 436 CURVE SMOOTH",
"304 436 OFFCURVE",
"329 415 OFFCURVE",
"329 369 CURVE SMOOTH",
"329 360 OFFCURVE",
"328 351 OFFCURVE",
"326 340 CURVE SMOOTH",
"314 262 LINE",
"231 256 LINE SMOOTH",
"101 246 OFFCURVE",
"18 185 OFFCURVE",
"18 95 CURVE SMOOTH",
"18 26 OFFCURVE",
"59 -7 OFFCURVE",
"132 -7 CURVE SMOOTH",
"208 -7 OFFCURVE",
"254 7 OFFCURVE",
"327 64 CURVE",
"350 23 OFFCURVE",
"393 -7 OFFCURVE",
"465 -7 CURVE SMOOTH",
"545 -7 OFFCURVE",
"615 33 OFFCURVE",
"651 69 CURVE",
"622 106 LINE",
"594 85 OFFCURVE",
"537 45 OFFCURVE",
"485 45 CURVE SMOOTH",
"433 45 OFFCURVE",
"396 84 OFFCURVE",
"396 172 CURVE SMOOTH",
"396 185 OFFCURVE",
"396 197 OFFCURVE",
"397 210 CURVE",
"404 210 LINE SMOOTH",
"569 210 OFFCURVE",
"688 283 OFFCURVE",
"688 370 CURVE SMOOTH",
"688 424 OFFCURVE",
"647 476 OFFCURVE",
"551 476 CURVE SMOOTH",
"492 476 OFFCURVE",
"440 455 OFFCURVE",
"400 417 CURVE",
"378 455 OFFCURVE",
"329 476 OFFCURVE",
"259 476 CURVE SMOOTH",
"259 476 LINE"
);
},
{
closed = 1;
nodes = (
"307 214 LINE",
"288 103 LINE",
"238 62 OFFCURVE",
"202 45 OFFCURVE",
"164 45 CURVE SMOOTH",
"126 45 OFFCURVE",
"108 63 OFFCURVE",
"108 101 CURVE SMOOTH",
"108 167 OFFCURVE",
"166 201 OFFCURVE",
"226 207 CURVE",
"226 207 LINE"
);
},
{
closed = 1;
nodes = (
"582 430 OFFCURVE",
"600 402 OFFCURVE",
"600 372 CURVE SMOOTH",
"600 308 OFFCURVE",
"525 259 OFFCURVE",
"409 259 CURVE SMOOTH",
"404 259 LINE",
"422 356 OFFCURVE",
"472 430 OFFCURVE",
"544 430 CURVE SMOOTH",
"544 430 LINE"
);
}
);
};
layerId = "CF479DE4-94A2-4865-8D1E-65EA355866D4";
paths = (
{
closed = 1;
nodes = (
"208 -7 OFFCURVE",
"263 14 OFFCURVE",
"325 70 CURVE",
"345 26 OFFCURVE",
"393 -7 OFFCURVE",
"465 -7 CURVE SMOOTH",
"549 -7 OFFCURVE",
"610 36 OFFCURVE",
"651 69 CURVE",
"622 106 LINE",
"594 85 OFFCURVE",
"537 45 OFFCURVE",
"485 45 CURVE SMOOTH",
"430 45 OFFCURVE",
"396 84 OFFCURVE",
"395 172 CURVE SMOOTH",
"395 185 OFFCURVE",
"395 197 OFFCURVE",
"397 210 CURVE",
"404 210 LINE SMOOTH",
"569 210 OFFCURVE",
"688 283 OFFCURVE",
"688 370 CURVE SMOOTH",
"688 428 OFFCURVE",
"642 476 OFFCURVE",
"551 476 CURVE SMOOTH",
"492 476 OFFCURVE",
"440 455 OFFCURVE",
"400 417 CURVE",
"378 455 OFFCURVE",
"329 476 OFFCURVE",
"259 476 CURVE SMOOTH",
"143 476 OFFCURVE",
"72 418 OFFCURVE",
"72 356 CURVE SMOOTH",
"72 323 OFFCURVE",
"94 305 OFFCURVE",
"125 305 CURVE SMOOTH",
"152 305 OFFCURVE",
"183 323 OFFCURVE",
"186 354 CURVE",
"171 358 OFFCURVE",
"162 370 OFFCURVE",
"162 386 CURVE SMOOTH",
"162 414 OFFCURVE",
"191 436 OFFCURVE",
"243 436 CURVE SMOOTH",
"303 436 OFFCURVE",
"329 415 OFFCURVE",
"329 369 CURVE SMOOTH",
"329 348 OFFCURVE",
"319 295 OFFCURVE",
"314 262 CURVE",
"231 256 LINE SMOOTH",
"101 246 OFFCURVE",
"18 185 OFFCURVE",
"18 93 CURVE SMOOTH",
"18 23 OFFCURVE",
"64 -7 OFFCURVE",
"136 -7 CURVE SMOOTH"
);
},
{
closed = 1;
nodes = (
"126 45 OFFCURVE",
"108 63 OFFCURVE",
"108 101 CURVE SMOOTH",
"108 156 OFFCURVE",
"150 199 OFFCURVE",
"226 207 CURVE SMOOTH",
"307 214 LINE",
"290 102 LINE",
"244 65 OFFCURVE",
"202 45 OFFCURVE",
"164 45 CURVE SMOOTH"
);
},
{
closed = 1;
nodes = (
"404 259 LINE",
"422 358 OFFCURVE",
"475 430 OFFCURVE",
"541 430 CURVE SMOOTH",
"576 430 OFFCURVE",
"600 407 OFFCURVE",
"600 372 CURVE SMOOTH",
"600 308 OFFCURVE",
"525 259 OFFCURVE",
"409 259 CURVE SMOOTH"
);
}
);
width = 709;
},
{
anchors = (
{
name = top;
position = "{436, 484}";
}
);
background = {
anchors = (
{
name = bottom;
position = "{354, 0}";
},
{
name = top;
position = "{444, 515}";
}
);
paths = (
{
closed = 1;
nodes = (
"633 210 OFFCURVE",
"751 275 OFFCURVE",
"751 384 CURVE SMOOTH",
"751 446 OFFCURVE",
"701 492 OFFCURVE",
"601 492 CURVE SMOOTH",
"531 492 OFFCURVE",
"474 474 OFFCURVE",
"429 443 CURVE",
"402 475 OFFCURVE",
"353 492 OFFCURVE",
"282 492 CURVE SMOOTH",
"159 492 OFFCURVE",
"73 444 OFFCURVE",
"73 365 CURVE SMOOTH",
"73 324 OFFCURVE",
"104 306 OFFCURVE",
"137 306 CURVE SMOOTH",
"172 306 OFFCURVE",
"210 326 OFFCURVE",
"218 360 CURVE",
"208 369 OFFCURVE",
"202 381 OFFCURVE",
"202 394 CURVE SMOOTH",
"202 426 OFFCURVE",
"239 448 OFFCURVE",
"274 448 CURVE SMOOTH",
"306 448 OFFCURVE",
"336 430 OFFCURVE",
"336 387 CURVE SMOOTH",
"336 371 OFFCURVE",
"334 352 OFFCURVE",
"330 329 CURVE SMOOTH",
"321 276 LINE",
"232 270 LINE SMOOTH",
"91 260 OFFCURVE",
"10 196 OFFCURVE",
"10 103 CURVE SMOOTH",
"10 28 OFFCURVE",
"62 -7 OFFCURVE",
"145 -7 CURVE SMOOTH",
"233 -7 OFFCURVE",
"303 25 OFFCURVE",
"353 62 CURVE",
"389 15 OFFCURVE",
"447 -7 OFFCURVE",
"511 -7 CURVE SMOOTH",
"586 -7 OFFCURVE",
"669 23 OFFCURVE",
"734 78 CURVE",
"701 117 LINE",
"662 85 OFFCURVE",
"602 62 OFFCURVE",
"550 62 CURVE SMOOTH",
"497 62 OFFCURVE",
"454 88 OFFCURVE",
"454 160 CURVE SMOOTH",
"454 175 OFFCURVE",
"455 192 OFFCURVE",
"458 210 CURVE",
"469 210 LINE"
);
},
{
closed = 1;
nodes = (
"313 217 LINE",
"296 103 LINE",
"257 71 OFFCURVE",
"224 58 OFFCURVE",
"194 58 CURVE SMOOTH",
"162 58 OFFCURVE",
"144 76 OFFCURVE",
"144 109 CURVE SMOOTH",
"144 179 OFFCURVE",
"199 208 OFFCURVE",
"263 213 CURVE",
"263 213 LINE"
);
},
{
closed = 1;
nodes = (
"615 443 OFFCURVE",
"626 422 OFFCURVE",
"626 390 CURVE SMOOTH",
"626 319 OFFCURVE",
"536 272 OFFCURVE",
"467 268 CURVE",
"489 379 OFFCURVE",
"534 443 OFFCURVE",
"583 443 CURVE SMOOTH",
"583 443 LINE"
);
},
{
closed = 1;
nodes = (
"233 -7 OFFCURVE",
"303 25 OFFCURVE",
"353 62 CURVE",
"389 15 OFFCURVE",
"447 -7 OFFCURVE",
"511 -7 CURVE SMOOTH",
"586 -7 OFFCURVE",
"669 23 OFFCURVE",
"734 78 CURVE",
"701 117 LINE",
"662 85 OFFCURVE",
"602 62 OFFCURVE",
"550 62 CURVE SMOOTH",
"497 62 OFFCURVE",
"454 88 OFFCURVE",
"454 160 CURVE SMOOTH",
"454 175 OFFCURVE",
"455 192 OFFCURVE",
"458 210 CURVE",
"469 210 LINE SMOOTH",
"633 210 OFFCURVE",
"751 275 OFFCURVE",
"751 384 CURVE SMOOTH",
"751 446 OFFCURVE",
"701 492 OFFCURVE",
"601 492 CURVE SMOOTH",
"531 492 OFFCURVE",
"474 474 OFFCURVE",
"429 443 CURVE",
"402 475 OFFCURVE",
"353 492 OFFCURVE",
"282 492 CURVE SMOOTH",
"159 492 OFFCURVE",
"73 444 OFFCURVE",
"73 365 CURVE SMOOTH",
"73 324 OFFCURVE",
"104 306 OFFCURVE",
"137 306 CURVE SMOOTH",
"172 306 OFFCURVE",
"210 326 OFFCURVE",
"218 360 CURVE",
"208 369 OFFCURVE",
"202 381 OFFCURVE",
"202 394 CURVE SMOOTH",
"202 426 OFFCURVE",
"239 448 OFFCURVE",
"274 448 CURVE SMOOTH",
"306 448 OFFCURVE",
"336 430 OFFCURVE",
"336 387 CURVE SMOOTH",
"336 371 OFFCURVE",
"334 352 OFFCURVE",
"330 329 CURVE SMOOTH",
"321 276 LINE",
"232 270 LINE SMOOTH",
"91 260 OFFCURVE",
"10 196 OFFCURVE",
"10 103 CURVE SMOOTH",
"10 28 OFFCURVE",
"62 -7 OFFCURVE",
"145 -7 CURVE SMOOTH"
);
},
{
closed = 1;
nodes = (
"162 58 OFFCURVE",
"144 76 OFFCURVE",
"144 109 CURVE SMOOTH",
"144 179 OFFCURVE",
"199 208 OFFCURVE",
"263 213 CURVE SMOOTH",
"313 217 LINE",
"296 103 LINE",
"257 71 OFFCURVE",
"224 58 OFFCURVE",
"194 58 CURVE SMOOTH"
);
},
{
closed = 1;
nodes = (
"489 379 OFFCURVE",
"534 443 OFFCURVE",
"583 443 CURVE SMOOTH",
"615 443 OFFCURVE",
"626 422 OFFCURVE",
"626 390 CURVE SMOOTH",
"626 319 OFFCURVE",
"536 272 OFFCURVE",
"467 268 CURVE"
);
}
);
};
layerId = "0FAD76F5-9F58-4721-BF81-08BC6166EF10";
paths = (
{
closed = 1;
nodes = (
"233 -7 OFFCURVE",
"303 25 OFFCURVE",
"353 62 CURVE",
"389 15 OFFCURVE",
"447 -7 OFFCURVE",
"511 -7 CURVE SMOOTH",
"586 -7 OFFCURVE",
"669 23 OFFCURVE",
"734 78 CURVE",
"701 117 LINE",
"662 85 OFFCURVE",
"602 62 OFFCURVE",
"550 62 CURVE SMOOTH",
"494 62 OFFCURVE",
"454 91 OFFCURVE",
"454 160 CURVE SMOOTH",
"454 175 OFFCURVE",
"455 192 OFFCURVE",
"458 210 CURVE",
"469 210 LINE SMOOTH",
"633 210 OFFCURVE",
"751 275 OFFCURVE",
"751 384 CURVE SMOOTH",
"751 446 OFFCURVE",
"701 492 OFFCURVE",
"601 492 CURVE SMOOTH",
"531 492 OFFCURVE",
"474 474 OFFCURVE",
"429 443 CURVE",
"402 475 OFFCURVE",
"353 492 OFFCURVE",
"276 492 CURVE SMOOTH",
"151 492 OFFCURVE",
"73 437 OFFCURVE",
"73 365 CURVE SMOOTH",
"73 329 OFFCURVE",
"99 306 OFFCURVE",
"138 306 CURVE SMOOTH",
"172 306 OFFCURVE",
"210 326 OFFCURVE",
"218 360 CURVE",
"208 369 OFFCURVE",
"202 379 OFFCURVE",
"202 394 CURVE SMOOTH",
"202 422 OFFCURVE",
"231 448 OFFCURVE",
"271 448 CURVE SMOOTH",
"306 448 OFFCURVE",
"336 430 OFFCURVE",
"336 387 CURVE SMOOTH",
"336 371 OFFCURVE",
"334 352 OFFCURVE",
"330 329 CURVE SMOOTH",
"321 276 LINE",
"232 270 LINE SMOOTH",
"87 260 OFFCURVE",
"10 193 OFFCURVE",
"10 103 CURVE SMOOTH",
"10 31 OFFCURVE",
"58 -7 OFFCURVE",
"145 -7 CURVE SMOOTH"
);
},
{
closed = 1;
nodes = (
"162 58 OFFCURVE",
"144 76 OFFCURVE",
"144 109 CURVE SMOOTH",
"144 166 OFFCURVE",
"183 207 OFFCURVE",
"263 213 CURVE SMOOTH",
"313 217 LINE",
"296 103 LINE",
"257 71 OFFCURVE",
"224 58 OFFCURVE",
"194 58 CURVE SMOOTH"
);
},
{
closed = 1;
nodes = (
"489 379 OFFCURVE",
"534 443 OFFCURVE",
"583 443 CURVE SMOOTH",
"612 443 OFFCURVE",
"627 426 OFFCURVE",
"627 396 CURVE SMOOTH",
"627 319 OFFCURVE",
"536 272 OFFCURVE",
"467 268 CURVE"
);
}
);
width = 751;
}
);
leftKerningGroup = a;
rightKerningGroup = e;
unicode = 00E6;
},
{
glyphname = b;
lastChange = "2019-11-20 03:09:55 +0000";
layers = (
{
background = {
paths = (
{
closed = 1;
nodes = (
"76 18 OFFCURVE",
"104 12 OFFCURVE",
"137 5 CURVE SMOOTH",
"165 -2 OFFCURVE",
"214 -7 OFFCURVE",
"242 -7 CURVE SMOOTH",
"383 -7 OFFCURVE",
"479 155 OFFCURVE",
"479 297 CURVE SMOOTH",
"479 399 OFFCURVE",
"454 476 OFFCURVE",
"351 476 CURVE SMOOTH",
"290 476 OFFCURVE",
"241 423 OFFCURVE",
"210 378 CURVE",
"258 672 LINE",
"246 694 LINE",
"246 694 OFFCURVE",
"227 696 OFFCURVE",
"209 696 CURVE SMOOTH",
"161 696 OFFCURVE",
"89 682 OFFCURVE",
"89 682 CURVE",
"83 643 LINE",
"123 643 OFFCURVE",
"161 642 OFFCURVE",
"161 606 CURVE SMOOTH",
"161 603 OFFCURVE",
"160 599 OFFCURVE",
"158 584 CURVE SMOOTH",
"81 103 LINE SMOOTH",
"78 82 OFFCURVE",
"76 67 OFFCURVE",
"76 60 CURVE SMOOTH",
"76 60 LINE"
);
},
{
closed = 1;
nodes = (
"186 306 OFFCURVE",
"271 424 OFFCURVE",
"326 424 CURVE SMOOTH",
"373 424 OFFCURVE",
"390 368 OFFCURVE",
"390 297 CURVE SMOOTH",
"390 188 OFFCURVE",
"327 38 OFFCURVE",
"234 38 CURVE SMOOTH",
"195 38 OFFCURVE",
"162 51 OFFCURVE",
"162 75 CURVE",
"162 75 LINE"
);
}
);
};
layerId = "CF479DE4-94A2-4865-8D1E-65EA355866D4";
paths = (
{
closed = 1;
nodes = (
"76 18 OFFCURVE",
"104 12 OFFCURVE",
"137 5 CURVE SMOOTH",
"165 -2 OFFCURVE",
"214 -7 OFFCURVE",
"242 -7 CURVE SMOOTH",
"383 -7 OFFCURVE",
"479 155 OFFCURVE",
"479 297 CURVE SMOOTH",
"479 399 OFFCURVE",
"454 476 OFFCURVE",
"351 476 CURVE SMOOTH",
"290 476 OFFCURVE",
"241 423 OFFCURVE",
"210 378 CURVE",
"258 672 LINE",
"246 694 LINE",
"246 694 OFFCURVE",
"227 696 OFFCURVE",
"209 696 CURVE SMOOTH",
"161 696 OFFCURVE",
"89 682 OFFCURVE",
"89 682 CURVE",
"83 643 LINE",
"123 643 OFFCURVE",
"161 642 OFFCURVE",
"161 606 CURVE SMOOTH",
"161 603 OFFCURVE",
"160 599 OFFCURVE",
"158 584 CURVE SMOOTH",
"81 103 LINE SMOOTH",
"78 82 OFFCURVE",
"76 67 OFFCURVE",
"76 60 CURVE SMOOTH",
"76 60 LINE"
);
},
{
closed = 1;
nodes = (
"186 306 OFFCURVE",
"271 424 OFFCURVE",
"326 424 CURVE SMOOTH",
"373 424 OFFCURVE",
"390 368 OFFCURVE",
"390 297 CURVE SMOOTH",
"390 188 OFFCURVE",
"327 38 OFFCURVE",
"234 38 CURVE SMOOTH",
"195 38 OFFCURVE",
"162 51 OFFCURVE",
"162 75 CURVE",
"162 75 LINE"
);
}
);
width = 521;
},
{
layerId = "0FAD76F5-9F58-4721-BF81-08BC6166EF10";
paths = (
{
closed = 1;
nodes = (
"272 682 LINE",
"245 696 LINE",
"190 695 OFFCURVE",
"100 681 OFFCURVE",
"50 660 CURVE",
"53 621 LINE",
"61 622 OFFCURVE",
"68 623 OFFCURVE",
"74 623 CURVE SMOOTH",
"101 623 OFFCURVE",
"114 609 OFFCURVE",
"114 580 CURVE SMOOTH",
"114 573 OFFCURVE",
"113 566 OFFCURVE",
"112 558 CURVE SMOOTH",
"40 98 LINE",
"41 80 OFFCURVE",
"52 65 OFFCURVE",
"68 52 CURVE SMOOTH",
"117 13 OFFCURVE",
"216 -7 OFFCURVE",
"258 -7 CURVE SMOOTH",
"424 -7 OFFCURVE",
"532 110 OFFCURVE",
"532 313 CURVE SMOOTH",
"532 429 OFFCURVE",
"478 492 OFFCURVE",
"379 492 CURVE SMOOTH",
"317 492 OFFCURVE",
"267 469 OFFCURVE",
"231 425 CURVE",
"252 555 LINE"
);
},
{
closed = 1;
nodes = (
"367 432 OFFCURVE",
"387 395 OFFCURVE",
"387 322 CURVE SMOOTH",
"387 190 OFFCURVE",
"350 46 OFFCURVE",
"238 46 CURVE SMOOTH",
"211 46 OFFCURVE",
"188 55 OFFCURVE",
"175 65 CURVE",
"207 268 LINE SMOOTH",
"224 377 OFFCURVE",
"269 432 OFFCURVE",
"324 432 CURVE SMOOTH",
"324 432 LINE"
);
}
);
width = 567;
}
);
unicode = 0062;
},
{
glyphname = c;
lastChange = "2019-11-20 03:09:55 +0000";
layers = (
{
anchors = (
{
name = cedilla;
position = "{211, 0}";
},
{
name = top;
position = "{286, 505}";
}
);
background = {
anchors = (
{
name = cedilla;
position = "{211, 0}";
},
{
name = top;
position = "{286, 505}";
}
);
paths = (
{
closed = 1;
nodes = (
"39 51 OFFCURVE",
"90 -7 OFFCURVE",
"210 -7 CURVE SMOOTH",
"304 -7 OFFCURVE",
"378 63 OFFCURVE",
"378 63 CURVE",
"351 100 LINE",
"351 100 OFFCURVE",
"281 45 OFFCURVE",
"222 45 CURVE SMOOTH",
"155 45 OFFCURVE",
"128 104 OFFCURVE",
"128 171 CURVE SMOOTH",
"128 298 OFFCURVE",
"194 431 OFFCURVE",
"277 431 CURVE SMOOTH",
"304 431 OFFCURVE",
"320 418 OFFCURVE",
"320 383 CURVE SMOOTH",
"320 368 OFFCURVE",
"315 355 OFFCURVE",
"304 338 CURVE",
"306 317 OFFCURVE",
"323 302 OFFCURVE",
"348 302 CURVE SMOOTH",
"383 302 OFFCURVE",
"410 338 OFFCURVE",
"410 374 CURVE SMOOTH",
"410 444 OFFCURVE",
"339 476 OFFCURVE",
"266 476 CURVE SMOOTH",
"110 476 OFFCURVE",
"39 307 OFFCURVE",
"39 171 CURVE SMOOTH",
"39 171 LINE"
);
}
);
};
layerId = "CF479DE4-94A2-4865-8D1E-65EA355866D4";
paths = (
{
closed = 1;
nodes = (
"39 51 OFFCURVE",
"90 -7 OFFCURVE",
"210 -7 CURVE SMOOTH",
"304 -7 OFFCURVE",
"378 63 OFFCURVE",
"378 63 CURVE",
"351 100 LINE",
"351 100 OFFCURVE",
"281 45 OFFCURVE",
"222 45 CURVE SMOOTH",
"155 45 OFFCURVE",
"128 104 OFFCURVE",
"128 171 CURVE SMOOTH",
"128 298 OFFCURVE",
"194 431 OFFCURVE",
"277 431 CURVE SMOOTH",
"304 431 OFFCURVE",
"320 418 OFFCURVE",
"320 383 CURVE SMOOTH",
"320 368 OFFCURVE",
"315 355 OFFCURVE",
"304 338 CURVE",
"306 317 OFFCURVE",
"323 302 OFFCURVE",
"348 302 CURVE SMOOTH",
"383 302 OFFCURVE",
"410 338 OFFCURVE",
"410 374 CURVE SMOOTH",
"410 444 OFFCURVE",
"339 476 OFFCURVE",
"266 476 CURVE SMOOTH",
"110 476 OFFCURVE",
"39 307 OFFCURVE",
"39 171 CURVE SMOOTH",
"39 171 LINE"
);
}
);
width = 433;
},
{
anchors = (
{
name = cedilla;
position = "{227, 0}";
},
{
name = top;
position = "{282, 515}";
}
);
layerId = "0FAD76F5-9F58-4721-BF81-08BC6166EF10";
paths = (
{
closed = 1;
nodes = (
"295 -7 OFFCURVE",
"368 21 OFFCURVE",
"421 68 CURVE",
"390 104 LINE",
"347 69 OFFCURVE",
"302 51 OFFCURVE",
"260 51 CURVE SMOOTH",
"197 51 OFFCURVE",
"168 89 OFFCURVE",
"168 177 CURVE SMOOTH",
"168 301 OFFCURVE",
"203 443 OFFCURVE",
"287 443 CURVE SMOOTH",
"313 443 OFFCURVE",
"330 427 OFFCURVE",
"330 405 CURVE SMOOTH",
"330 392 OFFCURVE",
"324 375 OFFCURVE",
"311 360 CURVE",
"315 336 OFFCURVE",
"341 318 OFFCURVE",
"372 318 CURVE SMOOTH",
"420 318 OFFCURVE",
"462 352 OFFCURVE",
"462 396 CURVE SMOOTH",
"462 451 OFFCURVE",
"400 489 OFFCURVE",
"303 489 CURVE SMOOTH",
"121 489 OFFCURVE",
"22 374 OFFCURVE",
"22 186 CURVE SMOOTH",
"22 61 OFFCURVE",
"91 -7 OFFCURVE",
"226 -7 CURVE SMOOTH",
"226 -7 LINE"
);
}
);
width = 452;
}
);
unicode = 0063;
},
{
glyphname = d;
lastChange = "2019-11-20 03:09:55 +0000";
layers = (
{
anchors = (
{
name = cedilla;
position = "{221, 0}";
}
);
background = {
anchors = (
{
name = cedilla;
position = "{221, 0}";
}
);
paths = (
{
closed = 1;
nodes = (
"306 16 OFFCURVE",
"312 -7 OFFCURVE",
"363 -7 CURVE SMOOTH",
"402 -7 OFFCURVE",
"454 30 OFFCURVE",
"476 49 CURVE",
"466 81 LINE",
"461 78 OFFCURVE",
"433 62 OFFCURVE",
"416 62 CURVE SMOOTH",
"402 62 OFFCURVE",
"394 65 OFFCURVE",
"394 77 CURVE SMOOTH",
"394 79 OFFCURVE",
"395 86 OFFCURVE",
"397 96 CURVE SMOOTH",
"490 672 LINE",
"478 694 LINE",
"478 694 OFFCURVE",
"458 696 OFFCURVE",
"441 696 CURVE SMOOTH",
"391 696 OFFCURVE",
"321 682 OFFCURVE",
"321 682 CURVE",
"315 643 LINE",
"361 643 OFFCURVE",
"392 640 OFFCURVE",
"392 604 CURVE SMOOTH",
"392 600 OFFCURVE",
"391 590 OFFCURVE",
"389 577 CURVE SMOOTH",
"368 455 LINE",
"325 474 OFFCURVE",
"288 476 OFFCURVE",
"262 476 CURVE SMOOTH",
"121 476 OFFCURVE",
"40 313 OFFCURVE",
"40 172 CURVE SMOOTH",
"40 69 OFFCURVE",
"65 -7 OFFCURVE",
"167 -7 CURVE SMOOTH",
"231 -7 OFFCURVE",
"283 52 OFFCURVE",
"314 98 CURVE",
"309 72 OFFCURVE",
"306 53 OFFCURVE",
"306 45 CURVE SMOOTH",
"306 45 LINE"
);
},
{
closed = 1;
nodes = (
"146 45 OFFCURVE",
"129 101 OFFCURVE",
"129 171 CURVE SMOOTH",
"129 280 OFFCURVE",
"191 431 OFFCURVE",
"285 431 CURVE SMOOTH",
"314 431 OFFCURVE",
"340 419 OFFCURVE",
"360 406 CURVE",
"343 301 LINE SMOOTH",
"318 145 OFFCURVE",
"245 45 OFFCURVE",
"193 45 CURVE SMOOTH",
"193 45 LINE"
);
}
);
};
layerId = "CF479DE4-94A2-4865-8D1E-65EA355866D4";
paths = (
{
closed = 1;
nodes = (
"306 16 OFFCURVE",
"312 -7 OFFCURVE",
"363 -7 CURVE SMOOTH",
"402 -7 OFFCURVE",
"454 30 OFFCURVE",
"476 49 CURVE",
"466 81 LINE",
"461 78 OFFCURVE",
"433 62 OFFCURVE",
"416 62 CURVE SMOOTH",
"402 62 OFFCURVE",
"394 65 OFFCURVE",
"394 77 CURVE SMOOTH",
"394 79 OFFCURVE",
"395 86 OFFCURVE",
"397 96 CURVE SMOOTH",
"490 672 LINE",
"478 694 LINE",
"478 694 OFFCURVE",
"458 696 OFFCURVE",
"441 696 CURVE SMOOTH",
"391 696 OFFCURVE",
"321 682 OFFCURVE",
"321 682 CURVE",
"315 643 LINE",
"361 643 OFFCURVE",
"392 640 OFFCURVE",
"392 604 CURVE SMOOTH",
"392 600 OFFCURVE",
"391 590 OFFCURVE",
"389 577 CURVE SMOOTH",
"368 455 LINE",
"325 474 OFFCURVE",
"288 476 OFFCURVE",
"262 476 CURVE SMOOTH",
"121 476 OFFCURVE",
"40 313 OFFCURVE",
"40 172 CURVE SMOOTH",
"40 69 OFFCURVE",
"65 -7 OFFCURVE",
"167 -7 CURVE SMOOTH",
"231 -7 OFFCURVE",
"283 52 OFFCURVE",
"314 98 CURVE",
"309 72 OFFCURVE",
"306 53 OFFCURVE",
"306 45 CURVE SMOOTH",
"306 45 LINE"
);
},
{
closed = 1;
nodes = (
"146 45 OFFCURVE",
"129 101 OFFCURVE",
"129 171 CURVE SMOOTH",
"129 280 OFFCURVE",
"191 431 OFFCURVE",
"285 431 CURVE SMOOTH",
"314 431 OFFCURVE",
"340 419 OFFCURVE",
"360 406 CURVE",
"343 301 LINE SMOOTH",
"318 145 OFFCURVE",
"245 45 OFFCURVE",
"193 45 CURVE SMOOTH",
"193 45 LINE"
);
}
);
width = 524;
},
{
layerId = "0FAD76F5-9F58-4721-BF81-08BC6166EF10";
paths = (
{
closed = 1;
nodes = (
"575 682 LINE",
"547 696 LINE",
"492 695 OFFCURVE",
"402 681 OFFCURVE",
"352 660 CURVE",
"355 621 LINE",
"362 622 OFFCURVE",
"369 623 OFFCURVE",
"375 623 CURVE SMOOTH",
"403 623 OFFCURVE",
"415 609 OFFCURVE",
"415 579 CURVE SMOOTH",
"415 573 OFFCURVE",
"415 566 OFFCURVE",
"400 468 CURVE",
"373 483 OFFCURVE",
"348 492 OFFCURVE",
"305 492 CURVE SMOOTH",
"138 492 OFFCURVE",
"36 372 OFFCURVE",
"36 172 CURVE SMOOTH",
"36 55 OFFCURVE",
"90 -7 OFFCURVE",
"189 -7 CURVE SMOOTH",
"244 -7 OFFCURVE",
"307 16 OFFCURVE",
"340 73 CURVE",
"342 24 OFFCURVE",
"365 -5 OFFCURVE",
"424 -5 CURVE SMOOTH",
"471 -5 OFFCURVE",
"538 23 OFFCURVE",
"564 49 CURVE",
"551 85 LINE",
"533 75 OFFCURVE",
"517 69 OFFCURVE",
"505 69 CURVE SMOOTH",
"491 69 OFFCURVE",
"483 77 OFFCURVE",
"483 93 CURVE SMOOTH",
"483 96 OFFCURVE",
"484 110 OFFCURVE",
"487 129 CURVE SMOOTH",
"558 572 LINE"
);
},
{
closed = 1;
nodes = (
"344 114 OFFCURVE",
"302 53 OFFCURVE",
"243 53 CURVE SMOOTH",
"201 53 OFFCURVE",
"181 90 OFFCURVE",
"181 163 CURVE SMOOTH",
"181 300 OFFCURVE",
"221 438 OFFCURVE",
"330 438 CURVE SMOOTH",
"356 438 OFFCURVE",
"380 429 OFFCURVE",
"392 419 CURVE",
"363 234 LINE"
);
}
);
width = 570;
}
);
unicode = 0064;
},
